<svg width="38" height="38" viewBox="0 0 38 38" fill="none" xmlns="http://www.w3.org/2000/svg">
<g clip-path="url(#clip0_28_3844)">
<g filter="url(#filter0_i_28_3844)">
<rect width="38" height="38" rx="5" fill="url(#paint0_radial_28_3844)"/>
<rect x="0.5" y="0.5" width="37" height="37" rx="4.5" stroke="#00FF99" stroke-dasharray="20 20"/>
<rect x="0.5" y="0.5" width="37" height="37" rx="4.5" stroke="url(#paint1_linear_28_3844)" stroke-dasharray="20 20"/>
</g>
<path d="M29.8208 10.8401H8.27073C7.7987 10.8401 7.41602 11.2228 7.41602 11.6948V21.197C7.41602 23.9584 9.65459 26.197 12.416 26.197H25.6756C28.437 26.197 30.6756 23.9584 30.6756 21.197V11.6949C30.6756 11.2228 30.2929 10.8401 29.8208 10.8401Z" fill="url(#paint2_linear_28_3844)"/>
<path d="M28.9657 11.6624H9.12504C8.65039 11.6624 8.26562 12.0471 8.26562 12.5218V24.5158C8.26562 24.9905 8.65039 25.3753 9.12504 25.3753H28.9657C29.4404 25.3753 29.8251 24.9905 29.8251 24.5158V12.5218C29.8251 12.0471 29.4403 11.6624 28.9657 11.6624Z" fill="url(#paint3_linear_28_3844)"/>
<path d="M14.6929 21.0153H9.51783C9.35493 21.0153 9.2229 20.8832 9.2229 20.7203V20.3181C9.2229 20.1552 9.35493 20.0232 9.51783 20.0232H14.6929C14.8558 20.0232 14.9878 20.1552 14.9878 20.3181V20.7203C14.9878 20.8832 14.8558 21.0153 14.6929 21.0153Z" fill="#3E5959"/>
<path d="M14.693 22.6779H9.51795C9.35505 22.6779 9.22302 22.5458 9.22302 22.3829V21.9807C9.22302 21.8178 9.35505 21.6858 9.51795 21.6858H14.693C14.8559 21.6858 14.9879 21.8178 14.9879 21.9807V22.3829C14.9879 22.5458 14.8559 22.6779 14.693 22.6779Z" fill="#3E5959"/>
<path d="M12.0653 24.3405H9.51795C9.35505 24.3405 9.22302 24.2084 9.22302 24.0455V23.6433C9.22302 23.4804 9.35505 23.3484 9.51795 23.3484H12.0653C12.2282 23.3484 12.3602 23.4804 12.3602 23.6433V24.0455C12.3602 24.2084 12.2282 24.3405 12.0653 24.3405Z" fill="#3E5959"/>
<path d="M30.5206 26.0852H7.57042C7.3422 26.0852 7.12963 26.2012 7.0061 26.3931L5.67775 28.457C5.58925 28.5945 5.68795 28.7754 5.85149 28.7754H32.2395C32.403 28.7754 32.5017 28.5945 32.4132 28.457L31.0849 26.3931C30.9614 26.2012 30.7488 26.0852 30.5206 26.0852Z" fill="url(#paint4_linear_28_3844)"/>
<path d="M31.8239 30.4004H6.2665C5.80216 30.4004 5.42578 30.0241 5.42578 29.5597V29.0553C5.42578 28.591 5.80216 28.2146 6.2665 28.2146H31.8239C32.2882 28.2146 32.6647 28.591 32.6647 29.0553V29.5597C32.6647 30.0241 32.2883 30.4004 31.8239 30.4004Z" fill="url(#paint5_linear_28_3844)"/>
<path d="M17.6997 27.6729H20.39C20.6685 27.6729 20.8944 27.8987 20.8944 28.1773C20.8944 28.4558 20.6685 28.6817 20.39 28.6817H17.6997C17.4211 28.6817 17.1953 28.4558 17.1953 28.1773C17.1953 27.8987 17.4211 27.6729 17.6997 27.6729Z" fill="url(#paint6_linear_28_3844)"/>
<path d="M29.9503 27.0727V27.0727C29.6071 26.4627 28.9617 26.0852 28.2618 26.0852H9.82807C9.12817 26.0852 8.48269 26.4627 8.13954 27.0727V27.0727C8.03555 27.2576 8.16913 27.486 8.38127 27.486H29.7086C29.9207 27.486 30.0543 27.2576 29.9503 27.0727Z" fill="url(#paint7_linear_28_3844)"/>
<path d="M25.7357 12.3041C24.798 11.3664 23.5263 10.8396 22.2002 10.8396H14.7714C14.2724 10.8396 13.8359 11.2021 13.8359 11.701V11.701C13.8359 13.2757 14.5248 14.6889 15.6169 15.6576L17.3595 17.4103C17.4783 17.5298 17.545 17.6915 17.545 17.8601V17.8601C17.545 18.2124 17.2594 18.498 16.9071 18.498H16.1589C15.5537 18.498 15.1915 19.1711 15.5249 19.6762L18.4894 24.1679V24.1679C18.6522 24.4146 18.9364 24.5573 19.1444 24.7672L19.3903 25.0154C20.1394 25.7713 21.1595 26.1965 22.2237 26.1965H25.6731C28.4345 26.1965 30.6731 23.9579 30.6731 21.1965V19.3126C30.6731 17.9865 30.1463 16.7148 29.2086 15.7771L25.7357 12.3041Z" fill="url(#paint8_linear_28_3844)"/>
<path d="M18.4117 24.088L15.4472 19.5963C15.1139 19.0912 15.4761 18.4182 16.0812 18.4182V18.4182C16.8468 18.4182 17.4673 17.7976 17.4673 17.0321V14.788C17.4673 14.384 17.7948 14.0566 18.1987 14.0566H19.8929C20.2968 14.0566 20.6242 14.3841 20.6242 14.788V17.0321C20.6242 17.7976 21.2448 18.4182 22.0103 18.4182V18.4182C22.6155 18.4182 22.9777 19.0912 22.6443 19.5963L19.6798 24.088C19.3795 24.543 18.712 24.543 18.4117 24.088Z" fill="url(#paint9_linear_28_3844)"/>
<path d="M19.0454 16.9086C21.9656 16.9086 24.3329 14.5413 24.3329 11.621C24.3329 8.70081 21.9656 6.3335 19.0454 6.3335C16.1251 6.3335 13.7578 8.70081 13.7578 11.621C13.7578 14.5413 16.1251 16.9086 19.0454 16.9086Z" fill="url(#paint10_linear_28_3844)"/>
<path d="M19.0461 15.7336C21.3174 15.7336 23.1587 13.8924 23.1587 11.6211C23.1587 9.34979 21.3174 7.50854 19.0461 7.50854C16.7748 7.50854 14.9336 9.34979 14.9336 11.6211C14.9336 13.8924 16.7748 15.7336 19.0461 15.7336Z" fill="url(#paint11_linear_28_3844)"/>
<path d="M22.9492 15.1879C24.1042 13.9249 23.4733 12.0455 22.2631 10.8353L20.9024 9.47461C20.8008 9.37301 20.7147 9.25322 20.5972 9.17044C20.4729 9.08279 20.3085 9.02097 20.1353 8.97794C19.8678 8.91147 19.5787 8.81453 19.405 8.60043V8.60043C19.3523 8.53549 19.2516 8.48779 19.1507 8.48779C18.9813 8.48779 18.8581 8.58788 18.8581 8.69566V8.69566C18.8581 8.81931 18.7667 8.92273 18.646 8.94986C17.9207 9.11293 17.3183 9.58203 17.3183 10.4741C17.3183 10.8853 17.4632 11.1825 17.6834 11.4089C17.7432 11.4703 17.8069 11.5271 17.8675 11.5878C18.0603 11.7811 18.5121 12.234 18.7326 12.4554C18.8137 12.5367 18.8581 12.6452 18.8581 12.76V12.76C18.8581 13.0456 18.5956 13.256 18.3535 13.1044C18.0958 12.9431 17.9124 12.753 17.7032 12.753C17.4106 12.753 17.1797 13.1379 17.1797 13.3997C17.1797 13.5911 17.294 13.7801 17.4875 13.9417L18.3152 14.7694C19.5498 16.004 21.4826 16.6279 22.7339 15.41C22.8078 15.3381 22.8796 15.264 22.9492 15.1879Z" fill="url(#paint12_linear_28_3844)"/>
<path d="M19.8274 11.1699C19.5864 11.0611 19.4199 10.8297 19.4199 10.5653V10.5653C19.4199 10.1961 19.7353 9.92477 20.0652 10.0905C20.1508 10.1335 20.2286 10.1658 20.3206 10.1658C20.6594 10.1658 20.7979 9.74239 20.7979 9.53452C20.7979 9.0684 20.1043 8.91642 19.6119 8.87578C19.505 8.86695 19.4198 8.77952 19.4198 8.67223V8.67223C19.4198 8.56444 19.2735 8.46436 19.1272 8.46436C18.9579 8.46436 18.8346 8.56444 18.8346 8.67223V8.67223C18.8346 8.79587 18.7432 8.8993 18.6226 8.92642C17.8972 9.08949 17.2948 9.55859 17.2948 10.4507C17.2948 11.2426 17.8318 11.6119 18.4103 11.8663C18.6624 11.9771 18.8346 12.2186 18.8346 12.4939V12.4939C18.8346 12.9061 18.465 13.1841 18.1298 12.9441C17.9682 12.8284 17.8307 12.7295 17.6798 12.7295C17.3872 12.7295 17.1562 13.1145 17.1562 13.3762C17.1562 13.8343 17.8084 14.2791 18.6425 14.3641C18.7493 14.375 18.8346 14.4622 18.8346 14.5695V14.5695C18.8346 14.6773 18.9578 14.7774 19.1272 14.7774C19.2735 14.7774 19.4198 14.6773 19.4198 14.5695V14.5695C19.4198 14.4408 19.5138 14.3328 19.6385 14.3009C20.4188 14.1013 20.9365 13.5432 20.9365 12.668C20.9366 11.8271 20.4024 11.4297 19.8274 11.1699ZM18.9117 10.314C18.9117 10.5544 18.6376 10.7381 18.492 10.5469C18.445 10.4852 18.419 10.4157 18.419 10.3352C18.419 10.2402 18.4576 10.1473 18.5421 10.07C18.6987 9.92694 18.9117 10.1019 18.9117 10.314V10.314ZM19.7319 13.0516C19.5937 13.2408 19.3429 13.0518 19.3429 12.8176V12.8176C19.3429 12.5512 19.6624 12.3633 19.7731 12.6056C19.7986 12.6616 19.8125 12.7231 19.8125 12.7912C19.8125 12.8958 19.7829 12.9818 19.7319 13.0516Z" fill="url(#paint13_linear_28_3844)"/>
<g style="mix-blend-mode:color" filter="url(#filter1_i_28_3844)">
<rect width="38" height="38" rx="5" fill="#27D690"/>
<rect x="0.5" y="0.5" width="37" height="37" rx="4.5" stroke="#00FF99" stroke-dasharray="20 20"/>
<rect x="0.5" y="0.5" width="37" height="37" rx="4.5" stroke="url(#paint14_linear_28_3844)" stroke-dasharray="20 20"/>
</g>
</g>
<defs>
<filter id="filter0_i_28_3844" x="0" y="0" width="38" height="38" filterUnits="userSpaceOnUse" color-interpolation-filters="sRGB">
<feFlood flood-opacity="0" result="BackgroundImageFix"/>
<feBlend mode="normal" in="SourceGraphic" in2="BackgroundImageFix" result="shape"/>
<feColorMatrix in="SourceAlpha" type="matrix" values="0 0 0 0 0 0 0 0 0 0 0 0 0 0 0 0 0 0 127 0" result="hardAlpha"/>
<feOffset/>
<feGaussianBlur stdDeviation="3.05"/>
<feComposite in2="hardAlpha" operator="arithmetic" k2="-1" k3="1"/>
<feColorMatrix type="matrix" values="0 0 0 0 0.860323 0 0 0 0 0.7875 0 0 0 0 1 0 0 0 1 0"/>
<feBlend mode="normal" in2="shape" result="effect1_innerShadow_28_3844"/>
</filter>
<filter id="filter1_i_28_3844" x="0" y="0" width="38" height="38" filterUnits="userSpaceOnUse" color-interpolation-filters="sRGB">
<feFlood flood-opacity="0" result="BackgroundImageFix"/>
<feBlend mode="normal" in="SourceGraphic" in2="BackgroundImageFix" result="shape"/>
<feColorMatrix in="SourceAlpha" type="matrix" values="0 0 0 0 0 0 0 0 0 0 0 0 0 0 0 0 0 0 127 0" result="hardAlpha"/>
<feOffset/>
<feGaussianBlur stdDeviation="3.05"/>
<feComposite in2="hardAlpha" operator="arithmetic" k2="-1" k3="1"/>
<feColorMatrix type="matrix" values="0 0 0 0 0.860323 0 0 0 0 0.7875 0 0 0 0 1 0 0 0 1 0"/>
<feBlend mode="normal" in2="shape" result="effect1_innerShadow_28_3844"/>
</filter>
<radialGradient id="paint0_radial_28_3844" cx="0" cy="0" r="1" gradientUnits="userSpaceOnUse" gradientTransform="translate(18.8403) rotate(90) scale(38 13.5108)">
<stop stop-color="#27D690"/>
<stop offset="1" stop-color="#1AB376"/>
</radialGradient>
<linearGradient id="paint1_linear_28_3844" x1="0" y1="19.8261" x2="38" y2="19.8261" gradientUnits="userSpaceOnUse">
<stop stop-color="white" stop-opacity="0"/>
<stop offset="0.515" stop-color="white"/>
<stop offset="1" stop-color="white" stop-opacity="0"/>
</linearGradient>
<linearGradient id="paint2_linear_28_3844" x1="16.379" y1="12.9224" x2="22.3761" y2="26.2616" gradientUnits="userSpaceOnUse">
<stop stop-color="#537983"/>
<stop offset="1" stop-color="#3E5959"/>
</linearGradient>
<linearGradient id="paint3_linear_28_3844" x1="13.0857" y1="12.5592" x2="23.4591" y2="22.9326" gradientUnits="userSpaceOnUse">
<stop stop-color="#EEF5F6"/>
<stop offset="1" stop-color="#CBE5E8"/>
</linearGradient>
<linearGradient id="paint4_linear_28_3844" x1="19.0455" y1="26.3654" x2="19.0455" y2="29.5041" gradientUnits="userSpaceOnUse">
<stop stop-color="#537983"/>
<stop offset="1" stop-color="#3E5959"/>
</linearGradient>
<linearGradient id="paint5_linear_28_3844" x1="19.0452" y1="28.4967" x2="19.0452" y2="29.7678" gradientUnits="userSpaceOnUse">
<stop stop-color="#537983"/>
<stop offset="1" stop-color="#3E5959"/>
</linearGradient>
<linearGradient id="paint6_linear_28_3844" x1="19.0448" y1="28.747" x2="19.0448" y2="27.865" gradientUnits="userSpaceOnUse">
<stop stop-color="#537983"/>
<stop offset="1" stop-color="#3E5959"/>
</linearGradient>
<linearGradient id="paint7_linear_28_3844" x1="19.0449" y1="24.6844" x2="19.0449" y2="27.4306" gradientUnits="userSpaceOnUse">
<stop stop-color="#537983"/>
<stop offset="1" stop-color="#3E5959"/>
</linearGradient>
<linearGradient id="paint8_linear_28_3844" x1="26.527" y1="20.5648" x2="13.9758" y2="14.3159" gradientUnits="userSpaceOnUse">
<stop stop-color="#3E5959" stop-opacity="0"/>
<stop offset="1" stop-color="#384949"/>
</linearGradient>
<linearGradient id="paint9_linear_28_3844" x1="17.2106" y1="16.9904" x2="21.4009" y2="21.1808" gradientUnits="userSpaceOnUse">
<stop stop-color="#C1E9AF"/>
<stop offset="1" stop-color="#4FC123"/>
</linearGradient>
<linearGradient id="paint10_linear_28_3844" x1="16.3749" y1="8.95056" x2="22.3605" y2="14.9362" gradientUnits="userSpaceOnUse">
<stop stop-color="#FFE177"/>
<stop offset="1" stop-color="#FE9738"/>
</linearGradient>
<linearGradient id="paint11_linear_28_3844" x1="21.1232" y1="13.6981" x2="16.4676" y2="9.04257" gradientUnits="userSpaceOnUse">
<stop stop-color="#FFE177"/>
<stop offset="1" stop-color="#FE9738"/>
</linearGradient>
<linearGradient id="paint12_linear_28_3844" x1="22.4215" y1="13.8845" x2="17.588" y2="11.5878" gradientUnits="userSpaceOnUse">
<stop stop-color="#FE9738" stop-opacity="0"/>
<stop offset="1" stop-color="#F46700"/>
</linearGradient>
<linearGradient id="paint13_linear_28_3844" x1="17.9991" y1="10.5088" x2="20.445" y2="12.9548" gradientUnits="userSpaceOnUse">
<stop stop-color="#FE9738"/>
<stop offset="1" stop-color="#F46700"/>
</linearGradient>
<linearGradient id="paint14_linear_28_3844" x1="0" y1="19.8261" x2="38" y2="19.8261" gradientUnits="userSpaceOnUse">
<stop stop-color="white" stop-opacity="0"/>
<stop offset="0.515" stop-color="white"/>
<stop offset="1" stop-color="white" stop-opacity="0"/>
</linearGradient>
<clipPath id="clip0_28_3844">
<rect width="38" height="38" fill="white"/>
</clipPath>
</defs>
</svg>
