<svg width="38" height="38" viewBox="0 0 38 38" fill="none" xmlns="http://www.w3.org/2000/svg">
<g clip-path="url(#clip0_28_3846)">
<g filter="url(#filter0_i_28_3846)">
<rect width="38" height="38" rx="5" fill="url(#paint0_radial_28_3846)"/>
<rect x="0.5" y="0.5" width="37" height="37" rx="4.5" stroke="#00FF99" stroke-dasharray="20 20"/>
<rect x="0.5" y="0.5" width="37" height="37" rx="4.5" stroke="url(#paint1_linear_28_3846)" stroke-dasharray="20 20"/>
</g>
<path d="M15.459 15.1619C15.459 15.1391 15.459 15.1158 15.459 15.093C15.4639 12.9854 17.1743 11.2754 19.2819 11.27H19.3508C21.4584 11.2749 23.1689 12.9854 23.1738 15.093V15.1619C23.1689 17.2695 15.4639 17.2695 15.459 15.1619Z" fill="url(#paint2_radial_28_3846)"/>
<path opacity="0.55" d="M15.459 15.1619C15.459 15.1391 15.459 15.1158 15.459 15.093C15.4639 12.9854 17.1743 11.2754 19.2819 11.27H19.3508C21.4584 11.2749 23.1689 12.9854 23.1738 15.093V15.1619C23.1689 17.2695 15.4639 17.2695 15.459 15.1619Z" fill="url(#paint3_linear_28_3846)"/>
<path d="M19.3516 11.2696C19.3516 11.2697 19.3515 11.2698 19.3513 11.2698C19.3286 11.2698 19.3054 11.2698 19.2827 11.2698V11.2698C18.6252 11.2713 18.4397 12.0483 18.9046 12.5133L21.6339 15.2426C22.1421 15.7507 23.1725 15.8798 23.1745 15.1611V15.1611C23.1745 15.1383 23.1745 15.115 23.1745 15.0922C23.1696 12.9847 21.4593 11.2743 19.3518 11.2693C19.3517 11.2693 19.3516 11.2694 19.3516 11.2696V11.2696Z" fill="url(#paint4_linear_28_3846)"/>
<path d="M25.2872 12.5406H25.2759C24.8005 12.5406 24.395 12.2055 24.2125 11.7666V11.7666C24.0301 11.3279 24.0849 10.814 24.4209 10.4781L24.4296 10.4694C24.6297 10.2692 24.6297 9.94536 24.4296 9.74572L23.3722 8.6884C23.1721 8.48822 22.8482 8.48822 22.6486 8.6884L22.6402 8.69679C22.304 9.03291 21.79 9.0879 21.351 8.90555V8.90555C20.9121 8.72325 20.5773 8.31773 20.5773 7.84249V7.83072C20.5773 7.54808 20.3484 7.3186 20.0652 7.3186H18.5701C18.2875 7.3186 18.058 7.54754 18.058 7.83072V7.84207C18.058 8.31745 17.7229 8.72301 17.2839 8.9055V8.9055C16.8452 9.0879 16.3314 9.03302 15.9954 8.69706L15.9867 8.6884C15.7866 8.48822 15.4627 8.48822 15.2631 8.6884L14.2057 9.74572C14.0056 9.9459 14.0056 10.2698 14.2057 10.4694L14.2141 10.4778C14.5502 10.8139 14.6052 11.328 14.4229 11.767V11.767C14.2406 12.2058 13.8351 12.5406 13.3598 12.5406H13.3481C13.0654 12.5406 12.8359 12.7696 12.8359 13.0528V14.5479C12.8359 14.8305 13.0649 15.06 13.3481 15.06H13.3594C13.8348 15.06 14.2403 15.3951 14.4228 15.834V15.834C14.6052 16.2728 14.5504 16.7866 14.2144 17.1226L14.2057 17.1312C14.0056 17.3314 14.0056 17.6553 14.2057 17.8549L15.2631 18.9122C15.4632 19.1124 15.7871 19.1124 15.9867 18.9122L15.9951 18.9038C16.3313 18.5677 16.8453 18.5127 17.2843 18.6951V18.6951C17.7232 18.8774 18.058 19.2829 18.058 19.7581V19.7699C18.058 20.0526 18.2869 20.282 18.5701 20.282H20.0652C20.3478 20.282 20.5773 20.0531 20.5773 19.7699V19.7586C20.5773 19.2832 20.9124 18.8776 21.3514 18.6951V18.6951C21.7901 18.5127 22.3039 18.5676 22.6399 18.9036L22.6486 18.9122C22.8487 19.1124 23.1726 19.1124 23.3722 18.9122L24.4296 17.8549C24.6297 17.6547 24.6297 17.3309 24.4296 17.1312L24.4212 17.1228C24.0851 16.7867 24.0301 16.2727 24.2124 15.8337V15.8337C24.3947 15.3948 24.8002 15.06 25.2755 15.06H25.2872C25.5699 15.06 25.7994 14.8311 25.7994 14.5479V13.0528C25.7994 12.7701 25.5704 12.5406 25.2872 12.5406ZM19.3182 17.7149C17.1564 17.7149 15.403 15.9616 15.403 13.7998C15.403 11.6379 17.1564 9.8846 19.3182 9.8846C21.48 9.8846 23.2334 11.6379 23.2334 13.7998C23.2334 15.9616 21.48 17.7149 19.3182 17.7149Z" fill="url(#paint5_linear_28_3846)"/>
<path d="M20.579 7.83047V7.83047C20.579 8.24823 20.1861 8.55428 19.7698 8.51927C19.6215 8.5068 19.4715 8.50045 19.3199 8.50045C19.1684 8.50045 19.0183 8.5068 18.8701 8.51927C18.4538 8.55428 18.0608 8.24823 18.0608 7.83047V7.83047C18.0608 7.54783 18.2897 7.31836 18.5724 7.31836H20.0675C20.3501 7.31836 20.579 7.54783 20.579 7.83047Z" fill="url(#paint6_linear_28_3846)"/>
<path d="M19.7698 19.0797C20.1861 19.0447 20.579 19.3508 20.579 19.7685V19.7685C20.579 20.0512 20.3501 20.2807 20.0675 20.2807H18.5724C18.2897 20.2807 18.0608 20.0512 18.0608 19.7685V19.7685C18.0608 19.3508 18.4538 19.0447 18.8701 19.0797C19.0183 19.0922 19.1684 19.0986 19.3199 19.0986C19.4715 19.0986 19.6215 19.0922 19.7698 19.0797Z" fill="url(#paint7_linear_28_3846)"/>
<path d="M19.7698 19.0797C20.1861 19.0447 20.579 19.3508 20.579 19.7685V19.7685C20.579 20.0512 20.3501 20.2807 20.0675 20.2807H18.5724C18.2897 20.2807 18.0608 20.0512 18.0608 19.7685V19.7685C18.0608 19.3508 18.4538 19.0447 18.8701 19.0797C19.0183 19.0922 19.1684 19.0986 19.3199 19.0986C19.4715 19.0986 19.6215 19.0922 19.7698 19.0797Z" fill="url(#paint8_linear_28_3846)"/>
<path d="M25.8017 13.0521V14.5472C25.8017 14.8298 25.5722 15.0588 25.2895 15.0588V15.0588C24.8718 15.0588 24.5657 14.6658 24.6007 14.2495C24.6132 14.1012 24.6196 13.9512 24.6196 13.7997C24.6196 13.6481 24.6132 13.4981 24.6007 13.3498C24.5657 12.9335 24.8718 12.5405 25.2895 12.5405V12.5405C25.5722 12.5405 25.8017 12.7695 25.8017 13.0521Z" fill="url(#paint9_linear_28_3846)"/>
<path d="M25.8017 13.0521V14.5472C25.8017 14.8298 25.5722 15.0588 25.2895 15.0588V15.0588C24.8718 15.0588 24.5657 14.6658 24.6007 14.2495C24.6132 14.1012 24.6196 13.9512 24.6196 13.7997C24.6196 13.6481 24.6132 13.4981 24.6007 13.3498C24.5657 12.9335 24.8718 12.5405 25.2895 12.5405V12.5405C25.5722 12.5405 25.8017 12.7695 25.8017 13.0521Z" fill="url(#paint10_linear_28_3846)"/>
<path d="M14.0222 13.7997C14.0222 13.9512 14.0285 14.1012 14.041 14.2495C14.076 14.6658 13.77 15.0588 13.3522 15.0588V15.0588C13.0696 15.0588 12.8401 14.8298 12.8401 14.5472V13.0521C12.8401 12.7695 13.0696 12.5405 13.3522 12.5405V12.5405C13.77 12.5405 14.076 12.9335 14.041 13.3498C14.0285 13.4981 14.0222 13.6481 14.0222 13.7997Z" fill="url(#paint11_linear_28_3846)"/>
<path d="M24.4284 10.4695V10.4695C24.1325 10.7654 23.6377 10.7041 23.3677 10.3844C23.1742 10.1552 22.9617 9.94261 22.7325 9.74914C22.4129 9.4792 22.3516 8.98433 22.6474 8.68847V8.68847C22.8476 8.48829 23.1715 8.48829 23.3711 8.68847L24.4284 9.74578C24.6286 9.94596 24.6286 10.2698 24.4284 10.4695Z" fill="url(#paint12_linear_28_3846)"/>
<path d="M15.9025 17.8509C16.2222 18.1208 16.2835 18.6157 15.9877 18.9116V18.9116C15.7875 19.1118 15.4636 19.1118 15.264 18.9116L14.2067 17.8543C14.0065 17.6541 14.0065 17.3302 14.2067 17.1306V17.1306C14.5025 16.8347 14.9974 16.8959 15.2674 17.2157C15.4609 17.4449 15.6734 17.6574 15.9025 17.8509Z" fill="url(#paint13_linear_28_3846)"/>
<path d="M15.9025 17.8509C16.2222 18.1208 16.2835 18.6157 15.9877 18.9116V18.9116C15.7875 19.1118 15.4636 19.1118 15.264 18.9116L14.2067 17.8543C14.0065 17.6541 14.0065 17.3302 14.2067 17.1306V17.1306C14.5025 16.8347 14.9974 16.8959 15.2674 17.2157C15.4609 17.4449 15.6734 17.6574 15.9025 17.8509Z" fill="url(#paint14_linear_28_3846)"/>
<path d="M24.4284 17.8535L23.3711 18.9108C23.1709 19.111 22.8471 19.111 22.6474 18.9108V18.9108C22.3515 18.615 22.4128 18.1201 22.7325 17.8501C22.9617 17.6566 23.1743 17.4441 23.3677 17.215C23.6377 16.8953 24.1326 16.834 24.4284 17.1298V17.1298C24.6286 17.33 24.6286 17.6539 24.4284 17.8535Z" fill="url(#paint15_linear_28_3846)"/>
<path d="M24.4284 17.8535L23.3711 18.9108C23.1709 19.111 22.8471 19.111 22.6474 18.9108V18.9108C22.3515 18.615 22.4128 18.1201 22.7325 17.8501C22.9617 17.6566 23.1743 17.4441 23.3677 17.215C23.6377 16.8953 24.1326 16.834 24.4284 17.1298V17.1298C24.6286 17.33 24.6286 17.6539 24.4284 17.8535Z" fill="url(#paint16_linear_28_3846)"/>
<path d="M15.9878 8.68847C16.2837 8.98435 16.2224 9.47924 15.9027 9.74918C15.6735 9.94269 15.4609 10.1552 15.2675 10.3843C14.9975 10.704 14.5026 10.7653 14.2068 10.4695V10.4695C14.0066 10.2693 14.0066 9.94542 14.2068 9.74578L15.2641 8.68847C15.4643 8.48829 15.7881 8.48829 15.9878 8.68847V8.68847Z" fill="url(#paint17_linear_28_3846)"/>
<path d="M19.3187 9.49658C16.942 9.49658 15.0156 11.423 15.0156 13.7996C15.0156 16.1763 16.942 18.1027 19.3187 18.1027C21.6953 18.1027 23.6217 16.1763 23.6217 13.7996C23.6217 11.423 21.6953 9.49658 19.3187 9.49658ZM19.3187 17.1273C17.4807 17.1273 15.9916 15.6376 15.9916 13.8002C15.9916 11.9628 17.4813 10.4731 19.3187 10.4731C21.1561 10.4731 22.6458 11.9628 22.6458 13.8002C22.6458 15.6376 21.1561 17.1273 19.3187 17.1273Z" fill="url(#paint18_linear_28_3846)"/>
<path d="M25.286 12.5406H25.2746C24.7993 12.5406 24.3937 12.2055 24.2112 11.7666V11.7666C24.0288 11.3279 24.0837 10.814 24.4197 10.4781L24.4283 10.4694C24.6285 10.2692 24.6285 9.94536 24.4283 9.74572L23.371 8.6884C23.1708 8.48822 22.847 8.48822 22.6473 8.6884L22.6389 8.69679C22.3028 9.03291 21.7887 9.0879 21.3498 8.90555V8.90555C20.9109 8.72325 20.5761 8.31773 20.5761 7.84249V7.83072C20.5761 7.54808 20.3471 7.3186 20.064 7.3186V7.3186C19.6511 7.3186 19.3164 7.6533 19.3164 8.06616V8.89563C19.3164 9.7666 20.0607 10.4406 20.8353 10.8387C21.9092 11.3906 22.6435 12.5095 22.6435 13.7998V13.7998C22.6435 13.9115 22.731 14.0059 22.8428 14.0059H24.8439C25.3703 14.0059 25.797 13.5792 25.797 13.0528V13.0528C25.797 12.7701 25.5676 12.5406 25.2849 12.5406H25.286Z" fill="url(#paint19_linear_28_3846)"/>
<path d="M19.3429 11.8961C19.3261 11.8961 19.3098 11.8961 19.293 11.8961C17.774 11.8923 16.5409 10.6598 16.5371 9.14025C16.5371 9.12343 16.5371 9.10716 16.5371 9.09034C16.5409 7.57136 17.7735 6.33827 19.293 6.33447H19.3429C20.8619 6.33827 22.095 7.57082 22.0988 9.09034V9.14025C22.095 10.6592 20.8624 11.8923 19.3429 11.8961Z" fill="url(#paint20_radial_28_3846)"/>
<path opacity="0.55" d="M19.3429 11.8961C19.3261 11.8961 19.3098 11.8961 19.293 11.8961C17.774 11.8923 16.5409 10.6598 16.5371 9.14025C16.5371 9.12343 16.5371 9.10716 16.5371 9.09034C16.5409 7.57136 17.7735 6.33827 19.293 6.33447H19.3429C20.8619 6.33827 22.095 7.57082 22.0988 9.09034V9.14025C22.095 10.6592 20.8624 11.8923 19.3429 11.8961Z" fill="url(#paint21_linear_28_3846)"/>
<path d="M22.8691 25.9131C22.8691 25.8903 22.8691 25.867 22.8691 25.8442C22.874 23.7366 24.5845 22.0267 26.6921 22.0212H26.761C28.8686 22.0261 30.5791 23.7366 30.5839 25.8442V25.9131C30.5791 28.0207 22.874 28.0207 22.8691 25.9131Z" fill="url(#paint22_radial_28_3846)"/>
<path opacity="0.25" d="M22.8691 25.9131C22.8691 25.8903 22.8691 25.867 22.8691 25.8442C22.874 23.7366 24.5845 22.0267 26.6921 22.0212H26.761C28.8686 22.0261 30.5791 23.7366 30.5839 25.8442V25.9131C30.5791 28.0207 22.874 28.0207 22.8691 25.9131Z" fill="url(#paint23_radial_28_3846)"/>
<path d="M26.7597 22.0208C26.7597 22.0209 26.7595 22.021 26.7594 22.021C26.7367 22.021 26.7135 22.021 26.6908 22.021V22.021C26.0333 22.0225 25.8478 22.7996 26.3127 23.2645L29.042 25.9938C29.5501 26.5019 30.5806 26.631 30.5826 25.9124V25.9124C30.5826 25.8896 30.5826 25.8662 30.5826 25.8435C30.5777 23.736 28.8674 22.0255 26.7599 22.0205C26.7598 22.0205 26.7597 22.0206 26.7597 22.0208V22.0208Z" fill="url(#paint24_linear_28_3846)"/>
<path d="M32.6935 23.2921H32.6821C32.2068 23.2921 31.8012 22.957 31.6187 22.5181V22.5181C31.4363 22.0793 31.4912 21.5655 31.8272 21.2295L31.8358 21.2209C32.036 21.0207 32.036 20.6968 31.8358 20.4972L30.7785 19.4399C30.5783 19.2397 30.2544 19.2397 30.0548 19.4399L30.0464 19.4483C29.7103 19.7844 29.1962 19.8394 28.7573 19.657V19.657C28.3184 19.4747 27.9836 19.0692 27.9836 18.594V18.5822C27.9836 18.2995 27.7546 18.0701 27.4715 18.0701H25.9763C25.6937 18.0701 25.4642 18.299 25.4642 18.5822V18.5935C25.4642 19.0689 25.1291 19.4745 24.6902 19.657V19.657C24.2515 19.8394 23.7376 19.7845 23.4016 19.4485L23.393 19.4399C23.1928 19.2397 22.8689 19.2397 22.6693 19.4399L21.612 20.4972C21.4118 20.6974 21.4118 21.0212 21.612 21.2209L21.6204 21.2293C21.9565 21.5654 22.0115 22.0794 21.8291 22.5184V22.5184C21.6468 22.9573 21.2413 23.2921 20.7661 23.2921H20.7543C20.4717 23.2921 20.2422 23.521 20.2422 23.8042V25.2993C20.2422 25.582 20.4711 25.8114 20.7543 25.8114H20.7657C21.241 25.8114 21.6466 26.1465 21.8291 26.5855V26.5855C22.0115 27.0242 21.9566 27.5381 21.6206 27.874L21.612 27.8827C21.4118 28.0829 21.4118 28.4067 21.612 28.6064L22.6693 29.6637C22.8695 29.8639 23.1934 29.8639 23.393 29.6637L23.4014 29.6553C23.7375 29.3192 24.2516 29.2642 24.6905 29.4465V29.4465C25.1294 29.6288 25.4642 30.0344 25.4642 30.5096V30.5214C25.4642 30.804 25.6932 31.0335 25.9763 31.0335H27.4715C27.7541 31.0335 27.9836 30.8046 27.9836 30.5214V30.51C27.9836 30.0346 28.3187 29.6291 28.7576 29.4466V29.4466C29.1963 29.2642 29.7102 29.3191 30.0461 29.655L30.0548 29.6637C30.255 29.8639 30.5789 29.8639 30.7785 29.6637L31.8358 28.6064C32.036 28.4062 32.036 28.0823 31.8358 27.8827L31.8274 27.8743C31.4913 27.5382 31.4363 27.0241 31.6187 26.5851V26.5851C31.801 26.1463 32.2065 25.8114 32.6817 25.8114H32.6935C32.9761 25.8114 33.2056 25.5825 33.2056 25.2993V23.8042C33.2056 23.5216 32.9767 23.2921 32.6935 23.2921ZM26.7244 28.4664C24.5626 28.4664 22.8093 26.7131 22.8093 24.5512C22.8093 22.3894 24.5626 20.6361 26.7244 20.6361C28.8863 20.6361 30.6396 22.3894 30.6396 24.5512C30.6396 26.7131 28.8863 28.4664 26.7244 28.4664Z" fill="url(#paint25_linear_28_3846)"/>
<path d="M27.9851 18.5822V18.5822C27.9851 18.9999 27.5921 19.306 27.1758 19.271C27.0275 19.2585 26.8775 19.2522 26.7259 19.2522C26.5744 19.2522 26.4243 19.2585 26.2761 19.271C25.8598 19.306 25.4668 18.9999 25.4668 18.5822V18.5822C25.4668 18.2995 25.6957 18.0701 25.9784 18.0701H27.4735C27.7561 18.0701 27.9851 18.2995 27.9851 18.5822Z" fill="url(#paint26_linear_28_3846)"/>
<path d="M27.1759 29.831C27.5922 29.796 27.9852 30.102 27.9852 30.5198V30.5198C27.9852 30.8024 27.7562 31.0319 27.4736 31.0319H25.9785C25.6959 31.0319 25.4669 30.8024 25.4669 30.5198V30.5198C25.4669 30.102 25.8599 29.796 26.2762 29.831C26.4245 29.8434 26.5745 29.8498 26.726 29.8498C26.8776 29.8498 27.0276 29.8434 27.1759 29.831Z" fill="url(#paint27_linear_28_3846)"/>
<path d="M27.1759 29.831C27.5922 29.796 27.9852 30.102 27.9852 30.5198V30.5198C27.9852 30.8024 27.7562 31.0319 27.4736 31.0319H25.9785C25.6959 31.0319 25.4669 30.8024 25.4669 30.5198V30.5198C25.4669 30.102 25.8599 29.796 26.2762 29.831C26.4245 29.8434 26.5745 29.8498 26.726 29.8498C26.8776 29.8498 27.0276 29.8434 27.1759 29.831Z" fill="url(#paint28_linear_28_3846)"/>
<path d="M33.206 23.8038V25.2989C33.206 25.5816 32.9765 25.8105 32.6938 25.8105V25.8105C32.2761 25.8105 31.97 25.4175 32.005 25.0012C32.0175 24.8529 32.0239 24.7029 32.0239 24.5514C32.0239 24.3998 32.0175 24.2498 32.005 24.1015C31.97 23.6852 32.2761 23.2922 32.6938 23.2922V23.2922C32.9765 23.2922 33.206 23.5212 33.206 23.8038Z" fill="url(#paint29_linear_28_3846)"/>
<path d="M33.206 23.8038V25.2989C33.206 25.5816 32.9765 25.8105 32.6938 25.8105V25.8105C32.2761 25.8105 31.97 25.4175 32.005 25.0012C32.0175 24.8529 32.0239 24.7029 32.0239 24.5514C32.0239 24.3998 32.0175 24.2498 32.005 24.1015C31.97 23.6852 32.2761 23.2922 32.6938 23.2922V23.2922C32.9765 23.2922 33.206 23.5212 33.206 23.8038Z" fill="url(#paint30_linear_28_3846)"/>
<path d="M21.4262 24.5514C21.4262 24.7029 21.4326 24.8529 21.4451 25.0012C21.4801 25.4175 21.174 25.8105 20.7563 25.8105V25.8105C20.4736 25.8105 20.2441 25.5816 20.2441 25.2989V23.8038C20.2441 23.5212 20.4736 23.2922 20.7563 23.2922V23.2922C21.174 23.2922 21.4801 23.6852 21.4451 24.1015C21.4326 24.2498 21.4262 24.3998 21.4262 24.5514Z" fill="url(#paint31_linear_28_3846)"/>
<path d="M31.8347 21.2212V21.2212C31.5388 21.5171 31.0439 21.4558 30.774 21.1361C30.5804 20.9069 30.3679 20.6943 30.1388 20.5009C29.8191 20.2309 29.7578 19.736 30.0537 19.4402V19.4402C30.2538 19.24 30.5777 19.24 30.7774 19.4402L31.8347 20.4975C32.0349 20.6977 32.0349 21.0215 31.8347 21.2212Z" fill="url(#paint32_linear_28_3846)"/>
<path d="M23.307 28.6024C23.6266 28.8723 23.6879 29.3672 23.3921 29.663V29.663C23.1919 29.8632 22.868 29.8632 22.6684 29.663L21.6111 28.6057C21.4109 28.4055 21.4109 28.0817 21.6111 27.882V27.882C21.907 27.5861 22.4018 27.6474 22.6718 27.9671C22.8653 28.1963 23.0778 28.4089 23.307 28.6024Z" fill="url(#paint33_linear_28_3846)"/>
<path d="M23.307 28.6024C23.6266 28.8723 23.6879 29.3672 23.3921 29.663V29.663C23.1919 29.8632 22.868 29.8632 22.6684 29.663L21.6111 28.6057C21.4109 28.4055 21.4109 28.0817 21.6111 27.882V27.882C21.907 27.5861 22.4018 27.6474 22.6718 27.9671C22.8653 28.1963 23.0778 28.4089 23.307 28.6024Z" fill="url(#paint34_linear_28_3846)"/>
<path d="M31.8347 28.6057L30.7774 29.663C30.5772 29.8632 30.2533 29.8632 30.0537 29.663V29.663C29.7578 29.3672 29.819 28.8723 30.1388 28.6023C30.368 28.4088 30.5805 28.1963 30.774 27.9672C31.0439 27.6475 31.5388 27.5862 31.8347 27.882V27.882C32.0349 28.0822 32.0349 28.4061 31.8347 28.6057Z" fill="url(#paint35_linear_28_3846)"/>
<path d="M31.8347 28.6057L30.7774 29.663C30.5772 29.8632 30.2533 29.8632 30.0537 29.663V29.663C29.7578 29.3672 29.819 28.8723 30.1388 28.6023C30.368 28.4088 30.5805 28.1963 30.774 27.9672C31.0439 27.6475 31.5388 27.5862 31.8347 27.882V27.882C32.0349 28.0822 32.0349 28.4061 31.8347 28.6057Z" fill="url(#paint36_linear_28_3846)"/>
<path d="M23.3921 19.4397C23.688 19.7356 23.6267 20.2305 23.307 20.5004C23.0778 20.6939 22.8652 20.9064 22.6717 21.1356C22.4018 21.4553 21.9069 21.5166 21.6111 21.2207V21.2207C21.4109 21.0205 21.4109 20.6966 21.6111 20.497L22.6684 19.4397C22.8686 19.2395 23.1924 19.2395 23.3921 19.4397V19.4397Z" fill="url(#paint37_linear_28_3846)"/>
<path d="M26.7249 20.248C24.3483 20.248 22.4219 22.1744 22.4219 24.5511C22.4219 26.9278 24.3483 28.8542 26.7249 28.8542C29.1016 28.8542 31.028 26.9278 31.028 24.5511C31.028 22.1744 29.1016 20.248 26.7249 20.248ZM26.7249 27.8788C24.887 27.8788 23.3978 26.3891 23.3978 24.5516C23.3978 22.7142 24.8875 21.2245 26.7249 21.2245C28.5624 21.2245 30.052 22.7142 30.052 24.5516C30.052 26.3891 28.5624 27.8788 26.7249 27.8788Z" fill="url(#paint38_linear_28_3846)"/>
<path d="M32.6942 23.2921H32.6829C32.2075 23.2921 31.8019 22.957 31.6194 22.5181V22.5181C31.437 22.0793 31.4919 21.5655 31.8279 21.2295L31.8365 21.2209C32.0367 21.0207 32.0367 20.6968 31.8365 20.4972L30.7792 19.4399C30.579 19.2397 30.2552 19.2397 30.0555 19.4399L30.0471 19.4483C29.711 19.7844 29.1969 19.8394 28.758 19.657V19.657C28.3191 19.4747 27.9843 19.0692 27.9843 18.594V18.5822C27.9843 18.2995 27.7553 18.0701 27.4722 18.0701V18.0701C27.0593 18.0701 26.7246 18.4048 26.7246 18.8176V19.6471C26.7246 20.5181 27.4689 21.1921 28.2435 21.5902C29.3174 22.1421 30.0517 23.2609 30.0517 24.5512V24.5512C30.0517 24.663 30.1392 24.7574 30.251 24.7574H32.2521C32.7785 24.7574 33.2052 24.3306 33.2052 23.8042V23.8042C33.2052 23.5216 32.9758 23.2921 32.6931 23.2921H32.6942Z" fill="url(#paint39_linear_28_3846)"/>
<path d="M26.7511 22.6473C26.7343 22.6473 26.718 22.6473 26.7012 22.6473C25.1822 22.6435 23.9491 21.411 23.9453 19.8915C23.9453 19.8747 23.9453 19.8584 23.9453 19.8416C23.9491 18.3226 25.1817 17.0895 26.7012 17.0857H26.7511C28.2701 17.0895 29.5032 18.322 29.507 19.8416V19.8915C29.5032 21.4105 28.2706 22.6435 26.7511 22.6473Z" fill="url(#paint40_radial_28_3846)"/>
<path opacity="0.25" d="M26.7511 22.6473C26.7343 22.6473 26.718 22.6473 26.7012 22.6473C25.1822 22.6435 23.9491 21.411 23.9453 19.8915C23.9453 19.8747 23.9453 19.8584 23.9453 19.8416C23.9491 18.3226 25.1817 17.0895 26.7012 17.0857H26.7511C28.2701 17.0895 29.5032 18.322 29.507 19.8416V19.8915C29.5032 21.4105 28.2706 22.6435 26.7511 22.6473Z" fill="url(#paint41_radial_28_3846)"/>
<path d="M8.05273 25.9131C8.05273 25.8903 8.05273 25.867 8.05273 25.8442C8.05762 23.7366 9.7681 22.0267 11.8757 22.0212H11.9446C14.0522 22.0261 15.7627 23.7366 15.7675 25.8442V25.9131C15.7627 28.0207 8.05762 28.0207 8.05273 25.9131Z" fill="url(#paint42_radial_28_3846)"/>
<path opacity="0.25" d="M8.05273 25.9131C8.05273 25.8903 8.05273 25.867 8.05273 25.8442C8.05762 23.7366 9.7681 22.0267 11.8757 22.0212H11.9446C14.0522 22.0261 15.7627 23.7366 15.7675 25.8442V25.9131C15.7627 28.0207 8.05762 28.0207 8.05273 25.9131Z" fill="url(#paint43_radial_28_3846)"/>
<path d="M11.9452 22.0208C11.9452 22.0209 11.9451 22.021 11.9449 22.021C11.9222 22.021 11.899 22.021 11.8763 22.021V22.021C11.2188 22.0225 11.0333 22.7996 11.4982 23.2645L14.2275 25.9938C14.7357 26.5019 15.7661 26.631 15.7682 25.9124V25.9124C15.7682 25.8896 15.7682 25.8662 15.7682 25.8435C15.7633 23.736 14.0529 22.0255 11.9455 22.0205C11.9453 22.0205 11.9452 22.0206 11.9452 22.0208V22.0208Z" fill="url(#paint44_linear_28_3846)"/>
<path d="M17.878 23.2921H17.8666C17.3912 23.2921 16.9857 22.957 16.8032 22.5181V22.5181C16.6208 22.0793 16.6757 21.5655 17.0116 21.2295L17.0203 21.2209C17.2205 21.0207 17.2205 20.6968 17.0203 20.4972L15.963 19.4399C15.7628 19.2397 15.4389 19.2397 15.2393 19.4399L15.2309 19.4483C14.8948 19.7844 14.3807 19.8394 13.9417 19.657V19.657C13.5028 19.4747 13.168 19.0692 13.168 18.594V18.5822C13.168 18.2995 12.9391 18.0701 12.6559 18.0701H11.1608C10.8782 18.0701 10.6487 18.299 10.6487 18.5822V18.5935C10.6487 19.0689 10.3136 19.4745 9.87464 19.657V19.657C9.43592 19.8394 8.92207 19.7845 8.58611 19.4485L8.57745 19.4399C8.37727 19.2397 8.0534 19.2397 7.85376 19.4399L6.79645 20.4972C6.59627 20.6974 6.59627 21.0212 6.79645 21.2209L6.80484 21.2293C7.14096 21.5654 7.19595 22.0794 7.0136 22.5184V22.5184C6.83129 22.9573 6.42577 23.2921 5.95054 23.2921H5.93985C5.65721 23.2921 5.42773 23.521 5.42773 23.8042V25.2993C5.42773 25.582 5.65667 25.8114 5.93985 25.8114H5.9512C6.42658 25.8114 6.83214 26.1465 7.01463 26.5855V26.5855C7.19703 27.0242 7.14215 27.5381 6.80619 27.874L6.79753 27.8827C6.59735 28.0829 6.59735 28.4067 6.79753 28.6064L7.85485 29.6637C8.05503 29.8639 8.3789 29.8639 8.57854 29.6637L8.58693 29.6553C8.92305 29.3192 9.43711 29.2642 9.87609 29.4465V29.4465C10.315 29.6288 10.6498 30.0344 10.6498 30.5096V30.5214C10.6498 30.804 10.8787 31.0335 11.1619 31.0335H12.657C12.9396 31.0335 13.1691 30.8046 13.1691 30.5214V30.51C13.1691 30.0346 13.5042 29.6291 13.9432 29.4466V29.4466C14.3819 29.2642 14.8957 29.3191 15.2317 29.655L15.2404 29.6637C15.4405 29.8639 15.7644 29.8639 15.964 29.6637L17.0214 28.6064C17.2215 28.4062 17.2215 28.0823 17.0214 27.8827L17.013 27.8743C16.6768 27.5382 16.6219 27.0241 16.8042 26.5851V26.5851C16.9865 26.1463 17.392 25.8114 17.8673 25.8114H17.879C18.1617 25.8114 18.3912 25.5825 18.3912 25.2993V23.8042C18.3912 23.5216 18.1622 23.2921 17.879 23.2921H17.878ZM11.9089 28.4664C9.74707 28.4664 7.99373 26.7131 7.99373 24.5512C7.99373 22.3894 9.74707 20.6361 11.9089 20.6361C14.0707 20.6361 15.8241 22.3894 15.8241 24.5512C15.8241 26.7131 14.0707 28.4664 11.9089 28.4664Z" fill="url(#paint45_linear_28_3846)"/>
<path d="M13.1686 18.5824V18.5824C13.1686 19.0002 12.7757 19.3062 12.3594 19.2712C12.2111 19.2588 12.0611 19.2524 11.9095 19.2524C11.758 19.2524 11.6079 19.2588 11.4597 19.2712C11.0434 19.3062 10.6504 19.0002 10.6504 18.5824V18.5824C10.6504 18.2998 10.8793 18.0703 11.162 18.0703H12.6571C12.9397 18.0703 13.1686 18.2998 13.1686 18.5824Z" fill="url(#paint46_linear_28_3846)"/>
<path d="M12.3595 29.8312C12.7758 29.7962 13.1688 30.1023 13.1688 30.52V30.52C13.1688 30.8027 12.9398 31.0321 12.6572 31.0321H11.1621C10.8794 31.0321 10.6505 30.8027 10.6505 30.52V30.52C10.6505 30.1023 11.0435 29.7962 11.4598 29.8312C11.6081 29.8437 11.7581 29.85 11.9096 29.85C12.0612 29.85 12.2112 29.8437 12.3595 29.8312Z" fill="url(#paint47_linear_28_3846)"/>
<path d="M12.3595 29.8312C12.7758 29.7962 13.1688 30.1023 13.1688 30.52V30.52C13.1688 30.8027 12.9398 31.0321 12.6572 31.0321H11.1621C10.8794 31.0321 10.6505 30.8027 10.6505 30.52V30.52C10.6505 30.1023 11.0435 29.7962 11.4598 29.8312C11.6081 29.8437 11.7581 29.85 11.9096 29.85C12.0612 29.85 12.2112 29.8437 12.3595 29.8312Z" fill="url(#paint48_linear_28_3846)"/>
<path d="M18.3895 23.8038V25.2989C18.3895 25.5816 18.1601 25.8105 17.8774 25.8105V25.8105C17.4597 25.8105 17.1536 25.4175 17.1886 25.0012C17.2011 24.8529 17.2075 24.7029 17.2075 24.5514C17.2075 24.3998 17.2011 24.2498 17.1886 24.1015C17.1536 23.6852 17.4597 23.2922 17.8774 23.2922V23.2922C18.1601 23.2922 18.3895 23.5212 18.3895 23.8038Z" fill="url(#paint49_linear_28_3846)"/>
<path d="M18.3895 23.8038V25.2989C18.3895 25.5816 18.1601 25.8105 17.8774 25.8105V25.8105C17.4597 25.8105 17.1536 25.4175 17.1886 25.0012C17.2011 24.8529 17.2075 24.7029 17.2075 24.5514C17.2075 24.3998 17.2011 24.2498 17.1886 24.1015C17.1536 23.6852 17.4597 23.2922 17.8774 23.2922V23.2922C18.1601 23.2922 18.3895 23.5212 18.3895 23.8038Z" fill="url(#paint50_linear_28_3846)"/>
<path d="M6.6101 24.5514C6.61025 24.5514 6.61037 24.5515 6.61037 24.5516C6.61038 24.74 6.6202 24.9261 6.6394 25.1093C6.67716 25.4699 6.41147 25.8105 6.04898 25.8105H5.93985C5.65721 25.8105 5.42773 25.5816 5.42773 25.2989V23.8038C5.42773 23.5212 5.65721 23.2922 5.93985 23.2922H6.04844C6.41093 23.2922 6.67662 23.6329 6.63885 23.9934C6.61966 24.1766 6.60984 24.3627 6.60983 24.5511C6.60983 24.5512 6.60995 24.5514 6.6101 24.5514V24.5514Z" fill="url(#paint51_linear_28_3846)"/>
<path d="M17.0222 21.2214V21.2214C16.7263 21.5173 16.2314 21.4561 15.9615 21.1363C15.7679 20.9071 15.5554 20.6946 15.3263 20.5011C15.0066 20.2312 14.9453 19.7363 15.2412 19.4404V19.4404C15.4413 19.2402 15.7652 19.2402 15.9649 19.4404L17.0222 20.4977C17.2224 20.6979 17.2224 21.0218 17.0222 21.2214Z" fill="url(#paint52_linear_28_3846)"/>
<path d="M8.49445 28.6026C8.81414 28.8725 8.87544 29.3674 8.57958 29.6633V29.6633C8.3794 29.8635 8.05553 29.8635 7.85589 29.6633L6.79857 28.606C6.59839 28.4058 6.59839 28.0819 6.79857 27.8823V27.8823C7.09446 27.5864 7.58934 27.6476 7.85929 27.9674C8.0528 28.1966 8.26533 28.4091 8.49445 28.6026Z" fill="url(#paint53_linear_28_3846)"/>
<path d="M8.49445 28.6026C8.81414 28.8725 8.87544 29.3674 8.57958 29.6633V29.6633C8.3794 29.8635 8.05553 29.8635 7.85589 29.6633L6.79857 28.606C6.59839 28.4058 6.59839 28.0819 6.79857 27.8823V27.8823C7.09446 27.5864 7.58934 27.6476 7.85929 27.9674C8.0528 28.1966 8.26533 28.4091 8.49445 28.6026Z" fill="url(#paint54_linear_28_3846)"/>
<path d="M17.0222 28.606L15.9649 29.6633C15.7647 29.8635 15.4408 29.8635 15.2412 29.6633V29.6633C14.9453 29.3674 15.0065 28.8725 15.3263 28.6026C15.5555 28.4091 15.768 28.1965 15.9615 27.9674C16.2314 27.6477 16.7263 27.5864 17.0222 27.8823V27.8823C17.2224 28.0825 17.2224 28.4063 17.0222 28.606Z" fill="url(#paint55_linear_28_3846)"/>
<path d="M17.0222 28.606L15.9649 29.6633C15.7647 29.8635 15.4408 29.8635 15.2412 29.6633V29.6633C14.9453 29.3674 15.0065 28.8725 15.3263 28.6026C15.5555 28.4091 15.768 28.1965 15.9615 27.9674C16.2314 27.6477 16.7263 27.5864 17.0222 27.8823V27.8823C17.2224 28.0825 17.2224 28.4063 17.0222 28.606Z" fill="url(#paint56_linear_28_3846)"/>
<path d="M8.57958 19.4399C8.87547 19.7358 8.81421 20.2307 8.49447 20.5006C8.26527 20.6942 8.05271 20.9067 7.85925 21.1358C7.58931 21.4555 7.09444 21.5168 6.79857 21.2209V21.2209C6.59839 21.0208 6.59839 20.6969 6.79857 20.4972L7.85589 19.4399C8.05607 19.2397 8.37994 19.2397 8.57958 19.4399V19.4399Z" fill="url(#paint57_linear_28_3846)"/>
<path d="M11.9105 20.2483C9.53382 20.2483 7.60742 22.1747 7.60742 24.5513C7.60742 26.928 9.53382 28.8544 11.9105 28.8544C14.2871 28.8544 16.2135 26.928 16.2135 24.5513C16.2135 22.1747 14.2871 20.2483 11.9105 20.2483ZM11.9105 27.879C10.0725 27.879 8.58337 26.3893 8.58337 24.5519C8.58337 22.7145 10.0731 21.2248 11.9105 21.2248C13.7479 21.2248 15.2376 22.7145 15.2376 24.5519C15.2376 26.3893 13.7479 27.879 11.9105 27.879Z" fill="url(#paint58_linear_28_3846)"/>
<path d="M17.8798 23.2921H17.8684C17.393 23.2921 16.9875 22.957 16.805 22.5181V22.5181C16.6226 22.0793 16.6774 21.5655 17.0134 21.2295L17.0221 21.2209C17.2223 21.0207 17.2223 20.6968 17.0221 20.4972L15.9648 19.4399C15.7646 19.2397 15.4407 19.2397 15.2411 19.4399L15.2327 19.4483C14.8966 19.7844 14.3825 19.8394 13.9435 19.657V19.657C13.5046 19.4747 13.1698 19.0692 13.1698 18.594V18.5822C13.1698 18.2995 12.9409 18.0701 12.6577 18.0701V18.0701C12.2448 18.0701 11.9102 18.4048 11.9102 18.8176V19.6471C11.9102 20.5181 12.6544 21.1921 13.4291 21.5902C14.5029 22.1421 15.2373 23.2609 15.2373 24.5512V24.5512C15.2373 24.663 15.3248 24.7574 15.4365 24.7574H17.4376C17.964 24.7574 18.3908 24.3306 18.3908 23.8042V23.8042C18.3908 23.5216 18.1613 23.2921 17.8787 23.2921H17.8798Z" fill="url(#paint59_linear_28_3846)"/>
<path d="M11.9347 22.6476C11.9179 22.6476 11.9016 22.6476 11.8848 22.6476C10.3658 22.6438 9.1327 21.4112 9.12891 19.8917C9.12891 19.8749 9.12891 19.8586 9.12891 19.8418C9.1327 18.3228 10.3652 17.0897 11.8848 17.0859H11.9347C13.4537 17.0897 14.6868 18.3223 14.6905 19.8418V19.8917C14.6868 21.4107 13.4542 22.6438 11.9347 22.6476Z" fill="url(#paint60_radial_28_3846)"/>
<path opacity="0.25" d="M11.9347 22.6476C11.9179 22.6476 11.9016 22.6476 11.8848 22.6476C10.3658 22.6438 9.1327 21.4112 9.12891 19.8917C9.12891 19.8749 9.12891 19.8586 9.12891 19.8418C9.1327 18.3228 10.3652 17.0897 11.8848 17.0859H11.9347C13.4537 17.0897 14.6868 18.3223 14.6905 19.8418V19.8917C14.6868 21.4107 13.4542 22.6438 11.9347 22.6476Z" fill="url(#paint61_radial_28_3846)"/>
<g style="mix-blend-mode:color" filter="url(#filter1_i_28_3846)">
<rect width="38" height="38" rx="5" fill="#27D690"/>
<rect x="0.5" y="0.5" width="37" height="37" rx="4.5" stroke="#00FF99" stroke-dasharray="20 20"/>
<rect x="0.5" y="0.5" width="37" height="37" rx="4.5" stroke="url(#paint62_linear_28_3846)" stroke-dasharray="20 20"/>
</g>
</g>
<defs>
<filter id="filter0_i_28_3846" x="0" y="0" width="38" height="38" filterUnits="userSpaceOnUse" color-interpolation-filters="sRGB">
<feFlood flood-opacity="0" result="BackgroundImageFix"/>
<feBlend mode="normal" in="SourceGraphic" in2="BackgroundImageFix" result="shape"/>
<feColorMatrix in="SourceAlpha" type="matrix" values="0 0 0 0 0 0 0 0 0 0 0 0 0 0 0 0 0 0 127 0" result="hardAlpha"/>
<feOffset/>
<feGaussianBlur stdDeviation="3.05"/>
<feComposite in2="hardAlpha" operator="arithmetic" k2="-1" k3="1"/>
<feColorMatrix type="matrix" values="0 0 0 0 0.860323 0 0 0 0 0.7875 0 0 0 0 1 0 0 0 1 0"/>
<feBlend mode="normal" in2="shape" result="effect1_innerShadow_28_3846"/>
</filter>
<filter id="filter1_i_28_3846" x="0" y="0" width="38" height="38" filterUnits="userSpaceOnUse" color-interpolation-filters="sRGB">
<feFlood flood-opacity="0" result="BackgroundImageFix"/>
<feBlend mode="normal" in="SourceGraphic" in2="BackgroundImageFix" result="shape"/>
<feColorMatrix in="SourceAlpha" type="matrix" values="0 0 0 0 0 0 0 0 0 0 0 0 0 0 0 0 0 0 127 0" result="hardAlpha"/>
<feOffset/>
<feGaussianBlur stdDeviation="3.05"/>
<feComposite in2="hardAlpha" operator="arithmetic" k2="-1" k3="1"/>
<feColorMatrix type="matrix" values="0 0 0 0 0.860323 0 0 0 0 0.7875 0 0 0 0 1 0 0 0 1 0"/>
<feBlend mode="normal" in2="shape" result="effect1_innerShadow_28_3846"/>
</filter>
<radialGradient id="paint0_radial_28_3846" cx="0" cy="0" r="1" gradientUnits="userSpaceOnUse" gradientTransform="translate(18.8403) rotate(90) scale(38 13.5108)">
<stop stop-color="#27D690"/>
<stop offset="1" stop-color="#1AB376"/>
</radialGradient>
<linearGradient id="paint1_linear_28_3846" x1="0" y1="19.8261" x2="38" y2="19.8261" gradientUnits="userSpaceOnUse">
<stop stop-color="white" stop-opacity="0"/>
<stop offset="0.515" stop-color="white"/>
<stop offset="1" stop-color="white" stop-opacity="0"/>
</linearGradient>
<radialGradient id="paint2_radial_28_3846" cx="0" cy="0" r="1" gradientUnits="userSpaceOnUse" gradientTransform="translate(18.3836 12.5009) scale(3.89293)">
<stop stop-color="#C9F6B0"/>
<stop offset="1" stop-color="#0AB69F"/>
</radialGradient>
<linearGradient id="paint3_linear_28_3846" x1="15.325" y1="10.5279" x2="21.8696" y2="17.0725" gradientUnits="userSpaceOnUse">
<stop stop-color="#037E73" stop-opacity="0"/>
<stop offset="0.77" stop-color="#037E73"/>
<stop offset="0.81" stop-color="#037E73" stop-opacity="0.97"/>
<stop offset="0.85" stop-color="#037E73" stop-opacity="0.88"/>
<stop offset="0.89" stop-color="#037E73" stop-opacity="0.73"/>
<stop offset="0.93" stop-color="#037E73" stop-opacity="0.51"/>
<stop offset="0.97" stop-color="#037E73" stop-opacity="0.24"/>
<stop offset="1" stop-color="#037E73" stop-opacity="0"/>
</linearGradient>
<linearGradient id="paint4_linear_28_3846" x1="20.551" y1="13.1859" x2="20.2272" y2="11.298" gradientUnits="userSpaceOnUse">
<stop stop-color="#037E73" stop-opacity="0"/>
<stop offset="0.15" stop-color="#037E73" stop-opacity="0.04"/>
<stop offset="0.34" stop-color="#037E73" stop-opacity="0.16"/>
<stop offset="0.55" stop-color="#037E73" stop-opacity="0.36"/>
<stop offset="0.77" stop-color="#037E73" stop-opacity="0.64"/>
<stop offset="1" stop-color="#037E73"/>
</linearGradient>
<linearGradient id="paint5_linear_28_3846" x1="15.2169" y1="9.69852" x2="23.5008" y2="17.9824" gradientUnits="userSpaceOnUse">
<stop stop-color="#94A3AD"/>
<stop offset="1" stop-color="#3E5959"/>
</linearGradient>
<linearGradient id="paint6_linear_28_3846" x1="19.7517" y1="7.98508" x2="20.6973" y2="7.98508" gradientUnits="userSpaceOnUse">
<stop stop-color="#433F43" stop-opacity="0"/>
<stop offset="0.41" stop-color="#373537" stop-opacity="0.27"/>
<stop offset="1" stop-color="#1A1A1A"/>
</linearGradient>
<linearGradient id="paint7_linear_28_3846" x1="19.3199" y1="19.5852" x2="19.3199" y2="20.3452" gradientUnits="userSpaceOnUse">
<stop stop-color="#433F43" stop-opacity="0"/>
<stop offset="0.41" stop-color="#373537" stop-opacity="0.27"/>
<stop offset="1" stop-color="#1A1A1A"/>
</linearGradient>
<linearGradient id="paint8_linear_28_3846" x1="19.7686" y1="19.6139" x2="20.6132" y2="19.6139" gradientUnits="userSpaceOnUse">
<stop stop-color="#433F43" stop-opacity="0"/>
<stop offset="0.41" stop-color="#373537" stop-opacity="0.27"/>
<stop offset="1" stop-color="#1A1A1A"/>
</linearGradient>
<linearGradient id="paint9_linear_28_3846" x1="25.1349" y1="14.3004" x2="25.1349" y2="15.1505" gradientUnits="userSpaceOnUse">
<stop stop-color="#433F43" stop-opacity="0"/>
<stop offset="0.41" stop-color="#373537" stop-opacity="0.27"/>
<stop offset="1" stop-color="#1A1A1A"/>
</linearGradient>
<linearGradient id="paint10_linear_28_3846" x1="25.1897" y1="13.7997" x2="25.8499" y2="13.7997" gradientUnits="userSpaceOnUse">
<stop stop-color="#433F43" stop-opacity="0"/>
<stop offset="0.41" stop-color="#373537" stop-opacity="0.27"/>
<stop offset="1" stop-color="#1A1A1A"/>
</linearGradient>
<linearGradient id="paint11_linear_28_3846" x1="13.5063" y1="14.3676" x2="13.5063" y2="15.1277" gradientUnits="userSpaceOnUse">
<stop stop-color="#433F43" stop-opacity="0"/>
<stop offset="0.41" stop-color="#373537" stop-opacity="0.27"/>
<stop offset="1" stop-color="#1A1A1A"/>
</linearGradient>
<linearGradient id="paint12_linear_28_3846" x1="23.7427" y1="10.0029" x2="24.4203" y2="10.68" gradientUnits="userSpaceOnUse">
<stop stop-color="#433F43" stop-opacity="0"/>
<stop offset="0.41" stop-color="#373537" stop-opacity="0.27"/>
<stop offset="1" stop-color="#1A1A1A"/>
</linearGradient>
<linearGradient id="paint13_linear_28_3846" x1="15.5548" y1="18.2595" x2="16.1325" y2="18.8373" gradientUnits="userSpaceOnUse">
<stop stop-color="#433F43" stop-opacity="0"/>
<stop offset="0.41" stop-color="#373537" stop-opacity="0.27"/>
<stop offset="1" stop-color="#1A1A1A"/>
</linearGradient>
<linearGradient id="paint14_linear_28_3846" x1="15.3074" y1="17.8103" x2="14.6233" y2="18.4944" gradientUnits="userSpaceOnUse">
<stop stop-color="#433F43" stop-opacity="0"/>
<stop offset="0.41" stop-color="#373537" stop-opacity="0.27"/>
<stop offset="1" stop-color="#1A1A1A"/>
</linearGradient>
<linearGradient id="paint15_linear_28_3846" x1="23.2615" y1="17.7445" x2="23.9456" y2="18.428" gradientUnits="userSpaceOnUse">
<stop stop-color="#433F43" stop-opacity="0"/>
<stop offset="0.41" stop-color="#373537" stop-opacity="0.27"/>
<stop offset="1" stop-color="#1A1A1A"/>
</linearGradient>
<linearGradient id="paint16_linear_28_3846" x1="23.2002" y1="18.1394" x2="22.4483" y2="18.8913" gradientUnits="userSpaceOnUse">
<stop stop-color="#433F43" stop-opacity="0"/>
<stop offset="0.41" stop-color="#373537" stop-opacity="0.27"/>
<stop offset="1" stop-color="#1A1A1A"/>
</linearGradient>
<linearGradient id="paint17_linear_28_3846" x1="14.9023" y1="9.99316" x2="14.2236" y2="10.6718" gradientUnits="userSpaceOnUse">
<stop stop-color="#433F43" stop-opacity="0"/>
<stop offset="0.41" stop-color="#373537" stop-opacity="0.27"/>
<stop offset="1" stop-color="#1A1A1A"/>
</linearGradient>
<linearGradient id="paint18_linear_28_3846" x1="22.2232" y1="16.7041" x2="15.9259" y2="10.4069" gradientUnits="userSpaceOnUse">
<stop stop-color="#94A3AD"/>
<stop offset="1" stop-color="#3E5959"/>
</linearGradient>
<linearGradient id="paint19_linear_28_3846" x1="22.4781" y1="11.102" x2="21.2016" y2="10.5546" gradientUnits="userSpaceOnUse">
<stop stop-color="#433F43" stop-opacity="0"/>
<stop offset="0.41" stop-color="#373537" stop-opacity="0.27"/>
<stop offset="1" stop-color="#1A1A1A"/>
</linearGradient>
<radialGradient id="paint20_radial_28_3846" cx="0" cy="0" r="1" gradientUnits="userSpaceOnUse" gradientTransform="translate(18.8639 8.4068) scale(2.96961)">
<stop stop-color="#C9F6B0"/>
<stop offset="1" stop-color="#0AB69F"/>
</radialGradient>
<linearGradient id="paint21_linear_28_3846" x1="16.6662" y1="6.46359" x2="21.0577" y2="10.8551" gradientUnits="userSpaceOnUse">
<stop stop-color="#037E73" stop-opacity="0"/>
<stop offset="0.77" stop-color="#037E73"/>
<stop offset="0.81" stop-color="#037E73" stop-opacity="0.97"/>
<stop offset="0.85" stop-color="#037E73" stop-opacity="0.88"/>
<stop offset="0.89" stop-color="#037E73" stop-opacity="0.73"/>
<stop offset="0.93" stop-color="#037E73" stop-opacity="0.51"/>
<stop offset="0.97" stop-color="#037E73" stop-opacity="0.24"/>
<stop offset="1" stop-color="#037E73" stop-opacity="0"/>
</linearGradient>
<radialGradient id="paint22_radial_28_3846" cx="0" cy="0" r="1" gradientUnits="userSpaceOnUse" gradientTransform="translate(25.8544 23.2986) scale(3.90351)">
<stop stop-color="#FBC9CF"/>
<stop offset="1" stop-color="#F28CC4"/>
</radialGradient>
<radialGradient id="paint23_radial_28_3846" cx="0" cy="0" r="1" gradientUnits="userSpaceOnUse" gradientTransform="translate(24.3044 22.9105) scale(7.49178 7.49178)">
<stop stop-color="#AF66DA" stop-opacity="0"/>
<stop offset="0.77" stop-color="#814AA0"/>
<stop offset="0.81" stop-color="#824AA1" stop-opacity="0.98"/>
<stop offset="0.84" stop-color="#854CA5" stop-opacity="0.9"/>
<stop offset="0.88" stop-color="#8A50AC" stop-opacity="0.79"/>
<stop offset="0.91" stop-color="#9254B6" stop-opacity="0.62"/>
<stop offset="0.95" stop-color="#9C5AC2" stop-opacity="0.4"/>
<stop offset="0.98" stop-color="#A862D1" stop-opacity="0.14"/>
<stop offset="1" stop-color="#AF66DA" stop-opacity="0"/>
</radialGradient>
<linearGradient id="paint24_linear_28_3846" x1="27.9819" y1="24.2312" x2="27.734" y2="21.9234" gradientUnits="userSpaceOnUse">
<stop stop-color="#AF66DA" stop-opacity="0"/>
<stop offset="0.12" stop-color="#AD64D7" stop-opacity="0.04"/>
<stop offset="0.29" stop-color="#A761D0" stop-opacity="0.16"/>
<stop offset="0.5" stop-color="#9E5CC5" stop-opacity="0.35"/>
<stop offset="0.72" stop-color="#9254B6" stop-opacity="0.61"/>
<stop offset="0.97" stop-color="#834BA2" stop-opacity="0.95"/>
<stop offset="1" stop-color="#814AA0"/>
</linearGradient>
<linearGradient id="paint25_linear_28_3846" x1="22.6232" y1="20.4505" x2="30.9071" y2="28.7339" gradientUnits="userSpaceOnUse">
<stop stop-color="#94A3AD"/>
<stop offset="1" stop-color="#3E5959"/>
</linearGradient>
<linearGradient id="paint26_linear_28_3846" x1="27.1577" y1="18.7363" x2="28.1033" y2="18.7363" gradientUnits="userSpaceOnUse">
<stop stop-color="#433F43" stop-opacity="0"/>
<stop offset="0.41" stop-color="#373537" stop-opacity="0.27"/>
<stop offset="1" stop-color="#1A1A1A"/>
</linearGradient>
<linearGradient id="paint27_linear_28_3846" x1="26.726" y1="30.3364" x2="26.726" y2="31.0964" gradientUnits="userSpaceOnUse">
<stop stop-color="#433F43" stop-opacity="0"/>
<stop offset="0.41" stop-color="#373537" stop-opacity="0.27"/>
<stop offset="1" stop-color="#1A1A1A"/>
</linearGradient>
<linearGradient id="paint28_linear_28_3846" x1="27.1752" y1="30.3657" x2="28.0193" y2="30.3657" gradientUnits="userSpaceOnUse">
<stop stop-color="#433F43" stop-opacity="0"/>
<stop offset="0.41" stop-color="#373537" stop-opacity="0.27"/>
<stop offset="1" stop-color="#1A1A1A"/>
</linearGradient>
<linearGradient id="paint29_linear_28_3846" x1="32.5392" y1="25.0515" x2="32.5392" y2="25.9016" gradientUnits="userSpaceOnUse">
<stop stop-color="#433F43" stop-opacity="0"/>
<stop offset="0.41" stop-color="#373537" stop-opacity="0.27"/>
<stop offset="1" stop-color="#1A1A1A"/>
</linearGradient>
<linearGradient id="paint30_linear_28_3846" x1="32.594" y1="24.5514" x2="33.2542" y2="24.5514" gradientUnits="userSpaceOnUse">
<stop stop-color="#433F43" stop-opacity="0"/>
<stop offset="0.41" stop-color="#373537" stop-opacity="0.27"/>
<stop offset="1" stop-color="#1A1A1A"/>
</linearGradient>
<linearGradient id="paint31_linear_28_3846" x1="20.9103" y1="25.1194" x2="20.9103" y2="25.8788" gradientUnits="userSpaceOnUse">
<stop stop-color="#433F43" stop-opacity="0"/>
<stop offset="0.41" stop-color="#373537" stop-opacity="0.27"/>
<stop offset="1" stop-color="#1A1A1A"/>
</linearGradient>
<linearGradient id="paint32_linear_28_3846" x1="31.149" y1="20.7541" x2="31.8265" y2="21.4311" gradientUnits="userSpaceOnUse">
<stop stop-color="#433F43" stop-opacity="0"/>
<stop offset="0.41" stop-color="#373537" stop-opacity="0.27"/>
<stop offset="1" stop-color="#1A1A1A"/>
</linearGradient>
<linearGradient id="paint33_linear_28_3846" x1="22.9592" y1="29.011" x2="23.5369" y2="29.5887" gradientUnits="userSpaceOnUse">
<stop stop-color="#433F43" stop-opacity="0"/>
<stop offset="0.41" stop-color="#373537" stop-opacity="0.27"/>
<stop offset="1" stop-color="#1A1A1A"/>
</linearGradient>
<linearGradient id="paint34_linear_28_3846" x1="22.7118" y1="28.5623" x2="22.0277" y2="29.2459" gradientUnits="userSpaceOnUse">
<stop stop-color="#433F43" stop-opacity="0"/>
<stop offset="0.41" stop-color="#373537" stop-opacity="0.27"/>
<stop offset="1" stop-color="#1A1A1A"/>
</linearGradient>
<linearGradient id="paint35_linear_28_3846" x1="30.6678" y1="28.4961" x2="31.3519" y2="29.1797" gradientUnits="userSpaceOnUse">
<stop stop-color="#433F43" stop-opacity="0"/>
<stop offset="0.41" stop-color="#373537" stop-opacity="0.27"/>
<stop offset="1" stop-color="#1A1A1A"/>
</linearGradient>
<linearGradient id="paint36_linear_28_3846" x1="30.6065" y1="28.8911" x2="29.8546" y2="29.643" gradientUnits="userSpaceOnUse">
<stop stop-color="#433F43" stop-opacity="0"/>
<stop offset="0.41" stop-color="#373537" stop-opacity="0.27"/>
<stop offset="1" stop-color="#1A1A1A"/>
</linearGradient>
<linearGradient id="paint37_linear_28_3846" x1="22.3065" y1="20.7444" x2="21.6279" y2="21.423" gradientUnits="userSpaceOnUse">
<stop stop-color="#433F43" stop-opacity="0"/>
<stop offset="0.41" stop-color="#373537" stop-opacity="0.27"/>
<stop offset="1" stop-color="#1A1A1A"/>
</linearGradient>
<linearGradient id="paint38_linear_28_3846" x1="29.6294" y1="27.4556" x2="23.3322" y2="21.1589" gradientUnits="userSpaceOnUse">
<stop stop-color="#94A3AD"/>
<stop offset="1" stop-color="#3E5959"/>
</linearGradient>
<linearGradient id="paint39_linear_28_3846" x1="29.8868" y1="21.8534" x2="28.6098" y2="21.306" gradientUnits="userSpaceOnUse">
<stop stop-color="#433F43" stop-opacity="0"/>
<stop offset="0.41" stop-color="#373537" stop-opacity="0.27"/>
<stop offset="1" stop-color="#1A1A1A"/>
</linearGradient>
<radialGradient id="paint40_radial_28_3846" cx="0" cy="0" r="1" gradientUnits="userSpaceOnUse" gradientTransform="translate(26.3341 19.1931) scale(2.97767)">
<stop stop-color="#FBC9CF"/>
<stop offset="1" stop-color="#F28CC4"/>
</radialGradient>
<radialGradient id="paint41_radial_28_3846" cx="0" cy="0" r="1" gradientUnits="userSpaceOnUse" gradientTransform="translate(25.8259 19.2041) scale(4.03511)">
<stop stop-color="#AF66DA" stop-opacity="0"/>
<stop offset="0.77" stop-color="#814AA0"/>
<stop offset="0.81" stop-color="#824AA1" stop-opacity="0.98"/>
<stop offset="0.84" stop-color="#854CA5" stop-opacity="0.9"/>
<stop offset="0.88" stop-color="#8A50AC" stop-opacity="0.79"/>
<stop offset="0.91" stop-color="#9254B6" stop-opacity="0.62"/>
<stop offset="0.95" stop-color="#9C5AC2" stop-opacity="0.4"/>
<stop offset="0.98" stop-color="#A862D1" stop-opacity="0.14"/>
<stop offset="1" stop-color="#AF66DA" stop-opacity="0"/>
</radialGradient>
<radialGradient id="paint42_radial_28_3846" cx="0" cy="0" r="1" gradientUnits="userSpaceOnUse" gradientTransform="translate(10.9482 23.1845) scale(3.87991)">
<stop stop-color="#B3DAFE"/>
<stop offset="1" stop-color="#0182FC"/>
</radialGradient>
<radialGradient id="paint43_radial_28_3846" cx="0" cy="0" r="1" gradientUnits="userSpaceOnUse" gradientTransform="translate(9.40769 22.7986) scale(7.44683 7.44683)">
<stop stop-color="#0182FC" stop-opacity="0"/>
<stop offset="0.77" stop-color="#024C67"/>
<stop offset="0.81" stop-color="#014D6C" stop-opacity="0.96"/>
<stop offset="0.86" stop-color="#01537C" stop-opacity="0.85"/>
<stop offset="0.9" stop-color="#015E98" stop-opacity="0.67"/>
<stop offset="0.95" stop-color="#016CBF" stop-opacity="0.41"/>
<stop offset="0.99" stop-color="#017EF1" stop-opacity="0.07"/>
<stop offset="1" stop-color="#0182FC" stop-opacity="0"/>
</radialGradient>
<linearGradient id="paint44_linear_28_3846" x1="13.1452" y1="23.9078" x2="12.7448" y2="21.8865" gradientUnits="userSpaceOnUse">
<stop stop-color="#0182FC" stop-opacity="0"/>
<stop offset="0.16" stop-color="#017EF2" stop-opacity="0.07"/>
<stop offset="0.4" stop-color="#0174D6" stop-opacity="0.25"/>
<stop offset="0.68" stop-color="#0163A8" stop-opacity="0.56"/>
<stop offset="0.99" stop-color="#014D69" stop-opacity="0.98"/>
<stop offset="1" stop-color="#024C67"/>
</linearGradient>
<linearGradient id="paint45_linear_28_3846" x1="7.80765" y1="20.4505" x2="16.0915" y2="28.7339" gradientUnits="userSpaceOnUse">
<stop stop-color="#94A3AD"/>
<stop offset="1" stop-color="#3E5959"/>
</linearGradient>
<linearGradient id="paint46_linear_28_3846" x1="12.3413" y1="18.7365" x2="13.2869" y2="18.7365" gradientUnits="userSpaceOnUse">
<stop stop-color="#433F43" stop-opacity="0"/>
<stop offset="0.41" stop-color="#373537" stop-opacity="0.27"/>
<stop offset="1" stop-color="#1A1A1A"/>
</linearGradient>
<linearGradient id="paint47_linear_28_3846" x1="11.9096" y1="30.3366" x2="11.9096" y2="31.0967" gradientUnits="userSpaceOnUse">
<stop stop-color="#433F43" stop-opacity="0"/>
<stop offset="0.41" stop-color="#373537" stop-opacity="0.27"/>
<stop offset="1" stop-color="#1A1A1A"/>
</linearGradient>
<linearGradient id="paint48_linear_28_3846" x1="12.3583" y1="30.3659" x2="13.2029" y2="30.3659" gradientUnits="userSpaceOnUse">
<stop stop-color="#433F43" stop-opacity="0"/>
<stop offset="0.41" stop-color="#373537" stop-opacity="0.27"/>
<stop offset="1" stop-color="#1A1A1A"/>
</linearGradient>
<linearGradient id="paint49_linear_28_3846" x1="17.7228" y1="25.0515" x2="17.7228" y2="25.9016" gradientUnits="userSpaceOnUse">
<stop stop-color="#433F43" stop-opacity="0"/>
<stop offset="0.41" stop-color="#373537" stop-opacity="0.27"/>
<stop offset="1" stop-color="#1A1A1A"/>
</linearGradient>
<linearGradient id="paint50_linear_28_3846" x1="17.7771" y1="24.5514" x2="18.4378" y2="24.5514" gradientUnits="userSpaceOnUse">
<stop stop-color="#433F43" stop-opacity="0"/>
<stop offset="0.41" stop-color="#373537" stop-opacity="0.27"/>
<stop offset="1" stop-color="#1A1A1A"/>
</linearGradient>
<linearGradient id="paint51_linear_28_3846" x1="6.09446" y1="25.1194" x2="6.09446" y2="25.8788" gradientUnits="userSpaceOnUse">
<stop stop-color="#433F43" stop-opacity="0"/>
<stop offset="0.41" stop-color="#373537" stop-opacity="0.27"/>
<stop offset="1" stop-color="#1A1A1A"/>
</linearGradient>
<linearGradient id="paint52_linear_28_3846" x1="16.3365" y1="20.7543" x2="17.0135" y2="21.4314" gradientUnits="userSpaceOnUse">
<stop stop-color="#433F43" stop-opacity="0"/>
<stop offset="0.41" stop-color="#373537" stop-opacity="0.27"/>
<stop offset="1" stop-color="#1A1A1A"/>
</linearGradient>
<linearGradient id="paint53_linear_28_3846" x1="8.14613" y1="29.0112" x2="8.72442" y2="29.589" gradientUnits="userSpaceOnUse">
<stop stop-color="#433F43" stop-opacity="0"/>
<stop offset="0.41" stop-color="#373537" stop-opacity="0.27"/>
<stop offset="1" stop-color="#1A1A1A"/>
</linearGradient>
<linearGradient id="paint54_linear_28_3846" x1="7.89929" y1="28.5626" x2="7.21521" y2="29.2461" gradientUnits="userSpaceOnUse">
<stop stop-color="#433F43" stop-opacity="0"/>
<stop offset="0.41" stop-color="#373537" stop-opacity="0.27"/>
<stop offset="1" stop-color="#1A1A1A"/>
</linearGradient>
<linearGradient id="paint55_linear_28_3846" x1="15.8553" y1="28.4964" x2="16.5394" y2="29.1799" gradientUnits="userSpaceOnUse">
<stop stop-color="#433F43" stop-opacity="0"/>
<stop offset="0.41" stop-color="#373537" stop-opacity="0.27"/>
<stop offset="1" stop-color="#1A1A1A"/>
</linearGradient>
<linearGradient id="paint56_linear_28_3846" x1="15.794" y1="28.8913" x2="15.0421" y2="29.6432" gradientUnits="userSpaceOnUse">
<stop stop-color="#433F43" stop-opacity="0"/>
<stop offset="0.41" stop-color="#373537" stop-opacity="0.27"/>
<stop offset="1" stop-color="#1A1A1A"/>
</linearGradient>
<linearGradient id="paint57_linear_28_3846" x1="7.49405" y1="20.7446" x2="6.81485" y2="21.4233" gradientUnits="userSpaceOnUse">
<stop stop-color="#433F43" stop-opacity="0"/>
<stop offset="0.41" stop-color="#373537" stop-opacity="0.27"/>
<stop offset="1" stop-color="#1A1A1A"/>
</linearGradient>
<linearGradient id="paint58_linear_28_3846" x1="14.815" y1="27.4559" x2="8.51772" y2="21.1591" gradientUnits="userSpaceOnUse">
<stop stop-color="#94A3AD"/>
<stop offset="1" stop-color="#3E5959"/>
</linearGradient>
<linearGradient id="paint59_linear_28_3846" x1="15.0718" y1="21.8534" x2="13.7948" y2="21.306" gradientUnits="userSpaceOnUse">
<stop stop-color="#433F43" stop-opacity="0"/>
<stop offset="0.41" stop-color="#373537" stop-opacity="0.27"/>
<stop offset="1" stop-color="#1A1A1A"/>
</linearGradient>
<radialGradient id="paint60_radial_28_3846" cx="0" cy="0" r="1" gradientUnits="userSpaceOnUse" gradientTransform="translate(11.4246 19.1038) scale(2.95967)">
<stop stop-color="#B3DAFE"/>
<stop offset="1" stop-color="#0182FC"/>
</radialGradient>
<radialGradient id="paint61_radial_28_3846" cx="0" cy="0" r="1" gradientUnits="userSpaceOnUse" gradientTransform="translate(10.9199 19.1148) scale(4.01063)">
<stop stop-color="#0182FC" stop-opacity="0"/>
<stop offset="0.77" stop-color="#024C67"/>
<stop offset="0.81" stop-color="#014D6C" stop-opacity="0.96"/>
<stop offset="0.86" stop-color="#01537C" stop-opacity="0.85"/>
<stop offset="0.9" stop-color="#015E98" stop-opacity="0.67"/>
<stop offset="0.95" stop-color="#016CBF" stop-opacity="0.41"/>
<stop offset="0.99" stop-color="#017EF1" stop-opacity="0.07"/>
<stop offset="1" stop-color="#0182FC" stop-opacity="0"/>
</radialGradient>
<linearGradient id="paint62_linear_28_3846" x1="0" y1="19.8261" x2="38" y2="19.8261" gradientUnits="userSpaceOnUse">
<stop stop-color="white" stop-opacity="0"/>
<stop offset="0.515" stop-color="white"/>
<stop offset="1" stop-color="white" stop-opacity="0"/>
</linearGradient>
<clipPath id="clip0_28_3846">
<rect width="38" height="38" fill="white"/>
</clipPath>
</defs>
</svg>
