<svg width="38" height="38" viewBox="0 0 38 38" fill="none" xmlns="http://www.w3.org/2000/svg">
<g clip-path="url(#clip0_28_3845)">
<g filter="url(#filter0_i_28_3845)">
<rect width="38" height="38" rx="5" fill="url(#paint0_radial_28_3845)"/>
<rect x="0.5" y="0.5" width="37" height="37" rx="4.5" stroke="#00FF99" stroke-dasharray="20 20"/>
<rect x="0.5" y="0.5" width="37" height="37" rx="4.5" stroke="url(#paint1_linear_28_3845)" stroke-dasharray="20 20"/>
</g>
<path d="M25.1425 15.1776C24.3521 13.6212 23.0472 12.3702 21.451 11.6497C21.2741 11.5698 21.2741 11.3168 21.451 11.237C23.0472 10.5164 24.3521 9.26542 25.1425 7.70899C25.2266 7.54329 25.4627 7.54329 25.5468 7.70899C26.3372 9.26542 27.6421 10.5164 29.2383 11.237C29.4152 11.3168 29.4152 11.5699 29.2383 11.6497C27.6421 12.3702 26.3372 13.6212 25.5468 15.1776C25.4627 15.3433 25.2266 15.3433 25.1425 15.1776Z" fill="url(#paint2_linear_28_3845)"/>
<path d="M25.1757 11.6602L24.9622 11.0953C24.7008 10.4031 23.7217 10.4031 23.4602 11.0953L23.2711 11.5958C22.8019 12.8378 22.0794 13.974 21.1235 14.8954C20.2755 15.7128 19.7512 16.8637 19.7619 18.1371C19.7827 20.6139 21.7961 22.5815 24.2728 22.548C26.7018 22.5152 28.6608 20.5358 28.6608 18.0989C28.6608 16.8325 28.1317 15.6899 27.2826 14.8797C26.3435 13.9837 25.6344 12.8744 25.1757 11.6602Z" fill="url(#paint3_linear_28_3845)"/>
<path d="M25.1757 11.6602L24.9622 11.0953C24.7008 10.4031 23.7217 10.4031 23.4602 11.0953L23.2711 11.5958C22.8019 12.8378 22.0794 13.974 21.1235 14.8954C20.2755 15.7128 19.7512 16.8637 19.7619 18.1371C19.7827 20.6139 21.7961 22.5815 24.2728 22.548C26.7018 22.5152 28.6608 20.5358 28.6608 18.0989C28.6608 16.8325 28.1317 15.6899 27.2826 14.8797C26.3435 13.9837 25.6344 12.8744 25.1757 11.6602Z" fill="url(#paint4_linear_28_3845)"/>
<path d="M25.1757 11.6602L24.9622 11.0953C24.7008 10.4031 23.7217 10.4031 23.4602 11.0953L23.2711 11.5958C22.8019 12.8378 22.0794 13.974 21.1235 14.8954C20.2755 15.7128 19.7512 16.8637 19.7619 18.1371C19.7827 20.6139 21.7961 22.5815 24.2728 22.548C26.7018 22.5152 28.6608 20.5358 28.6608 18.0989C28.6608 16.8325 28.1317 15.6899 27.2826 14.8797C26.3435 13.9837 25.6344 12.8744 25.1757 11.6602Z" fill="url(#paint5_linear_28_3845)"/>
<path d="M19.7616 18.1373C19.7824 20.614 21.7959 22.5817 24.2725 22.5482C26.7016 22.5153 28.6606 20.536 28.6606 18.0991V18.0991C28.6606 17.1565 27.7615 16.5625 26.819 16.5625H21.641C20.6756 16.5625 19.7535 17.1719 19.7616 18.1373V18.1373Z" fill="url(#paint6_linear_28_3845)"/>
<path d="M14.9625 8.66874L14.7491 8.1038C14.4876 7.41169 13.5085 7.41169 13.2471 8.1038L13.058 8.60433C12.5888 9.84639 11.8663 10.9825 10.9104 11.904C10.0624 12.7214 9.53802 13.8723 9.54875 15.1456C9.56954 17.6224 11.583 19.5901 14.0596 19.5566C16.4887 19.5237 18.4477 17.5443 18.4477 15.1074C18.4477 13.8411 17.9186 12.6985 17.0695 11.8882C16.1304 10.9922 15.4212 9.88289 14.9625 8.66874Z" fill="url(#paint7_linear_28_3845)"/>
<path d="M14.9625 8.66874L14.7491 8.1038C14.4876 7.41169 13.5085 7.41169 13.2471 8.1038L13.058 8.60433C12.5888 9.84639 11.8663 10.9825 10.9104 11.904C10.0624 12.7214 9.53802 13.8723 9.54875 15.1456C9.56954 17.6224 11.583 19.5901 14.0596 19.5566C16.4887 19.5237 18.4477 17.5443 18.4477 15.1074C18.4477 13.8411 17.9186 12.6985 17.0695 11.8882C16.1304 10.9922 15.4212 9.88289 14.9625 8.66874Z" fill="url(#paint8_linear_28_3845)"/>
<path d="M9.5485 15.1458C9.56929 17.6226 11.5828 19.5902 14.0594 19.5568C16.4884 19.5239 18.4475 17.5445 18.4475 15.1076V15.1076C18.4475 14.1651 17.5484 13.571 16.6059 13.571H11.4278C10.4624 13.571 9.54039 14.1804 9.5485 15.1458V15.1458Z" fill="url(#paint9_linear_28_3845)"/>
<path d="M20.1421 13.7634L19.8036 12.8673C19.3889 11.7695 17.8359 11.7695 17.4211 12.8673L17.1212 13.6612C16.377 15.6313 15.2309 17.4333 13.7147 18.8949C12.3696 20.1914 11.538 22.0169 11.5549 24.0367C11.5879 27.9652 14.7816 31.0863 18.7099 31.0331C22.5628 30.981 25.6701 27.8414 25.6701 23.9761C25.6701 21.9674 24.8309 20.155 23.484 18.8699C21.9945 17.4487 20.8697 15.6892 20.1421 13.7634Z" fill="url(#paint10_linear_28_3845)"/>
<path d="M20.1421 13.7634L19.8036 12.8673C19.3889 11.7695 17.8359 11.7695 17.4211 12.8673L17.1212 13.6612C16.377 15.6313 15.2309 17.4333 13.7147 18.8949C12.3696 20.1914 11.538 22.0169 11.5549 24.0367C11.5879 27.9652 14.7816 31.0863 18.7099 31.0331C22.5628 30.981 25.6701 27.8414 25.6701 23.9761C25.6701 21.9674 24.8309 20.155 23.484 18.8699C21.9945 17.4487 20.8697 15.6892 20.1421 13.7634Z" fill="url(#paint11_linear_28_3845)"/>
<path d="M11.5549 24.0367C11.5879 27.9652 14.7816 31.0863 18.7099 31.0331C22.5628 30.9809 25.6701 27.8414 25.6701 23.976V23.976C25.6701 22.4811 24.244 21.5388 22.749 21.5388H14.5359C13.0045 21.5388 11.5421 22.5054 11.5549 24.0367V24.0367Z" fill="url(#paint12_linear_28_3845)"/>
<path d="M8.3404 23.1808C7.79981 22.1161 6.9072 21.2605 5.81535 20.7676C5.69436 20.7129 5.69436 20.5399 5.81535 20.4853C6.90714 19.9924 7.79975 19.1367 8.3404 18.0721C8.39796 17.9587 8.55939 17.9587 8.61696 18.0721C9.15755 19.1367 10.0502 19.9923 11.142 20.4853C11.263 20.5399 11.263 20.7129 11.142 20.7676C10.0502 21.2604 9.1576 22.1161 8.61696 23.1808C8.55939 23.2941 8.39791 23.2941 8.3404 23.1808Z" fill="url(#paint13_linear_28_3845)"/>
<path d="M29.7857 21.8658C29.2451 20.8012 28.3525 19.9455 27.2607 19.4526C27.1397 19.398 27.1397 19.2249 27.2607 19.1703C28.3525 18.6774 29.2451 17.8218 29.7857 16.7571C29.8433 16.6438 30.0047 16.6438 30.0623 16.7571C30.6029 17.8218 31.4955 18.6774 32.5873 19.1703C32.7083 19.2249 32.7083 19.398 32.5873 19.4526C31.4955 19.9455 30.6029 20.8012 30.0623 21.8658C30.0048 21.9791 29.8433 21.9791 29.7857 21.8658Z" fill="url(#paint14_linear_28_3845)"/>
<g style="mix-blend-mode:color" filter="url(#filter1_i_28_3845)">
<rect width="38" height="38" rx="5" fill="#27D690"/>
<rect x="0.5" y="0.5" width="37" height="37" rx="4.5" stroke="#00FF99" stroke-dasharray="20 20"/>
<rect x="0.5" y="0.5" width="37" height="37" rx="4.5" stroke="url(#paint15_linear_28_3845)" stroke-dasharray="20 20"/>
</g>
</g>
<defs>
<filter id="filter0_i_28_3845" x="0" y="0" width="38" height="38" filterUnits="userSpaceOnUse" color-interpolation-filters="sRGB">
<feFlood flood-opacity="0" result="BackgroundImageFix"/>
<feBlend mode="normal" in="SourceGraphic" in2="BackgroundImageFix" result="shape"/>
<feColorMatrix in="SourceAlpha" type="matrix" values="0 0 0 0 0 0 0 0 0 0 0 0 0 0 0 0 0 0 127 0" result="hardAlpha"/>
<feOffset/>
<feGaussianBlur stdDeviation="3.05"/>
<feComposite in2="hardAlpha" operator="arithmetic" k2="-1" k3="1"/>
<feColorMatrix type="matrix" values="0 0 0 0 0.860323 0 0 0 0 0.7875 0 0 0 0 1 0 0 0 1 0"/>
<feBlend mode="normal" in2="shape" result="effect1_innerShadow_28_3845"/>
</filter>
<filter id="filter1_i_28_3845" x="0" y="0" width="38" height="38" filterUnits="userSpaceOnUse" color-interpolation-filters="sRGB">
<feFlood flood-opacity="0" result="BackgroundImageFix"/>
<feBlend mode="normal" in="SourceGraphic" in2="BackgroundImageFix" result="shape"/>
<feColorMatrix in="SourceAlpha" type="matrix" values="0 0 0 0 0 0 0 0 0 0 0 0 0 0 0 0 0 0 127 0" result="hardAlpha"/>
<feOffset/>
<feGaussianBlur stdDeviation="3.05"/>
<feComposite in2="hardAlpha" operator="arithmetic" k2="-1" k3="1"/>
<feColorMatrix type="matrix" values="0 0 0 0 0.860323 0 0 0 0 0.7875 0 0 0 0 1 0 0 0 1 0"/>
<feBlend mode="normal" in2="shape" result="effect1_innerShadow_28_3845"/>
</filter>
<radialGradient id="paint0_radial_28_3845" cx="0" cy="0" r="1" gradientUnits="userSpaceOnUse" gradientTransform="translate(18.8403) rotate(90) scale(38 13.5108)">
<stop stop-color="#27D690"/>
<stop offset="1" stop-color="#1AB376"/>
</radialGradient>
<linearGradient id="paint1_linear_28_3845" x1="0" y1="19.8261" x2="38" y2="19.8261" gradientUnits="userSpaceOnUse">
<stop stop-color="white" stop-opacity="0"/>
<stop offset="0.515" stop-color="white"/>
<stop offset="1" stop-color="white" stop-opacity="0"/>
</linearGradient>
<linearGradient id="paint2_linear_28_3845" x1="25.3446" y1="8.80494" x2="25.3446" y2="17.2536" gradientUnits="userSpaceOnUse">
<stop stop-color="#FEF48B"/>
<stop offset="0.1462" stop-color="#FDF07E"/>
<stop offset="0.4164" stop-color="#FCE55C"/>
<stop offset="0.778" stop-color="#FBD325"/>
<stop offset="1" stop-color="#FAC600"/>
</linearGradient>
<linearGradient id="paint3_linear_28_3845" x1="22.4657" y1="15.574" x2="27.1059" y2="20.2141" gradientUnits="userSpaceOnUse">
<stop stop-color="#B3DAFE"/>
<stop offset="1" stop-color="#60B7FF"/>
</linearGradient>
<linearGradient id="paint4_linear_28_3845" x1="24.0042" y1="16.5623" x2="28.6832" y2="16.5623" gradientUnits="userSpaceOnUse">
<stop stop-color="#017BAE" stop-opacity="0"/>
<stop offset="1" stop-color="#017BAE"/>
</linearGradient>
<linearGradient id="paint5_linear_28_3845" x1="25.8412" y1="15.6644" x2="22.558" y2="19.1666" gradientUnits="userSpaceOnUse">
<stop stop-color="#017BAE" stop-opacity="0"/>
<stop offset="1" stop-color="#017BAE"/>
</linearGradient>
<linearGradient id="paint6_linear_28_3845" x1="24.2111" y1="18.831" x2="24.2111" y2="22.5403" gradientUnits="userSpaceOnUse">
<stop stop-color="#017BAE" stop-opacity="0"/>
<stop offset="1" stop-color="#017BAE"/>
</linearGradient>
<linearGradient id="paint7_linear_28_3845" x1="12.2526" y1="12.5825" x2="16.8927" y2="17.2227" gradientUnits="userSpaceOnUse">
<stop stop-color="#B3DAFE"/>
<stop offset="1" stop-color="#60B7FF"/>
</linearGradient>
<linearGradient id="paint8_linear_28_3845" x1="13.7911" y1="13.5709" x2="18.47" y2="13.5709" gradientUnits="userSpaceOnUse">
<stop stop-color="#017BAE" stop-opacity="0"/>
<stop offset="1" stop-color="#017BAE"/>
</linearGradient>
<linearGradient id="paint9_linear_28_3845" x1="14.1703" y1="16.0586" x2="14.8269" y2="19.6701" gradientUnits="userSpaceOnUse">
<stop stop-color="#017BAE" stop-opacity="0"/>
<stop offset="1" stop-color="#017BAE"/>
</linearGradient>
<linearGradient id="paint10_linear_28_3845" x1="15.8437" y1="19.9712" x2="23.2037" y2="27.3312" gradientUnits="userSpaceOnUse">
<stop stop-color="#B3DAFE"/>
<stop offset="1" stop-color="#60B7FF"/>
</linearGradient>
<linearGradient id="paint11_linear_28_3845" x1="18.284" y1="21.5388" x2="25.7055" y2="21.5388" gradientUnits="userSpaceOnUse">
<stop stop-color="#017BAE" stop-opacity="0"/>
<stop offset="1" stop-color="#017BAE"/>
</linearGradient>
<linearGradient id="paint12_linear_28_3845" x1="18.6124" y1="25.1371" x2="18.6124" y2="31.0205" gradientUnits="userSpaceOnUse">
<stop stop-color="#017BAE" stop-opacity="0"/>
<stop offset="1" stop-color="#017BAE"/>
</linearGradient>
<linearGradient id="paint13_linear_28_3845" x1="8.47868" y1="18.8217" x2="8.47868" y2="24.6008" gradientUnits="userSpaceOnUse">
<stop stop-color="#FEF48B"/>
<stop offset="0.1462" stop-color="#FDF07E"/>
<stop offset="0.4164" stop-color="#FCE55C"/>
<stop offset="0.778" stop-color="#FBD325"/>
<stop offset="1" stop-color="#FAC600"/>
</linearGradient>
<linearGradient id="paint14_linear_28_3845" x1="29.924" y1="17.5068" x2="29.924" y2="23.2858" gradientUnits="userSpaceOnUse">
<stop stop-color="#FEF48B"/>
<stop offset="0.1462" stop-color="#FDF07E"/>
<stop offset="0.4164" stop-color="#FCE55C"/>
<stop offset="0.778" stop-color="#FBD325"/>
<stop offset="1" stop-color="#FAC600"/>
</linearGradient>
<linearGradient id="paint15_linear_28_3845" x1="0" y1="19.8261" x2="38" y2="19.8261" gradientUnits="userSpaceOnUse">
<stop stop-color="white" stop-opacity="0"/>
<stop offset="0.515" stop-color="white"/>
<stop offset="1" stop-color="white" stop-opacity="0"/>
</linearGradient>
<clipPath id="clip0_28_3845">
<rect width="38" height="38" fill="white"/>
</clipPath>
</defs>
</svg>
