<svg width="38" height="38" viewBox="0 0 38 38" fill="none" xmlns="http://www.w3.org/2000/svg">
<g clip-path="url(#clip0_28_3843)">
<g filter="url(#filter0_i_28_3843)">
<rect width="38" height="38" rx="5" fill="url(#paint0_radial_28_3843)"/>
<rect x="0.5" y="0.5" width="37" height="37" rx="4.5" stroke="#27D690" stroke-dasharray="20 20"/>
<rect x="0.5" y="0.5" width="37" height="37" rx="4.5" stroke="url(#paint1_linear_28_3843)" stroke-dasharray="20 20"/>
</g>
<path d="M29.1977 20.1662C29.1977 18.8542 28.6821 17.5947 27.7619 16.6595L22.8819 11.6995C20.9229 9.70839 17.7126 9.70839 15.7536 11.6995L10.8736 16.6595C9.95343 17.5947 9.43774 18.8542 9.43774 20.1662V24.3867C9.43774 27.1481 11.6763 29.3867 14.4377 29.3867H24.1977C26.9592 29.3867 29.1977 27.1481 29.1977 24.3867V20.1662Z" fill="url(#paint2_linear_28_3843)"/>
<path d="M9.43774 26.1811C9.43774 24.4107 10.8729 22.9756 12.6433 22.9756H25.9922C27.7626 22.9756 29.1977 24.4107 29.1977 26.1811V26.1811C29.1977 27.9515 27.7626 29.3866 25.9922 29.3866H12.6433C10.8729 29.3866 9.43774 27.9515 9.43774 26.1811V26.1811Z" fill="url(#paint3_linear_28_3843)"/>
<path d="M22.8819 11.6995C20.9229 9.70839 17.7126 9.70839 15.7536 11.6995L10.2804 17.2624C9.7404 17.8112 9.43774 18.5504 9.43774 19.3204V19.3204C9.43774 20.0987 9.74691 20.845 10.2972 21.3954L16.8241 27.9222C17.7618 28.8599 19.0336 29.3867 20.3596 29.3867H24.1977C26.9592 29.3867 29.1977 27.1481 29.1977 24.3867V20.1662C29.1977 18.8542 28.6821 17.5947 27.7619 16.6595L22.8819 11.6995Z" fill="url(#paint4_linear_28_3843)"/>
<path d="M20.2398 23.9834C19.6462 24.577 19.3127 25.3821 19.3127 26.2215V26.2215C19.3127 27.9697 20.7299 29.3868 22.478 29.3868H26.5248C28.0007 29.3868 29.1972 28.1903 29.1972 26.7143V26.7143C29.1972 26.0055 28.9157 25.3258 28.4145 24.8246L27.1549 23.565C25.3609 21.771 22.4522 21.771 20.6582 23.565L20.2398 23.9834Z" fill="url(#paint5_linear_28_3843)"/>
<path d="M31.6672 29.7743C31.6671 29.7743 31.6671 29.7743 31.6671 29.7742C31.6665 29.7071 31.6262 29.6342 31.5529 29.5615C30.3884 28.4061 25.3528 27.5369 19.3173 27.5369C13.2818 27.5369 8.24621 28.4061 7.08163 29.5615C7.00839 29.6342 6.9681 29.7071 6.96748 29.7742C6.96748 29.7743 6.96744 29.7743 6.96738 29.7743V29.7743C6.96733 29.7743 6.96729 29.7743 6.96729 29.7744V30.0954C6.96729 30.6135 7.38728 31.0335 7.90535 31.0335H30.7292C31.2473 31.0335 31.6673 30.6135 31.6673 30.0954V29.7744C31.6673 29.7743 31.6672 29.7743 31.6672 29.7743V29.7743Z" fill="url(#paint6_linear_28_3843)"/>
<path d="M18.9727 28.431V28.431C19.5739 28.431 20.0612 27.9436 20.0612 27.3425V26.4735C20.0612 25.4852 20.446 24.5561 21.1449 23.8572L21.4545 23.5476C21.6671 23.3351 21.6671 22.9905 21.4545 22.7779V22.7779C21.2419 22.5654 20.8973 22.5654 20.6848 22.7779L20.3752 23.0875C19.4707 23.9919 18.9727 25.1944 18.9727 26.4735V28.4309C18.9727 28.4309 18.9727 28.431 18.9727 28.431V28.431Z" fill="url(#paint7_linear_28_3843)"/>
<path d="M24.1249 20.7714C24.0903 20.4159 23.8108 20.1364 23.4553 20.1018C22.4835 20.0074 21.4395 20.3612 20.6519 21.1489C19.8642 21.9366 19.5104 22.9806 19.6048 23.9524C19.6393 24.3079 19.9188 24.5874 20.2743 24.6219C21.2462 24.7163 22.2901 24.3625 23.0778 23.5749C23.8655 22.7872 24.2193 21.7432 24.1249 20.7714Z" fill="url(#paint8_linear_28_3843)"/>
<path d="M20.1832 24.0445C19.9828 24.2449 19.9933 24.5944 20.2755 24.6219V24.6219C21.2473 24.7163 22.2912 24.3624 23.0789 23.5748C23.8666 22.7871 24.2204 21.7431 24.126 20.7713V20.7713C24.0986 20.4892 23.7491 20.4786 23.5486 20.6791L20.1832 24.0445Z" fill="url(#paint9_linear_28_3843)"/>
<path d="M22.6062 23.76C22.7818 23.76 22.9537 23.699 23.0779 23.5749V23.5749C23.8656 22.7872 24.2194 21.7432 24.125 20.7714C24.0904 20.4159 23.8109 20.1364 23.4554 20.1018C22.4836 20.0074 21.4396 20.3613 20.6519 21.1489V21.1489C20.5278 21.2731 20.4668 21.445 20.4668 21.6206V22.0031C20.4668 22.9734 21.2534 23.76 22.2237 23.76H22.6062Z" fill="url(#paint10_linear_28_3843)"/>
<path d="M21.9121 21.1312C21.9121 21.7847 22.4418 22.3144 23.0953 22.3144V22.3144C23.5832 22.3144 24.0415 22.0165 24.1083 21.5332C24.1435 21.2782 24.1491 21.0224 24.1247 20.7714C24.0902 20.4159 23.8106 20.1363 23.4551 20.1018C23.2041 20.0774 22.9483 20.083 22.6933 20.1182C22.21 20.185 21.9121 20.6433 21.9121 21.1312V21.1312Z" fill="url(#paint11_linear_28_3843)"/>
<path d="M17.6823 29.2897H21.1381C21.4285 29.2897 21.5429 28.9134 21.3017 28.7518L20.6127 28.2901C20.2974 28.0788 20.1082 27.7242 20.1082 27.3447C20.1082 25.7043 19.4694 24.1622 18.3095 23.0024L17.9125 22.6054C17.6399 22.3328 17.198 22.3328 16.9254 22.6054V22.6054C16.6528 22.8779 16.6528 23.3199 16.9254 23.5924L17.3224 23.9895C18.2187 24.8857 18.7122 26.0772 18.7122 27.3447C18.7122 27.7242 18.523 28.0788 18.2077 28.2901L17.5187 28.7518C17.2775 28.9134 17.3919 29.2897 17.6823 29.2897Z" fill="url(#paint12_linear_28_3843)"/>
<path d="M18.7112 27.3446C18.7112 27.7241 18.522 28.0787 18.2067 28.29L17.5178 28.7516C17.2766 28.9133 17.391 29.2896 17.6813 29.2896H21.1371C21.4274 29.2896 21.5419 28.9133 21.3006 28.7516L20.6117 28.29C20.2964 28.0786 20.1072 27.7241 20.1072 27.3446V27.3446C20.1072 27.0712 19.8772 26.8606 19.6038 26.8606H19.1715C18.912 26.8606 18.7112 27.0851 18.7112 27.3446V27.3446Z" fill="url(#paint13_linear_28_3843)"/>
<path d="M14.7933 19.8421C14.3855 19.8817 14.0647 20.2024 14.0252 20.6101C13.9169 21.725 14.3228 22.9226 15.2264 23.8261C16.13 24.7297 17.3276 25.1356 18.4424 25.0273C18.8502 24.9877 19.1708 24.667 19.2104 24.2593C19.3187 23.1444 18.9128 21.9469 18.0092 21.0433C17.1057 20.1397 15.908 19.7338 14.7933 19.8421Z" fill="url(#paint14_linear_28_3843)"/>
<path d="M18.5468 24.3651C18.7767 24.595 19.1777 24.5829 19.2091 24.2593V24.2593C19.3174 23.1445 18.9115 21.9469 18.0079 21.0433C17.1043 20.1397 15.9068 19.7338 14.7919 19.8421V19.8421C14.4683 19.8735 14.4562 20.2745 14.6861 20.5044L18.5468 24.3651Z" fill="url(#paint15_linear_28_3843)"/>
<path d="M18.2217 21.5843C18.2217 21.3829 18.1517 21.1857 18.0093 21.0433V21.0433C17.1057 20.1397 15.9081 19.7338 14.7933 19.8421C14.3855 19.8817 14.0648 20.2024 14.0252 20.6102C13.9169 21.725 14.3228 22.9226 15.2264 23.8262V23.8262C15.3688 23.9686 15.566 24.0386 15.7674 24.0386H16.2064C17.3194 24.0386 18.2217 23.1363 18.2217 22.0233V21.5843Z" fill="url(#paint16_linear_28_3843)"/>
<path d="M16.5633 22.3805V21.8993C16.5633 20.8114 15.876 19.7371 14.7933 19.8423V19.8423C14.3855 19.8819 14.0648 20.2026 14.0252 20.6104C13.9972 20.8984 14.0036 21.1918 14.044 21.4843C14.1206 22.0387 14.6464 22.3805 15.2061 22.3805H16.5633C16.5633 22.3805 16.5633 22.3805 16.5633 22.3805V22.3805Z" fill="url(#paint17_linear_28_3843)"/>
<path d="M23.6085 30.1437C23.6085 30.1437 23.6085 30.1437 23.6085 30.1437C23.6083 30.0962 23.5943 30.0447 23.5688 29.9934C23.164 29.1772 21.4139 28.5632 19.3161 28.5632C17.2183 28.5632 15.4682 29.1772 15.0634 29.9934C15.0379 30.0447 15.0239 30.0963 15.0237 30.1437L15.0237 30.3706C15.0237 30.7365 15.1697 31.0332 15.3497 31.0332H23.2825C23.4626 31.0332 23.6086 30.7365 23.6086 30.3706V30.1438C23.6086 30.1438 23.6086 30.1437 23.6085 30.1437V30.1437Z" fill="url(#paint18_linear_28_3843)"/>
<path d="M19.3156 20.3372C21.2188 20.3372 22.7618 18.7943 22.7618 16.891C22.7618 14.9877 21.2188 13.4448 19.3156 13.4448C17.4123 13.4448 15.8694 14.9877 15.8694 16.891C15.8694 18.7943 17.4123 20.3372 19.3156 20.3372Z" fill="url(#paint19_linear_28_3843)"/>
<path d="M19.9332 16.5282H21.424C21.5894 16.5282 21.7104 16.3698 21.6643 16.2109C21.4324 15.4105 20.8015 14.7797 20.0012 14.5477C19.8423 14.5017 19.6838 14.6226 19.6838 14.788V16.2788C19.6838 16.4166 19.7955 16.5282 19.9332 16.5282Z" fill="url(#paint20_linear_28_3843)"/>
<path d="M18.9555 16.2788V14.788C18.9555 14.6226 18.797 14.5017 18.6381 14.5477C17.8378 14.7797 17.2069 15.4105 16.975 16.2109C16.9289 16.3698 17.0499 16.5282 17.2153 16.5282H18.7061C18.8438 16.5282 18.9555 16.4166 18.9555 16.2788Z" fill="url(#paint21_linear_28_3843)"/>
<path d="M19.6838 17.5038V18.9946C19.6838 19.16 19.8423 19.281 20.0012 19.2349C20.8015 19.0029 21.4324 18.3721 21.6643 17.5717C21.7104 17.4129 21.5894 17.2544 21.424 17.2544H19.9332C19.7955 17.2544 19.6838 17.366 19.6838 17.5038Z" fill="url(#paint22_linear_28_3843)"/>
<path d="M18.7061 17.2544H17.2153C17.0499 17.2544 16.9289 17.4129 16.975 17.5717C17.2069 18.3721 17.8378 19.0029 18.6381 19.2349C18.797 19.281 18.9555 19.16 18.9555 18.9946V17.5038C18.9555 17.366 18.8438 17.2544 18.7061 17.2544Z" fill="url(#paint23_linear_28_3843)"/>
<path d="M19.4859 11.0104L28.7066 20.2311C29.147 20.6715 29.8611 20.6715 30.3015 20.2311L31.337 19.1956C31.7774 18.7551 31.7774 18.0411 31.337 17.6007L20.6015 6.86517C19.8923 6.15594 18.7424 6.15594 18.0332 6.86517L7.29761 17.6007C6.85718 18.0411 6.85718 18.7552 7.29761 19.1956L8.33312 20.2311C8.77356 20.6715 9.48763 20.6715 9.92802 20.2311L19.1487 11.0104C19.2419 10.9173 19.3928 10.9173 19.4859 11.0104Z" fill="url(#paint24_linear_28_3843)"/>
<path d="M18.0336 9.2868L8.33357 18.9868C7.98997 19.3304 7.98997 19.8875 8.33358 20.2311V20.2311C8.77401 20.6716 9.48808 20.6716 9.92847 20.2311L19.1492 11.0105C19.2423 10.9174 19.3933 10.9174 19.4864 11.0105L28.7071 20.2312C29.1475 20.6716 29.8616 20.6716 30.302 20.2312V20.2312C30.6456 19.8876 30.6456 19.3305 30.302 18.9869L20.602 9.28685C19.8927 8.57757 18.7429 8.57757 18.0336 9.2868Z" fill="url(#paint25_linear_28_3843)"/>
<path d="M8.33337 20.231C8.7738 20.6714 9.48787 20.6714 9.92826 20.231L12.9988 17.1605C14.1705 15.9888 13.3406 13.9854 11.6836 13.9854V13.9854C11.1903 13.9854 10.7172 14.1813 10.3684 14.5301L7.29786 17.6006C6.85742 18.041 6.85742 18.7551 7.29786 19.1955L8.33337 20.231Z" fill="url(#paint26_linear_28_3843)"/>
<path d="M31.3378 19.1956C31.7782 18.7551 31.7782 18.041 31.3378 17.6007L28.2673 14.5301C27.9184 14.1813 27.4453 13.9854 26.9521 13.9854V13.9854C25.295 13.9854 24.4651 15.9888 25.6368 17.1605L28.7073 20.231C29.1478 20.6714 29.8618 20.6714 30.3022 20.231L31.3378 19.1956Z" fill="url(#paint27_linear_28_3843)"/>
<g style="mix-blend-mode:color" filter="url(#filter1_i_28_3843)">
<rect width="38" height="38" rx="5" fill="#27D690"/>
<rect x="0.5" y="0.5" width="37" height="37" rx="4.5" stroke="#27D690" stroke-dasharray="20 20"/>
<rect x="0.5" y="0.5" width="37" height="37" rx="4.5" stroke="url(#paint28_linear_28_3843)" stroke-dasharray="20 20"/>
</g>
</g>
<defs>
<filter id="filter0_i_28_3843" x="0" y="0" width="38" height="38" filterUnits="userSpaceOnUse" color-interpolation-filters="sRGB">
<feFlood flood-opacity="0" result="BackgroundImageFix"/>
<feBlend mode="normal" in="SourceGraphic" in2="BackgroundImageFix" result="shape"/>
<feColorMatrix in="SourceAlpha" type="matrix" values="0 0 0 0 0 0 0 0 0 0 0 0 0 0 0 0 0 0 127 0" result="hardAlpha"/>
<feOffset/>
<feGaussianBlur stdDeviation="3.05"/>
<feComposite in2="hardAlpha" operator="arithmetic" k2="-1" k3="1"/>
<feColorMatrix type="matrix" values="0 0 0 0 0.860323 0 0 0 0 0.7875 0 0 0 0 1 0 0 0 1 0"/>
<feBlend mode="normal" in2="shape" result="effect1_innerShadow_28_3843"/>
</filter>
<filter id="filter1_i_28_3843" x="0" y="0" width="38" height="38" filterUnits="userSpaceOnUse" color-interpolation-filters="sRGB">
<feFlood flood-opacity="0" result="BackgroundImageFix"/>
<feBlend mode="normal" in="SourceGraphic" in2="BackgroundImageFix" result="shape"/>
<feColorMatrix in="SourceAlpha" type="matrix" values="0 0 0 0 0 0 0 0 0 0 0 0 0 0 0 0 0 0 127 0" result="hardAlpha"/>
<feOffset/>
<feGaussianBlur stdDeviation="3.05"/>
<feComposite in2="hardAlpha" operator="arithmetic" k2="-1" k3="1"/>
<feColorMatrix type="matrix" values="0 0 0 0 0.860323 0 0 0 0 0.7875 0 0 0 0 1 0 0 0 1 0"/>
<feBlend mode="normal" in2="shape" result="effect1_innerShadow_28_3843"/>
</filter>
<radialGradient id="paint0_radial_28_3843" cx="0" cy="0" r="1" gradientUnits="userSpaceOnUse" gradientTransform="translate(18.8403) rotate(90) scale(38 13.5108)">
<stop stop-color="#27D690"/>
<stop offset="1" stop-color="#1AB376"/>
</radialGradient>
<linearGradient id="paint1_linear_28_3843" x1="0" y1="19.8261" x2="38" y2="19.8261" gradientUnits="userSpaceOnUse">
<stop stop-color="white" stop-opacity="0"/>
<stop offset="0.515" stop-color="white"/>
<stop offset="1" stop-color="white" stop-opacity="0"/>
</linearGradient>
<linearGradient id="paint2_linear_28_3843" x1="13.4333" y1="17.7874" x2="25.3512" y2="29.7052" gradientUnits="userSpaceOnUse">
<stop stop-color="#EAF6FF"/>
<stop offset="1" stop-color="#B3DAFE"/>
</linearGradient>
<linearGradient id="paint3_linear_28_3843" x1="19.3177" y1="24.3558" x2="19.3177" y2="28.0613" gradientUnits="userSpaceOnUse">
<stop stop-color="#D8ECFE" stop-opacity="0"/>
<stop offset="0.7867" stop-color="#9BD1FE" stop-opacity="0.787"/>
<stop offset="1" stop-color="#8AC9FE"/>
</linearGradient>
<linearGradient id="paint4_linear_28_3843" x1="18.3878" y1="18.3165" x2="13.939" y2="13.8677" gradientUnits="userSpaceOnUse">
<stop stop-color="#8AC9FE" stop-opacity="0"/>
<stop offset="0.2672" stop-color="#7DB6E1" stop-opacity="0.267"/>
<stop offset="0.8432" stop-color="#5D8798" stop-opacity="0.843"/>
<stop offset="1" stop-color="#537983"/>
</linearGradient>
<linearGradient id="paint5_linear_28_3843" x1="26.0254" y1="27.6257" x2="20.9886" y2="24.4616" gradientUnits="userSpaceOnUse">
<stop stop-color="#8AC9FE" stop-opacity="0"/>
<stop offset="0.2672" stop-color="#7DB6E1" stop-opacity="0.267"/>
<stop offset="0.8432" stop-color="#5D8798" stop-opacity="0.843"/>
<stop offset="1" stop-color="#537983"/>
</linearGradient>
<linearGradient id="paint6_linear_28_3843" x1="19.3173" y1="28.1761" x2="19.3173" y2="32.1743" gradientUnits="userSpaceOnUse">
<stop stop-color="#A2E62E"/>
<stop offset="0.1231" stop-color="#97DE30"/>
<stop offset="0.3395" stop-color="#79CB36"/>
<stop offset="0.6234" stop-color="#4AAB3F"/>
<stop offset="0.9609" stop-color="#09804C"/>
<stop offset="1" stop-color="#017B4E"/>
</linearGradient>
<linearGradient id="paint7_linear_28_3843" x1="18.2744" y1="23.6652" x2="19.8769" y2="25.2677" gradientUnits="userSpaceOnUse">
<stop stop-color="#A2E62E"/>
<stop offset="0.1231" stop-color="#97DE30"/>
<stop offset="0.3395" stop-color="#79CB36"/>
<stop offset="0.6234" stop-color="#4AAB3F"/>
<stop offset="0.9609" stop-color="#09804C"/>
<stop offset="1" stop-color="#017B4E"/>
</linearGradient>
<linearGradient id="paint8_linear_28_3843" x1="18.4665" y1="18.9636" x2="22.4265" y2="22.9236" gradientUnits="userSpaceOnUse">
<stop stop-color="#A2E62E"/>
<stop offset="0.1231" stop-color="#97DE30"/>
<stop offset="0.3395" stop-color="#79CB36"/>
<stop offset="0.6234" stop-color="#4AAB3F"/>
<stop offset="0.9609" stop-color="#09804C"/>
<stop offset="1" stop-color="#017B4E"/>
</linearGradient>
<linearGradient id="paint9_linear_28_3843" x1="22.8997" y1="22.7478" x2="21.0571" y2="22.1335" gradientUnits="userSpaceOnUse">
<stop stop-color="#017B4E" stop-opacity="0"/>
<stop offset="1" stop-color="#026841"/>
</linearGradient>
<linearGradient id="paint10_linear_28_3843" x1="22.0652" y1="22.1445" x2="19.9309" y2="24.2787" gradientUnits="userSpaceOnUse">
<stop stop-color="#017B4E" stop-opacity="0"/>
<stop offset="1" stop-color="#026841"/>
</linearGradient>
<linearGradient id="paint11_linear_28_3843" x1="24.089" y1="20.1204" x2="21.2824" y2="22.927" gradientUnits="userSpaceOnUse">
<stop stop-color="#017B4E" stop-opacity="0"/>
<stop offset="0.4829" stop-color="#01754A" stop-opacity="0.483"/>
<stop offset="1" stop-color="#026841"/>
</linearGradient>
<linearGradient id="paint12_linear_28_3843" x1="17.6741" y1="25.7713" x2="20.8568" y2="25.6317" gradientUnits="userSpaceOnUse">
<stop stop-color="#A2E62E"/>
<stop offset="0.1231" stop-color="#97DE30"/>
<stop offset="0.3395" stop-color="#79CB36"/>
<stop offset="0.6234" stop-color="#4AAB3F"/>
<stop offset="0.9609" stop-color="#09804C"/>
<stop offset="1" stop-color="#017B4E"/>
</linearGradient>
<linearGradient id="paint13_linear_28_3843" x1="19.4092" y1="27.6982" x2="19.4092" y2="29.1687" gradientUnits="userSpaceOnUse">
<stop stop-color="#017B4E" stop-opacity="0"/>
<stop offset="0.4693" stop-color="#01764A" stop-opacity="0.469"/>
<stop offset="1" stop-color="#026841"/>
</linearGradient>
<linearGradient id="paint14_linear_28_3843" x1="15.1581" y1="20.9751" x2="19.9257" y2="25.7427" gradientUnits="userSpaceOnUse">
<stop stop-color="#A2E62E"/>
<stop offset="0.1231" stop-color="#97DE30"/>
<stop offset="0.3395" stop-color="#79CB36"/>
<stop offset="0.6234" stop-color="#4AAB3F"/>
<stop offset="0.9609" stop-color="#09804C"/>
<stop offset="1" stop-color="#017B4E"/>
</linearGradient>
<linearGradient id="paint15_linear_28_3843" x1="17.6701" y1="21.3872" x2="15.3834" y2="23.6739" gradientUnits="userSpaceOnUse">
<stop stop-color="#017B4E" stop-opacity="0"/>
<stop offset="1" stop-color="#026841"/>
</linearGradient>
<linearGradient id="paint16_linear_28_3843" x1="17.2196" y1="23.0276" x2="19.6679" y2="25.4759" gradientUnits="userSpaceOnUse">
<stop stop-color="#017B4E" stop-opacity="0"/>
<stop offset="1" stop-color="#026841"/>
</linearGradient>
<linearGradient id="paint17_linear_28_3843" x1="15.3246" y1="21.1329" x2="18.5442" y2="24.3525" gradientUnits="userSpaceOnUse">
<stop stop-color="#017B4E" stop-opacity="0"/>
<stop offset="0.4829" stop-color="#01754A" stop-opacity="0.483"/>
<stop offset="1" stop-color="#026841"/>
</linearGradient>
<linearGradient id="paint18_linear_28_3843" x1="19.3161" y1="28.1758" x2="19.3161" y2="32.174" gradientUnits="userSpaceOnUse">
<stop stop-color="#A2E62E"/>
<stop offset="0.1231" stop-color="#97DE30"/>
<stop offset="0.3395" stop-color="#79CB36"/>
<stop offset="0.6234" stop-color="#4AAB3F"/>
<stop offset="0.9609" stop-color="#09804C"/>
<stop offset="1" stop-color="#017B4E"/>
</linearGradient>
<linearGradient id="paint19_linear_28_3843" x1="22.1587" y1="19.7341" x2="17.3859" y2="14.9614" gradientUnits="userSpaceOnUse">
<stop stop-color="#EAF6FF"/>
<stop offset="1" stop-color="#B3DAFE"/>
</linearGradient>
<linearGradient id="paint20_linear_28_3843" x1="19.2512" y1="14.6604" x2="22.6659" y2="18.0752" gradientUnits="userSpaceOnUse">
<stop stop-color="#26A6FE"/>
<stop offset="1" stop-color="#2740B0"/>
</linearGradient>
<linearGradient id="paint21_linear_28_3843" x1="18.1685" y1="15.7412" x2="21.5832" y2="19.156" gradientUnits="userSpaceOnUse">
<stop stop-color="#26A6FE"/>
<stop offset="1" stop-color="#2740B0"/>
</linearGradient>
<linearGradient id="paint22_linear_28_3843" x1="18.1704" y1="15.7409" x2="21.5851" y2="19.1557" gradientUnits="userSpaceOnUse">
<stop stop-color="#26A6FE"/>
<stop offset="1" stop-color="#2740B0"/>
</linearGradient>
<linearGradient id="paint23_linear_28_3843" x1="17.0877" y1="16.8217" x2="20.5024" y2="20.2365" gradientUnits="userSpaceOnUse">
<stop stop-color="#26A6FE"/>
<stop offset="1" stop-color="#2740B0"/>
</linearGradient>
<linearGradient id="paint24_linear_28_3843" x1="12.5363" y1="11.6171" x2="24.338" y2="23.4189" gradientUnits="userSpaceOnUse">
<stop stop-color="#FD4755"/>
<stop offset="1" stop-color="#D2024E"/>
</linearGradient>
<linearGradient id="paint25_linear_28_3843" x1="19.3178" y1="19.6035" x2="19.3178" y2="8.751" gradientUnits="userSpaceOnUse">
<stop stop-color="#FD4755"/>
<stop offset="1" stop-color="#D2024E"/>
</linearGradient>
<linearGradient id="paint26_linear_28_3843" x1="11.5708" y1="16.1163" x2="11.5708" y2="20.7058" gradientUnits="userSpaceOnUse">
<stop stop-color="#C00148" stop-opacity="0"/>
<stop offset="1" stop-color="#6D3326"/>
</linearGradient>
<linearGradient id="paint27_linear_28_3843" x1="27.0649" y1="16.1163" x2="27.0649" y2="20.7058" gradientUnits="userSpaceOnUse">
<stop stop-color="#C00148" stop-opacity="0"/>
<stop offset="1" stop-color="#6D3326"/>
</linearGradient>
<linearGradient id="paint28_linear_28_3843" x1="0" y1="19.8261" x2="38" y2="19.8261" gradientUnits="userSpaceOnUse">
<stop stop-color="white" stop-opacity="0"/>
<stop offset="0.515" stop-color="white"/>
<stop offset="1" stop-color="white" stop-opacity="0"/>
</linearGradient>
<clipPath id="clip0_28_3843">
<rect width="38" height="38" fill="white"/>
</clipPath>
</defs>
</svg>
