<svg width="990" height="52" viewBox="0 0 990 52" fill="none" xmlns="http://www.w3.org/2000/svg">
<g opacity="0.4">
<path d="M10.9393 51.0607C11.5251 51.6464 12.4749 51.6464 13.0607 51.0607L22.6066 41.5147C23.1924 40.9289 23.1924 39.9792 22.6066 39.3934C22.0208 38.8076 21.0711 38.8076 20.4853 39.3934L12 47.8787L3.51472 39.3934C2.92893 38.8076 1.97918 38.8076 1.3934 39.3934C0.80761 39.9792 0.80761 40.9289 1.3934 41.5147L10.9393 51.0607ZM12 0L10.5 -6.55671e-08L10.5 50L12 50L13.5 50L13.5 6.55671e-08L12 0Z" fill="url(#paint0_linear_47_59)"/>
<path d="M148.939 51.0607C149.525 51.6464 150.475 51.6464 151.061 51.0607L160.607 41.5147C161.192 40.9289 161.192 39.9792 160.607 39.3934C160.021 38.8076 159.071 38.8076 158.485 39.3934L150 47.8787L141.515 39.3934C140.929 38.8076 139.979 38.8076 139.393 39.3934C138.808 39.9792 138.808 40.9289 139.393 41.5147L148.939 51.0607ZM150 0L148.5 -6.55671e-08L148.5 50L150 50L151.5 50L151.5 6.55671e-08L150 0Z" fill="url(#paint1_linear_47_59)"/>
<path d="M286.939 51.0607C287.525 51.6464 288.475 51.6464 289.061 51.0607L298.607 41.5147C299.192 40.9289 299.192 39.9792 298.607 39.3934C298.021 38.8076 297.071 38.8076 296.485 39.3934L288 47.8787L279.515 39.3934C278.929 38.8076 277.979 38.8076 277.393 39.3934C276.808 39.9792 276.808 40.9289 277.393 41.5147L286.939 51.0607ZM288 0L286.5 -6.55671e-08L286.5 50L288 50L289.5 50L289.5 6.55671e-08L288 0Z" fill="url(#paint2_linear_47_59)"/>
<path d="M424.939 51.0607C425.525 51.6464 426.475 51.6464 427.061 51.0607L436.607 41.5147C437.192 40.9289 437.192 39.9792 436.607 39.3934C436.021 38.8076 435.071 38.8076 434.485 39.3934L426 47.8787L417.515 39.3934C416.929 38.8076 415.979 38.8076 415.393 39.3934C414.808 39.9792 414.808 40.9289 415.393 41.5147L424.939 51.0607ZM426 0L424.5 -6.55671e-08L424.5 50L426 50L427.5 50L427.5 6.55671e-08L426 0Z" fill="url(#paint3_linear_47_59)"/>
<path d="M562.939 51.0607C563.525 51.6464 564.475 51.6464 565.061 51.0607L574.607 41.5147C575.192 40.9289 575.192 39.9792 574.607 39.3934C574.021 38.8076 573.071 38.8076 572.485 39.3934L564 47.8787L555.515 39.3934C554.929 38.8076 553.979 38.8076 553.393 39.3934C552.808 39.9792 552.808 40.9289 553.393 41.5147L562.939 51.0607ZM564 0L562.5 -6.55671e-08L562.5 50L564 50L565.5 50L565.5 6.55671e-08L564 0Z" fill="url(#paint4_linear_47_59)"/>
<path d="M700.939 51.0607C701.525 51.6464 702.475 51.6464 703.061 51.0607L712.607 41.5147C713.192 40.9289 713.192 39.9792 712.607 39.3934C712.021 38.8076 711.071 38.8076 710.485 39.3934L702 47.8787L693.515 39.3934C692.929 38.8076 691.979 38.8076 691.393 39.3934C690.808 39.9792 690.808 40.9289 691.393 41.5147L700.939 51.0607ZM702 0L700.5 -6.55671e-08L700.5 50L702 50L703.5 50L703.5 6.55671e-08L702 0Z" fill="url(#paint5_linear_47_59)"/>
<path d="M838.939 51.0607C839.525 51.6464 840.475 51.6464 841.061 51.0607L850.607 41.5147C851.192 40.9289 851.192 39.9792 850.607 39.3934C850.021 38.8076 849.071 38.8076 848.485 39.3934L840 47.8787L831.515 39.3934C830.929 38.8076 829.979 38.8076 829.393 39.3934C828.808 39.9792 828.808 40.9289 829.393 41.5147L838.939 51.0607ZM840 0L838.5 -6.55671e-08L838.5 50L840 50L841.5 50L841.5 6.55671e-08L840 0Z" fill="url(#paint6_linear_47_59)"/>
<path d="M976.939 51.0607C977.525 51.6464 978.475 51.6464 979.061 51.0607L988.607 41.5147C989.192 40.9289 989.192 39.9792 988.607 39.3934C988.021 38.8076 987.071 38.8076 986.485 39.3934L978 47.8787L969.515 39.3934C968.929 38.8076 967.979 38.8076 967.393 39.3934C966.808 39.9792 966.808 40.9289 967.393 41.5147L976.939 51.0607ZM978 0L976.5 -6.55671e-08L976.5 50L978 50L979.5 50L979.5 6.55671e-08L978 0Z" fill="url(#paint7_linear_47_59)"/>
</g>
<defs>
<linearGradient id="paint0_linear_47_59" x1="11.5" y1="50" x2="11.5" y2="-2.18557e-08" gradientUnits="userSpaceOnUse">
<stop stop-color="white"/>
<stop offset="1" stop-color="white" stop-opacity="0"/>
</linearGradient>
<linearGradient id="paint1_linear_47_59" x1="149.5" y1="50" x2="149.5" y2="-2.18557e-08" gradientUnits="userSpaceOnUse">
<stop stop-color="#27D690"/>
<stop offset="1" stop-color="#27D690" stop-opacity="0"/>
</linearGradient>
<linearGradient id="paint2_linear_47_59" x1="287.5" y1="50" x2="287.5" y2="-2.18557e-08" gradientUnits="userSpaceOnUse">
<stop stop-color="white"/>
<stop offset="1" stop-color="white" stop-opacity="0"/>
</linearGradient>
<linearGradient id="paint3_linear_47_59" x1="425.5" y1="50" x2="425.5" y2="-2.18557e-08" gradientUnits="userSpaceOnUse">
<stop stop-color="#27D690"/>
<stop offset="1" stop-color="#27D690" stop-opacity="0"/>
</linearGradient>
<linearGradient id="paint4_linear_47_59" x1="563.5" y1="50" x2="563.5" y2="-2.18557e-08" gradientUnits="userSpaceOnUse">
<stop stop-color="white"/>
<stop offset="1" stop-color="white" stop-opacity="0"/>
</linearGradient>
<linearGradient id="paint5_linear_47_59" x1="701.5" y1="50" x2="701.5" y2="-2.18557e-08" gradientUnits="userSpaceOnUse">
<stop stop-color="#27D690"/>
<stop offset="1" stop-color="#27D690" stop-opacity="0"/>
</linearGradient>
<linearGradient id="paint6_linear_47_59" x1="839.5" y1="50" x2="839.5" y2="-2.18557e-08" gradientUnits="userSpaceOnUse">
<stop stop-color="white"/>
<stop offset="1" stop-color="white" stop-opacity="0"/>
</linearGradient>
<linearGradient id="paint7_linear_47_59" x1="977.5" y1="50" x2="977.5" y2="-2.18557e-08" gradientUnits="userSpaceOnUse">
<stop stop-color="#27D690"/>
<stop offset="1" stop-color="#27D690" stop-opacity="0"/>
</linearGradient>
</defs>
</svg>
