<svg width="348" height="280" viewBox="0 0 348 280" fill="none" xmlns="http://www.w3.org/2000/svg">
<g clip-path="url(#clip0_204_8400)">
<g opacity="0.4">
<mask id="path-1-outside-1_204_8400" maskUnits="userSpaceOnUse" x="18" y="40" width="314" height="220" fill="black">
<rect fill="white" x="18" y="40" width="314" height="220"/>
<path d="M103.111 257.36C86.6841 257.36 72.2175 252.88 59.7108 243.92C47.3908 234.773 37.7775 222.173 30.8708 206.12C23.9641 189.88 20.5108 171.027 20.5108 149.56C20.5108 128.093 23.9641 109.333 30.8708 93.28C37.7775 77.04 47.3908 64.44 59.7108 55.48C72.0308 46.52 86.4041 42.04 102.831 42.04C119.257 42.04 133.631 46.52 145.951 55.48C158.271 64.44 167.884 77.04 174.791 93.28C181.697 109.333 185.151 128.093 185.151 149.56C185.151 171.027 181.697 189.88 174.791 206.12C168.071 222.36 158.551 234.96 146.231 243.92C133.911 252.88 119.537 257.36 103.111 257.36ZM103.111 236.36C115.057 236.36 125.511 232.72 134.471 225.44C143.431 218.16 150.431 208.08 155.471 195.2C160.511 182.133 163.031 166.92 163.031 149.56C163.031 132.2 160.511 117.08 155.471 104.2C150.431 91.1333 143.431 81.0533 134.471 73.96C125.511 66.68 114.964 63.04 102.831 63.04C90.8841 63.04 80.4308 66.68 71.4708 73.96C62.5108 81.0533 55.5108 91.1333 50.4708 104.2C45.4308 117.08 42.9108 132.2 42.9108 149.56C42.9108 166.733 45.4308 181.853 50.4708 194.92C55.5108 207.987 62.5108 218.16 71.4708 225.44C80.6175 232.72 91.1641 236.36 103.111 236.36ZM259.749 257.36C246.309 257.36 234.269 254.653 223.629 249.24C213.176 243.64 204.869 236.08 198.709 226.56C192.736 216.853 189.749 205.933 189.749 193.8C189.749 180.547 193.482 168.693 200.949 158.24C208.602 147.787 218.869 140.507 231.749 136.4V142.28C221.856 137.987 214.202 131.64 208.789 123.24C203.376 114.653 200.669 105.507 200.669 95.8C200.669 85.5333 203.282 76.3867 208.509 68.36C213.736 60.3333 220.736 53.9867 229.509 49.32C238.469 44.4667 248.549 42.04 259.749 42.04C271.136 42.04 281.216 44.3733 289.989 49.04C298.762 53.52 305.669 59.8667 310.709 68.08C315.936 76.1067 318.549 85.3467 318.549 95.8C318.549 106.253 315.749 115.587 310.149 123.8C304.549 131.827 297.176 137.987 288.029 142.28L287.749 136.4C300.629 140.507 310.802 147.787 318.269 158.24C325.922 168.693 329.749 180.547 329.749 193.8C329.749 205.933 326.669 216.853 320.509 226.56C314.536 236.08 306.229 243.64 295.589 249.24C285.136 254.653 273.189 257.36 259.749 257.36ZM259.749 237.76C269.269 237.76 277.576 235.987 284.669 232.44C291.762 228.707 297.269 223.573 301.189 217.04C305.296 210.32 307.349 202.573 307.349 193.8C307.349 185.027 305.296 177.373 301.189 170.84C297.269 164.12 291.762 158.987 284.669 155.44C277.576 151.707 269.269 149.84 259.749 149.84C250.229 149.84 241.829 151.707 234.549 155.44C227.456 158.987 221.949 164.12 218.029 170.84C214.109 177.373 212.149 185.027 212.149 193.8C212.149 202.573 214.109 210.32 218.029 217.04C221.949 223.573 227.456 228.707 234.549 232.44C241.829 235.987 250.229 237.76 259.749 237.76ZM259.749 130.24C266.656 130.24 272.816 128.84 278.229 126.04C283.642 123.053 287.936 119.04 291.109 114C294.469 108.773 296.149 102.707 296.149 95.8C296.149 88.8933 294.469 82.92 291.109 77.88C287.936 72.84 283.642 68.92 278.229 66.12C272.816 63.1333 266.656 61.64 259.749 61.64C252.842 61.64 246.589 63.1333 240.989 66.12C235.576 68.92 231.189 72.84 227.829 77.88C224.656 82.92 223.069 88.8933 223.069 95.8C223.069 102.707 224.656 108.773 227.829 114C231.189 119.04 235.576 123.053 240.989 126.04C246.589 128.84 252.842 130.24 259.749 130.24Z"/>
</mask>
<path d="M59.7108 243.92L58.5186 245.526L58.5322 245.536L58.546 245.546L59.7108 243.92ZM30.8708 206.12L29.0303 206.903L29.0336 206.91L30.8708 206.12ZM30.8708 93.28L32.708 94.0704L32.7113 94.0627L30.8708 93.28ZM59.7108 55.48L58.5344 53.8625H58.5344L59.7108 55.48ZM145.951 55.48L147.127 53.8625L145.951 55.48ZM174.791 93.28L172.95 94.0627L172.954 94.0704L174.791 93.28ZM174.791 206.12L172.95 205.337L172.946 205.346L172.943 205.355L174.791 206.12ZM146.231 243.92L147.407 245.537L146.231 243.92ZM134.471 225.44L135.732 226.992L134.471 225.44ZM155.471 195.2L157.333 195.929L157.337 195.92L155.471 195.2ZM155.471 104.2L153.605 104.92L153.608 104.929L155.471 104.2ZM134.471 73.96L133.21 75.5122L133.219 75.5202L133.229 75.5281L134.471 73.96ZM71.4708 73.96L72.7122 75.5281L72.7221 75.5202L72.732 75.5122L71.4708 73.96ZM50.4708 104.2L52.3333 104.929L52.3368 104.92L50.4708 104.2ZM50.4708 194.92L48.6048 195.64L50.4708 194.92ZM71.4708 225.44L70.2096 226.992L70.2174 226.999L70.2253 227.005L71.4708 225.44ZM103.111 255.36C87.072 255.36 73.019 250.994 60.8756 242.294L58.546 245.546C71.4159 254.766 86.2963 259.36 103.111 259.36V255.36ZM60.903 242.314C48.9036 233.406 39.495 221.105 32.708 205.33L29.0336 206.91C36.0599 223.242 45.878 236.141 58.5186 245.526L60.903 242.314ZM32.7113 205.337C25.93 189.392 22.5108 170.814 22.5108 149.56H18.5108C18.5108 171.239 21.9982 190.368 29.0303 206.903L32.7113 205.337ZM22.5108 149.56C22.5108 128.305 25.9303 109.824 32.708 94.0704L29.0336 92.4896C21.998 108.843 18.5108 127.882 18.5108 149.56H22.5108ZM32.7113 94.0627C39.499 78.1024 48.9038 65.8126 60.8871 57.0975L58.5344 53.8625C45.8778 63.0674 36.0559 75.9776 29.0303 92.4973L32.7113 94.0627ZM60.8871 57.0975C72.838 48.4059 86.7918 44.04 102.831 44.04V40.04C86.0164 40.04 71.2235 44.6341 58.5344 53.8625L60.8871 57.0975ZM102.831 44.04C118.87 44.04 132.824 48.4059 144.774 57.0975L147.127 53.8625C134.438 44.6341 119.645 40.04 102.831 40.04V44.04ZM144.774 57.0975C156.758 65.8126 166.163 78.1024 172.95 94.0627L176.631 92.4973C169.606 75.9776 159.784 63.0674 147.127 53.8625L144.774 57.0975ZM172.954 94.0704C179.731 109.824 183.151 128.305 183.151 149.56H187.151C187.151 127.882 183.664 108.843 176.628 92.4896L172.954 94.0704ZM183.151 149.56C183.151 170.814 179.732 189.392 172.95 205.337L176.631 206.903C183.663 190.368 187.151 171.239 187.151 149.56H183.151ZM172.943 205.355C166.342 221.308 157.033 233.591 145.054 242.303L147.407 245.537C160.069 236.329 169.8 223.412 176.639 206.885L172.943 205.355ZM145.054 242.303C133.104 250.994 119.15 255.36 103.111 255.36V259.36C119.925 259.36 134.718 254.766 147.407 245.537L145.054 242.303ZM103.111 238.36C115.499 238.36 126.402 234.573 135.732 226.992L133.21 223.888C124.619 230.867 114.615 234.36 103.111 234.36V238.36ZM135.732 226.992C145.009 219.455 152.192 209.067 157.333 195.929L153.608 194.471C148.669 207.093 141.853 216.865 133.21 223.888L135.732 226.992ZM157.337 195.92C162.484 182.576 165.031 167.109 165.031 149.56H161.031C161.031 166.731 158.538 181.691 153.605 194.48L157.337 195.92ZM165.031 149.56C165.031 132.012 162.484 116.634 157.333 103.471L153.608 104.929C158.538 117.526 161.031 132.388 161.031 149.56H165.031ZM157.337 103.48C152.197 90.155 145.009 79.7522 135.712 72.3919L133.229 75.5281C141.852 82.3545 148.665 92.1117 153.605 104.92L157.337 103.48ZM135.732 72.4078C126.396 64.8226 115.398 61.04 102.831 61.04V65.04C114.53 65.04 124.625 68.5374 133.21 75.5122L135.732 72.4078ZM102.831 61.04C90.4421 61.04 79.5393 64.8274 70.2096 72.4078L72.732 75.5122C81.3222 68.5326 91.3261 65.04 102.831 65.04V61.04ZM70.2294 72.3919C60.9322 79.7522 53.7445 90.155 48.6048 103.48L52.3368 104.92C57.2771 92.1117 64.0894 82.3545 72.7122 75.5281L70.2294 72.3919ZM48.6083 103.471C43.4575 116.634 40.9108 132.012 40.9108 149.56H44.9108C44.9108 132.388 47.4041 117.526 52.3333 104.929L48.6083 103.471ZM40.9108 149.56C40.9108 166.926 43.4587 182.298 48.6048 195.64L52.3368 194.2C47.4029 181.409 44.9108 166.541 44.9108 149.56H40.9108ZM48.6048 195.64C53.7437 208.963 60.9266 219.45 70.2096 226.992L72.732 223.888C64.095 216.87 57.2779 207.011 52.3368 194.2L48.6048 195.64ZM70.2253 227.005C79.7343 234.573 90.7225 238.36 103.111 238.36V234.36C91.6058 234.36 81.5006 230.867 72.7163 223.875L70.2253 227.005ZM223.629 249.24L222.684 251.003L222.703 251.013L222.722 251.023L223.629 249.24ZM198.709 226.56L197.006 227.608L197.017 227.627L197.03 227.646L198.709 226.56ZM200.949 158.24L199.335 157.059L199.328 157.068L199.321 157.078L200.949 158.24ZM231.749 136.4H233.749V133.663L231.141 134.495L231.749 136.4ZM231.749 142.28L230.953 144.115L233.749 145.328V142.28H231.749ZM208.789 123.24L207.097 124.307L207.102 124.315L207.108 124.323L208.789 123.24ZM208.509 68.36L206.833 67.2686L208.509 68.36ZM229.509 49.32L230.448 51.0857L230.455 51.0822L230.461 51.0786L229.509 49.32ZM289.989 49.04L289.05 50.8057L289.064 50.8136L289.079 50.8212L289.989 49.04ZM310.709 68.08L309.004 69.126L309.018 69.1489L309.033 69.1713L310.709 68.08ZM310.149 123.8L311.789 124.944L311.795 124.936L311.801 124.927L310.149 123.8ZM288.029 142.28L286.031 142.375L286.173 145.36L288.879 144.09L288.029 142.28ZM287.749 136.4L288.356 134.495L285.614 133.62L285.751 136.495L287.749 136.4ZM318.269 158.24L316.641 159.402L316.648 159.412L316.655 159.421L318.269 158.24ZM320.509 226.56L318.82 225.488L318.815 225.497L320.509 226.56ZM295.589 249.24L296.509 251.016L296.52 251.01L295.589 249.24ZM284.669 232.44L285.563 234.229L285.582 234.22L285.6 234.21L284.669 232.44ZM301.189 217.04L299.482 215.997L299.478 216.004L299.474 216.011L301.189 217.04ZM301.189 170.84L299.461 171.848L299.478 171.876L299.496 171.904L301.189 170.84ZM284.669 155.44L283.737 157.21L283.756 157.22L283.774 157.229L284.669 155.44ZM234.549 155.44L235.443 157.229L235.452 157.224L235.462 157.22L234.549 155.44ZM218.029 170.84L219.744 171.869L219.75 171.858L219.756 171.848L218.029 170.84ZM218.029 217.04L216.301 218.048L216.308 218.058L216.314 218.069L218.029 217.04ZM234.549 232.44L233.617 234.21L233.645 234.224L233.673 234.238L234.549 232.44ZM278.229 126.04L279.148 127.816L279.172 127.804L279.195 127.791L278.229 126.04ZM291.109 114L289.427 112.918L289.421 112.926L289.416 112.934L291.109 114ZM291.109 77.88L289.416 78.9456L289.43 78.9677L289.445 78.9894L291.109 77.88ZM278.229 66.12L277.263 67.8712L277.286 67.8841L277.31 67.8964L278.229 66.12ZM240.989 66.12L241.908 67.8964L241.919 67.8906L241.93 67.8847L240.989 66.12ZM227.829 77.88L226.165 76.7706L226.15 76.7923L226.136 76.8144L227.829 77.88ZM227.829 114L226.119 115.038L226.141 115.074L226.165 115.109L227.829 114ZM240.989 126.04L240.023 127.791L240.058 127.811L240.094 127.829L240.989 126.04ZM259.749 255.36C246.584 255.36 234.861 252.711 224.536 247.457L222.722 251.023C233.677 256.596 246.034 259.36 259.749 259.36V255.36ZM224.573 247.477C214.404 242.029 206.356 234.696 200.388 225.473L197.03 227.646C203.382 237.464 211.947 245.251 222.684 251.003L224.573 247.477ZM200.412 225.512C194.646 216.141 191.749 205.588 191.749 193.8H187.749C187.749 206.279 190.826 217.566 197.006 227.608L200.412 225.512ZM191.749 193.8C191.749 180.949 195.36 169.505 202.576 159.402L199.321 157.078C191.604 167.881 187.749 180.144 187.749 193.8H191.749ZM202.563 159.421C209.954 149.325 219.861 142.289 232.356 138.305L231.141 134.495C217.876 138.724 207.25 146.248 199.335 157.059L202.563 159.421ZM229.749 136.4V142.28H233.749V136.4H229.749ZM232.545 140.445C222.984 136.296 215.652 130.198 210.47 122.157L207.108 124.323C212.752 133.082 220.727 139.677 230.953 144.115L232.545 140.445ZM210.481 122.173C205.259 113.891 202.669 105.111 202.669 95.8H198.669C198.669 105.902 201.492 115.416 207.097 124.307L210.481 122.173ZM202.669 95.8C202.669 85.8917 205.185 77.1297 210.185 69.4513L206.833 67.2686C201.379 75.6436 198.669 85.175 198.669 95.8H202.669ZM210.185 69.4513C215.22 61.719 221.962 55.5997 230.448 51.0857L228.57 47.5543C219.509 52.3736 212.251 58.9476 206.833 67.2686L210.185 69.4513ZM230.461 51.0786C239.101 46.399 248.848 44.04 259.749 44.04V40.04C248.25 40.04 237.837 42.5343 228.556 47.5614L230.461 51.0786ZM259.749 44.04C270.856 44.04 280.605 46.314 289.05 50.8057L290.928 47.2742C281.826 42.4326 271.415 40.04 259.749 40.04V44.04ZM289.079 50.8212C297.533 55.1378 304.161 61.2335 309.004 69.126L312.414 67.034C307.177 58.4998 299.992 51.9021 290.898 47.2588L289.079 50.8212ZM309.033 69.1713C314.029 76.8437 316.549 85.6973 316.549 95.8H320.549C320.549 84.996 317.842 75.3696 312.385 66.9886L309.033 69.1713ZM316.549 95.8C316.549 105.873 313.858 114.81 308.496 122.673L311.801 124.927C317.64 116.364 320.549 106.633 320.549 95.8H316.549ZM308.509 122.656C303.116 130.385 296.019 136.32 287.179 140.47L288.879 144.09C298.332 139.653 305.982 133.268 311.789 124.944L308.509 122.656ZM290.027 142.185L289.747 136.305L285.751 136.495L286.031 142.375L290.027 142.185ZM287.141 138.305C299.633 142.288 309.439 149.32 316.641 159.402L319.896 157.078C312.165 146.254 301.625 138.725 288.356 134.495L287.141 138.305ZM316.655 159.421C324.051 169.524 327.749 180.961 327.749 193.8H331.749C331.749 180.132 327.793 167.863 319.883 157.059L316.655 159.421ZM327.749 193.8C327.749 205.576 324.765 216.12 318.82 225.488L322.198 227.632C328.572 217.586 331.749 206.291 331.749 193.8H327.749ZM318.815 225.497C313.042 234.697 305.008 242.023 294.657 247.47L296.52 251.01C307.45 245.257 316.029 237.463 322.203 227.623L318.815 225.497ZM294.669 247.464C284.538 252.71 272.915 255.36 259.749 255.36V259.36C273.463 259.36 285.733 256.596 296.509 251.016L294.669 247.464ZM259.749 239.76C269.518 239.76 278.142 237.94 285.563 234.229L283.774 230.651C277.009 234.034 269.02 235.76 259.749 235.76V239.76ZM285.6 234.21C293 230.315 298.785 224.933 302.904 218.069L299.474 216.011C295.752 222.214 290.524 227.098 283.737 230.67L285.6 234.21ZM302.895 218.083C307.215 211.014 309.349 202.898 309.349 193.8H305.349C305.349 202.248 303.376 209.626 299.482 215.997L302.895 218.083ZM309.349 193.8C309.349 184.703 307.216 176.67 302.882 169.776L299.496 171.904C303.376 178.077 305.349 185.35 305.349 193.8H309.349ZM302.916 169.832C298.797 162.77 292.997 157.368 285.563 153.651L283.774 157.229C290.527 160.605 295.741 165.47 299.461 171.848L302.916 169.832ZM285.6 153.67C278.171 149.76 269.533 147.84 259.749 147.84V151.84C269.005 151.84 276.981 153.654 283.737 157.21L285.6 153.67ZM259.749 147.84C249.964 147.84 241.242 149.76 233.636 153.66L235.462 157.22C242.416 153.653 250.494 151.84 259.749 151.84V147.84ZM233.654 153.651C226.221 157.368 220.421 162.77 216.301 169.832L219.756 171.848C223.477 165.47 228.691 160.605 235.443 157.229L233.654 153.651ZM216.314 169.811C212.181 176.7 210.149 184.72 210.149 193.8H214.149C214.149 185.333 216.037 178.047 219.744 171.869L216.314 169.811ZM210.149 193.8C210.149 202.881 212.181 210.984 216.301 218.048L219.756 216.032C216.037 209.656 214.149 202.265 214.149 193.8H210.149ZM216.314 218.069C220.432 224.933 226.218 230.315 233.617 234.21L235.48 230.67C228.693 227.098 223.465 222.214 219.744 216.011L216.314 218.069ZM233.673 234.238C241.27 237.939 249.978 239.76 259.749 239.76V235.76C250.479 235.76 242.388 234.034 235.425 230.642L233.673 234.238ZM259.749 132.24C266.932 132.24 273.415 130.782 279.148 127.816L277.31 124.264C272.217 126.898 266.379 128.24 259.749 128.24V132.24ZM279.195 127.791C284.893 124.648 289.441 120.403 292.801 115.066L289.416 112.934C286.43 117.677 282.392 121.459 277.263 124.289L279.195 127.791ZM292.791 115.082C296.381 109.497 298.149 103.046 298.149 95.8H294.149C294.149 102.367 292.556 108.05 289.427 112.918L292.791 115.082ZM298.149 95.8C298.149 88.5555 296.382 82.1836 292.773 76.7706L289.445 78.9894C292.556 83.6564 294.149 89.2311 294.149 95.8H298.149ZM292.801 76.8144C289.434 71.4654 284.87 67.3033 279.148 64.3436L277.31 67.8964C282.415 70.5367 286.438 74.2146 289.416 78.9456L292.801 76.8144ZM279.195 64.3688C273.452 61.2005 266.953 59.64 259.749 59.64V63.64C266.358 63.64 272.179 65.0661 277.263 67.8712L279.195 64.3688ZM259.749 59.64C252.544 59.64 245.962 61.2008 240.048 64.3553L241.93 67.8847C247.215 65.0659 253.141 63.64 259.749 63.64V59.64ZM240.07 64.3436C234.358 67.2982 229.714 71.4469 226.165 76.7706L229.493 78.9894C232.664 74.2331 236.793 70.5418 241.908 67.8964L240.07 64.3436ZM226.136 76.8144C222.732 82.2217 221.069 88.5776 221.069 95.8H225.069C225.069 89.209 226.579 83.6183 229.521 78.9456L226.136 76.8144ZM221.069 95.8C221.069 103.024 222.732 109.459 226.119 115.038L229.538 112.962C226.579 108.087 225.069 102.389 225.069 95.8H221.069ZM226.165 115.109C229.706 120.422 234.335 124.653 240.023 127.791L241.955 124.289C236.816 121.454 232.671 117.658 229.493 112.891L226.165 115.109ZM240.094 127.829C246 130.782 252.564 132.24 259.749 132.24V128.24C253.12 128.24 247.178 126.898 241.883 124.251L240.094 127.829Z" fill="url(#paint0_linear_204_8400)" mask="url(#path-1-outside-1_204_8400)"/>
</g>
</g>
<defs>
<linearGradient id="paint0_linear_204_8400" x1="174" y1="50.129" x2="174" y2="256.968" gradientUnits="userSpaceOnUse">
<stop stop-color="white"/>
<stop offset="1" stop-color="white" stop-opacity="0"/>
</linearGradient>
<clipPath id="clip0_204_8400">
<rect width="348" height="280" fill="white"/>
</clipPath>
</defs>
</svg>
