<svg width="345" height="280" viewBox="0 0 345 280" fill="none" xmlns="http://www.w3.org/2000/svg">
<g opacity="0.4">
<mask id="path-1-outside-1_72_3658" maskUnits="userSpaceOnUse" x="18" y="40" width="311" height="220" fill="black">
<rect fill="white" x="18" y="40" width="311" height="220"/>
<path d="M103.251 257.36C86.8247 257.36 72.3581 252.88 59.8514 243.92C47.5314 234.773 37.9181 222.173 31.0114 206.12C24.1047 189.88 20.6514 171.027 20.6514 149.56C20.6514 128.093 24.1047 109.333 31.0114 93.28C37.9181 77.04 47.5314 64.44 59.8514 55.48C72.1714 46.52 86.5448 42.04 102.971 42.04C119.398 42.04 133.771 46.52 146.091 55.48C158.411 64.44 168.025 77.04 174.931 93.28C181.838 109.333 185.291 128.093 185.291 149.56C185.291 171.027 181.838 189.88 174.931 206.12C168.211 222.36 158.691 234.96 146.371 243.92C134.051 252.88 119.678 257.36 103.251 257.36ZM103.251 236.36C115.198 236.36 125.651 232.72 134.611 225.44C143.571 218.16 150.571 208.08 155.611 195.2C160.651 182.133 163.171 166.92 163.171 149.56C163.171 132.2 160.651 117.08 155.611 104.2C150.571 91.1333 143.571 81.0533 134.611 73.96C125.651 66.68 115.105 63.04 102.971 63.04C91.0247 63.04 80.5714 66.68 71.6114 73.96C62.6514 81.0533 55.6514 91.1333 50.6114 104.2C45.5714 117.08 43.0514 132.2 43.0514 149.56C43.0514 166.733 45.5714 181.853 50.6114 194.92C55.6514 207.987 62.6514 218.16 71.6114 225.44C80.7581 232.72 91.3047 236.36 103.251 236.36ZM256.53 257.36C245.703 257.36 235.623 255.493 226.29 251.76C217.143 248.027 209.116 242.707 202.21 235.8C195.303 228.893 190.076 220.68 186.53 211.16L203.61 202.76C207.903 213.587 214.903 222.173 224.61 228.52C234.503 234.68 245.143 237.76 256.53 237.76C265.676 237.76 273.796 235.613 280.89 231.32C288.17 227.027 293.863 221.24 297.97 213.96C302.076 206.493 304.13 198.187 304.13 189.04C304.13 179.52 301.983 171.12 297.69 163.84C293.583 156.56 287.983 150.867 280.89 146.76C273.796 142.467 265.77 140.32 256.81 140.32C247.663 140.32 239.17 142.467 231.33 146.76C223.676 150.867 218.076 155.907 214.53 161.88L196.89 158.52L212.57 45.4L318.13 45.4V65L220.69 65L229.37 57.44L216.77 146.48L208.09 142.56C214.623 134.533 222.276 128.84 231.05 125.48C239.823 121.933 248.783 120.16 257.93 120.16C271.37 120.16 283.223 123.333 293.49 129.68C303.756 135.84 311.783 144.147 317.57 154.6C323.543 164.867 326.53 176.347 326.53 189.04C326.53 201.92 323.45 213.587 317.29 224.04C311.316 234.307 303.01 242.427 292.37 248.4C281.916 254.373 269.97 257.36 256.53 257.36Z"/>
</mask>
<path d="M59.8514 243.92L58.6592 245.526L58.6728 245.536L58.6866 245.546L59.8514 243.92ZM31.0114 206.12L29.1709 206.903L29.1742 206.91L31.0114 206.12ZM31.0114 93.28L32.8486 94.0704L32.8519 94.0627L31.0114 93.28ZM59.8514 55.48L58.6751 53.8625H58.6751L59.8514 55.48ZM146.091 55.48L147.268 53.8625L146.091 55.48ZM174.931 93.28L173.091 94.0627L173.094 94.0704L174.931 93.28ZM174.931 206.12L173.091 205.337L173.087 205.346L173.083 205.355L174.931 206.12ZM146.371 243.92L147.548 245.537L146.371 243.92ZM134.611 225.44L135.873 226.992L134.611 225.44ZM155.611 195.2L157.474 195.929L157.477 195.92L155.611 195.2ZM155.611 104.2L153.745 104.92L153.749 104.929L155.611 104.2ZM134.611 73.96L133.35 75.5122L133.36 75.5202L133.37 75.5281L134.611 73.96ZM71.6114 73.96L72.8528 75.5281L72.8628 75.5202L72.8726 75.5122L71.6114 73.96ZM50.6114 104.2L52.4739 104.929L52.4774 104.92L50.6114 104.2ZM50.6114 194.92L48.7454 195.64L50.6114 194.92ZM71.6114 225.44L70.3502 226.992L70.358 226.999L70.3659 227.005L71.6114 225.44ZM103.251 255.36C87.2126 255.36 73.1597 250.994 61.0162 242.294L58.6866 245.546C71.5565 254.766 86.4369 259.36 103.251 259.36V255.36ZM61.0436 242.314C49.0442 233.406 39.6356 221.105 32.8486 205.33L29.1742 206.91C36.2006 223.242 46.0186 236.141 58.6592 245.526L61.0436 242.314ZM32.8519 205.337C26.0706 189.392 22.6514 170.814 22.6514 149.56H18.6514C18.6514 171.239 22.1388 190.368 29.1709 206.903L32.8519 205.337ZM22.6514 149.56C22.6514 128.305 26.0709 109.824 32.8486 94.0704L29.1742 92.4896C22.1386 108.843 18.6514 127.882 18.6514 149.56H22.6514ZM32.8519 94.0627C39.6396 78.1024 49.0444 65.8126 61.0278 57.0975L58.6751 53.8625C46.0184 63.0674 36.1965 75.9776 29.1709 92.4973L32.8519 94.0627ZM61.0278 57.0975C72.9787 48.4059 86.9324 44.04 102.971 44.04V40.04C86.1571 40.04 71.3642 44.6341 58.6751 53.8625L61.0278 57.0975ZM102.971 44.04C119.01 44.04 132.964 48.4059 144.915 57.0975L147.268 53.8625C134.579 44.6341 119.786 40.04 102.971 40.04V44.04ZM144.915 57.0975C156.898 65.8126 166.303 78.1024 173.091 94.0627L176.772 92.4973C169.746 75.9776 159.924 63.0674 147.268 53.8625L144.915 57.0975ZM173.094 94.0704C179.872 109.824 183.291 128.305 183.291 149.56H187.291C187.291 127.882 183.804 108.843 176.769 92.4896L173.094 94.0704ZM183.291 149.56C183.291 170.814 179.872 189.392 173.091 205.337L176.772 206.903C183.804 190.368 187.291 171.239 187.291 149.56H183.291ZM173.083 205.355C166.482 221.308 157.173 233.591 145.195 242.303L147.548 245.537C160.209 236.329 169.941 223.412 176.779 206.885L173.083 205.355ZM145.195 242.303C133.244 250.994 119.29 255.36 103.251 255.36V259.36C120.066 259.36 134.859 254.766 147.548 245.537L145.195 242.303ZM103.251 238.36C115.64 238.36 126.543 234.573 135.873 226.992L133.35 223.888C124.76 230.867 114.756 234.36 103.251 234.36V238.36ZM135.873 226.992C145.149 219.455 152.333 209.067 157.474 195.929L153.749 194.471C148.81 207.093 141.993 216.865 133.35 223.888L135.873 226.992ZM157.477 195.92C162.624 182.576 165.171 167.109 165.171 149.56H161.171C161.171 166.731 158.678 181.691 153.745 194.48L157.477 195.92ZM165.171 149.56C165.171 132.012 162.625 116.634 157.474 103.471L153.749 104.929C158.678 117.526 161.171 132.388 161.171 149.56H165.171ZM157.477 103.48C152.338 90.155 145.15 79.7522 135.853 72.3919L133.37 75.5281C141.993 82.3545 148.805 92.1117 153.745 104.92L157.477 103.48ZM135.873 72.4078C126.537 64.8226 115.539 61.04 102.971 61.04V65.04C114.671 65.04 124.766 68.5374 133.35 75.5122L135.873 72.4078ZM102.971 61.04C90.5827 61.04 79.68 64.8274 70.3502 72.4078L72.8726 75.5122C81.4629 68.5326 91.4668 65.04 102.971 65.04V61.04ZM70.37 72.3919C61.0728 79.7522 53.8852 90.155 48.7454 103.48L52.4774 104.92C57.4177 92.1117 64.23 82.3545 72.8528 75.5281L70.37 72.3919ZM48.7489 103.471C43.5981 116.634 41.0514 132.012 41.0514 149.56H45.0514C45.0514 132.388 47.5447 117.526 52.4739 104.929L48.7489 103.471ZM41.0514 149.56C41.0514 166.926 43.5993 182.298 48.7454 195.64L52.4774 194.2C47.5435 181.409 45.0514 166.541 45.0514 149.56H41.0514ZM48.7454 195.64C53.8843 208.963 61.0672 219.45 70.3502 226.992L72.8726 223.888C64.2356 216.87 57.4185 207.011 52.4774 194.2L48.7454 195.64ZM70.3659 227.005C79.8749 234.573 90.8631 238.36 103.251 238.36V234.36C91.7464 234.36 81.6412 230.867 72.8569 223.875L70.3659 227.005ZM226.29 251.76L225.534 253.612L225.547 253.617L226.29 251.76ZM202.21 235.8L200.795 237.214L202.21 235.8ZM186.53 211.16L185.647 209.365L184.024 210.163L184.655 211.858L186.53 211.16ZM203.61 202.76L205.469 202.023L204.67 200.01L202.727 200.965L203.61 202.76ZM224.61 228.52L223.515 230.194L223.534 230.206L223.552 230.218L224.61 228.52ZM280.89 231.32L279.874 229.597L279.864 229.603L279.854 229.609L280.89 231.32ZM297.97 213.96L299.711 214.943L299.717 214.933L299.722 214.924L297.97 213.96ZM297.69 163.84L295.948 164.823L295.957 164.839L295.967 164.856L297.69 163.84ZM280.89 146.76L279.854 148.471L279.871 148.481L279.887 148.491L280.89 146.76ZM231.33 146.76L232.275 148.522L232.283 148.518L232.29 148.514L231.33 146.76ZM214.53 161.88L214.155 163.845L215.533 164.107L216.249 162.901L214.53 161.88ZM196.89 158.52L194.908 158.245L194.647 160.129L196.515 160.485L196.89 158.52ZM212.57 45.4V43.4H210.828L210.588 45.1254L212.57 45.4ZM318.13 45.4H320.13V43.4H318.13V45.4ZM318.13 65V67H320.13V65H318.13ZM220.69 65L219.376 63.4918L215.348 67H220.69V65ZM229.37 57.44L231.35 57.7202L232.101 52.4083L228.056 55.9318L229.37 57.44ZM216.77 146.48L215.946 148.303L218.376 149.4L218.75 146.76L216.77 146.48ZM208.09 142.56L206.538 141.297L204.898 143.313L207.266 144.383L208.09 142.56ZM231.05 125.48L231.765 127.348L231.782 127.341L231.799 127.334L231.05 125.48ZM293.49 129.68L292.438 131.381L292.449 131.388L292.461 131.395L293.49 129.68ZM317.57 154.6L315.82 155.569L315.83 155.587L315.841 155.606L317.57 154.6ZM317.29 224.04L315.566 223.025L315.561 223.034L317.29 224.04ZM292.37 248.4L291.39 246.656L291.384 246.66L291.377 246.664L292.37 248.4ZM256.53 255.36C245.938 255.36 236.112 253.535 227.032 249.903L225.547 253.617C235.134 257.452 245.468 259.36 256.53 259.36V255.36ZM227.045 249.908C218.142 246.274 210.34 241.102 203.624 234.386L200.795 237.214C207.892 244.311 216.144 249.779 225.534 253.612L227.045 249.908ZM203.624 234.386C196.928 227.69 191.854 219.724 188.404 210.462L184.655 211.858C188.298 221.636 193.678 230.096 200.795 237.214L203.624 234.386ZM187.412 212.955L204.492 204.555L202.727 200.965L185.647 209.365L187.412 212.955ZM201.75 203.497C206.195 214.706 213.461 223.62 223.515 230.194L225.704 226.846C216.344 220.726 209.611 212.468 205.469 202.023L201.75 203.497ZM223.552 230.218C233.755 236.57 244.76 239.76 256.53 239.76V235.76C245.526 235.76 235.251 232.79 225.667 226.822L223.552 230.218ZM256.53 239.76C266.003 239.76 274.488 237.533 281.925 233.031L279.854 229.609C273.105 233.694 265.35 235.76 256.53 235.76V239.76ZM281.906 233.043C289.485 228.573 295.43 222.532 299.711 214.943L296.228 212.977C292.296 219.948 286.854 225.48 279.874 229.597L281.906 233.043ZM299.722 214.924C304.003 207.14 306.13 198.498 306.13 189.04H302.13C302.13 197.875 300.15 205.846 296.217 212.996L299.722 214.924ZM306.13 189.04C306.13 179.209 303.909 170.449 299.412 162.824L295.967 164.856C300.057 171.791 302.13 179.831 302.13 189.04H306.13ZM299.431 162.857C295.153 155.273 289.3 149.318 281.892 145.029L279.887 148.491C286.665 152.415 292.013 157.847 295.948 164.823L299.431 162.857ZM281.925 145.049C274.494 140.551 266.104 138.32 256.81 138.32V142.32C265.435 142.32 273.098 144.382 279.854 148.471L281.925 145.049ZM256.81 138.32C247.335 138.32 238.51 140.547 230.369 145.006L232.29 148.514C239.829 144.386 247.99 142.32 256.81 142.32V138.32ZM230.384 144.998C222.49 149.234 216.584 154.503 212.81 160.859L216.249 162.901C219.569 157.31 224.863 152.5 232.275 148.522L230.384 144.998ZM214.904 159.915L197.264 156.555L196.515 160.485L214.155 163.845L214.904 159.915ZM198.871 158.795L214.551 45.6746L210.588 45.1254L194.908 158.245L198.871 158.795ZM212.57 47.4L318.13 47.4V43.4L212.57 43.4V47.4ZM316.13 45.4V65H320.13V45.4H316.13ZM318.13 63L220.69 63V67L318.13 67V63ZM222.003 66.5082L230.683 58.9482L228.056 55.9318L219.376 63.4918L222.003 66.5082ZM227.389 57.1598L214.789 146.2L218.75 146.76L231.35 57.7202L227.389 57.1598ZM217.593 144.657L208.913 140.737L207.266 144.383L215.946 148.303L217.593 144.657ZM209.641 143.823C215.976 136.039 223.351 130.57 231.765 127.348L230.334 123.612C221.202 127.11 213.27 133.028 206.538 141.297L209.641 143.823ZM231.799 127.334C240.343 123.88 249.049 122.16 257.93 122.16V118.16C248.517 118.16 239.303 119.986 230.3 123.626L231.799 127.334ZM257.93 122.16C271.041 122.16 282.522 125.252 292.438 131.381L294.541 127.979C283.923 121.415 271.698 118.16 257.93 118.16V122.16ZM292.461 131.395C302.426 137.374 310.204 145.424 315.82 155.569L319.319 153.631C313.362 142.869 305.086 134.306 294.519 127.965L292.461 131.395ZM315.841 155.606C321.624 165.546 324.53 176.675 324.53 189.04H328.53C328.53 176.018 325.461 164.187 319.298 153.594L315.841 155.606ZM324.53 189.04C324.53 201.586 321.534 212.898 315.566 223.025L319.013 225.055C325.365 214.275 328.53 202.254 328.53 189.04H324.53ZM315.561 223.034C309.772 232.984 301.728 240.852 291.39 246.656L293.349 250.144C304.291 244.001 312.86 235.63 319.018 225.046L315.561 223.034ZM291.377 246.664C281.26 252.445 269.663 255.36 256.53 255.36V259.36C270.276 259.36 282.572 256.302 293.362 250.136L291.377 246.664Z" fill="url(#paint0_linear_72_3658)" mask="url(#path-1-outside-1_72_3658)"/>
</g>
<defs>
<linearGradient id="paint0_linear_72_3658" x1="172.5" y1="50.129" x2="172.5" y2="256.968" gradientUnits="userSpaceOnUse">
<stop stop-color="white"/>
<stop offset="1" stop-color="white" stop-opacity="0"/>
</linearGradient>
</defs>
</svg>
