<svg width="348" height="280" viewBox="0 0 348 280" fill="none" xmlns="http://www.w3.org/2000/svg">
<g opacity="0.4">
<mask id="path-1-outside-1_97_4950" maskUnits="userSpaceOnUse" x="18" y="40" width="320" height="220" fill="black">
<rect fill="white" x="18" y="40" width="320" height="220"/>
<path d="M102.837 257.36C86.4107 257.36 71.944 252.88 59.4374 243.92C47.1174 234.773 37.504 222.173 30.5973 206.12C23.6907 189.88 20.2373 171.027 20.2373 149.56C20.2373 128.093 23.6907 109.333 30.5973 93.28C37.504 77.04 47.1174 64.44 59.4374 55.48C71.7574 46.52 86.1307 42.04 102.557 42.04C118.984 42.04 133.357 46.52 145.677 55.48C157.997 64.44 167.611 77.04 174.517 93.28C181.424 109.333 184.877 128.093 184.877 149.56C184.877 171.027 181.424 189.88 174.517 206.12C167.797 222.36 158.277 234.96 145.957 243.92C133.637 252.88 119.264 257.36 102.837 257.36ZM102.837 236.36C114.784 236.36 125.237 232.72 134.197 225.44C143.157 218.16 150.157 208.08 155.197 195.2C160.237 182.133 162.757 166.92 162.757 149.56C162.757 132.2 160.237 117.08 155.197 104.2C150.157 91.1333 143.157 81.0533 134.197 73.96C125.237 66.68 114.691 63.04 102.557 63.04C90.6107 63.04 80.1574 66.68 71.1973 73.96C62.2374 81.0533 55.2374 91.1333 50.1973 104.2C45.1573 117.08 42.6373 132.2 42.6373 149.56C42.6373 166.733 45.1573 181.853 50.1973 194.92C55.2374 207.987 62.2374 218.16 71.1973 225.44C80.344 232.72 90.8907 236.36 102.837 236.36ZM290.555 254V204.72L184.435 204.72V186.52L290.555 45.4H310.155L310.155 186.52H335.635V204.72H310.155V254H290.555ZM201.515 194.64L198.995 186.52L290.555 186.52L290.555 64.72L297.555 66.68L201.515 194.64Z"/>
</mask>
<path d="M59.4374 243.92L58.2452 245.526L58.2588 245.536L58.2726 245.546L59.4374 243.92ZM30.5973 206.12L28.7569 206.903L28.7602 206.91L30.5973 206.12ZM30.5973 93.28L32.4345 94.0704L32.4378 94.0627L30.5973 93.28ZM59.4374 55.48L58.261 53.8625H58.261L59.4374 55.48ZM145.677 55.48L146.854 53.8625L145.677 55.48ZM174.517 93.28L172.677 94.0627L172.68 94.0704L174.517 93.28ZM174.517 206.12L172.677 205.337L172.673 205.346L172.669 205.355L174.517 206.12ZM145.957 243.92L147.134 245.537L145.957 243.92ZM134.197 225.44L135.459 226.992L134.197 225.44ZM155.197 195.2L157.06 195.929L157.063 195.92L155.197 195.2ZM155.197 104.2L153.331 104.92L153.335 104.929L155.197 104.2ZM134.197 73.96L132.936 75.5122L132.946 75.5202L132.956 75.5281L134.197 73.96ZM71.1973 73.96L72.4388 75.5281L72.4487 75.5202L72.4585 75.5122L71.1973 73.96ZM50.1973 104.2L52.0599 104.929L52.0634 104.92L50.1973 104.2ZM50.1973 194.92L48.3313 195.64L50.1973 194.92ZM71.1973 225.44L69.9362 226.992L69.944 226.999L69.9519 227.005L71.1973 225.44ZM102.837 255.36C86.7986 255.36 72.7456 250.994 60.6021 242.294L58.2726 245.546C71.1424 254.766 86.0228 259.36 102.837 259.36V255.36ZM60.6296 242.314C48.6302 233.406 39.2215 221.105 32.4345 205.33L28.7602 206.91C35.7865 223.242 45.6045 236.141 58.2452 245.526L60.6296 242.314ZM32.4378 205.337C25.6566 189.392 22.2373 170.814 22.2373 149.56H18.2373C18.2373 171.239 21.7248 190.368 28.7569 206.903L32.4378 205.337ZM22.2373 149.56C22.2373 128.305 25.6568 109.824 32.4345 94.0704L28.7602 92.4896C21.7245 108.843 18.2373 127.882 18.2373 149.56H22.2373ZM32.4378 94.0627C39.2256 78.1024 48.6303 65.8126 60.6137 57.0975L58.261 53.8625C45.6044 63.0674 35.7825 75.9776 28.7569 92.4973L32.4378 94.0627ZM60.6137 57.0975C72.5646 48.4059 86.5184 44.04 102.557 44.04V40.04C85.743 40.04 70.9501 44.6341 58.261 53.8625L60.6137 57.0975ZM102.557 44.04C118.596 44.04 132.55 48.4059 144.501 57.0975L146.854 53.8625C134.165 44.6341 119.372 40.04 102.557 40.04V44.04ZM144.501 57.0975C156.484 65.8126 165.889 78.1024 172.677 94.0627L176.358 92.4973C169.332 75.9776 159.51 63.0674 146.854 53.8625L144.501 57.0975ZM172.68 94.0704C179.458 109.824 182.877 128.305 182.877 149.56H186.877C186.877 127.882 183.39 108.843 176.355 92.4896L172.68 94.0704ZM182.877 149.56C182.877 170.814 179.458 189.392 172.677 205.337L176.358 206.903C183.39 190.368 186.877 171.239 186.877 149.56H182.877ZM172.669 205.355C166.068 221.308 156.759 233.591 144.781 242.303L147.134 245.537C159.795 236.329 169.526 223.412 176.365 206.885L172.669 205.355ZM144.781 242.303C132.83 250.994 118.876 255.36 102.837 255.36V259.36C119.652 259.36 134.445 254.766 147.134 245.537L144.781 242.303ZM102.837 238.36C115.226 238.36 126.129 234.573 135.459 226.992L132.936 223.888C124.346 230.867 114.342 234.36 102.837 234.36V238.36ZM135.459 226.992C144.735 219.455 151.919 209.067 157.06 195.929L153.335 194.471C148.396 207.093 141.579 216.865 132.936 223.888L135.459 226.992ZM157.063 195.92C162.21 182.576 164.757 167.109 164.757 149.56H160.757C160.757 166.731 158.264 181.691 153.331 194.48L157.063 195.92ZM164.757 149.56C164.757 132.012 162.211 116.634 157.06 103.471L153.335 104.929C158.264 117.526 160.757 132.388 160.757 149.56H164.757ZM157.063 103.48C151.924 90.155 144.736 79.7522 135.439 72.3919L132.956 75.5281C141.579 82.3545 148.391 92.1117 153.331 104.92L157.063 103.48ZM135.459 72.4078C126.123 64.8226 115.125 61.04 102.557 61.04V65.04C114.257 65.04 124.352 68.5374 132.936 75.5122L135.459 72.4078ZM102.557 61.04C90.1687 61.04 79.2659 64.8274 69.9362 72.4078L72.4585 75.5122C81.0488 68.5326 91.0527 65.04 102.557 65.04V61.04ZM69.9559 72.3919C60.6588 79.7522 53.4711 90.155 48.3313 103.48L52.0634 104.92C57.0036 92.1117 63.8159 82.3545 72.4388 75.5281L69.9559 72.3919ZM48.3349 103.471C43.1841 116.634 40.6373 132.012 40.6373 149.56H44.6373C44.6373 132.388 47.1306 117.526 52.0598 104.929L48.3349 103.471ZM40.6373 149.56C40.6373 166.926 43.1852 182.298 48.3313 195.64L52.0634 194.2C47.1294 181.409 44.6373 166.541 44.6373 149.56H40.6373ZM48.3313 195.64C53.4702 208.963 60.6532 219.45 69.9362 226.992L72.4585 223.888C63.8215 216.87 57.0045 207.011 52.0634 194.2L48.3313 195.64ZM69.9519 227.005C79.4609 234.573 90.449 238.36 102.837 238.36V234.36C91.3323 234.36 81.2272 230.867 72.4428 223.875L69.9519 227.005ZM290.555 254H288.555V256H290.555V254ZM290.555 204.72H292.555V202.72H290.555V204.72ZM184.435 204.72H182.435V206.72H184.435V204.72ZM184.435 186.52L182.837 185.318L182.435 185.852V186.52H184.435ZM290.555 45.4V43.4H289.557L288.957 44.198L290.555 45.4ZM310.155 45.4H312.155V43.4H310.155V45.4ZM310.155 186.52H308.155V188.52H310.155V186.52ZM335.635 186.52H337.635V184.52H335.635V186.52ZM335.635 204.72V206.72H337.635V204.72H335.635ZM310.155 204.72V202.72H308.155V204.72H310.155ZM310.155 254V256H312.155V254H310.155ZM201.515 194.64L199.605 195.233L200.765 198.971L203.115 195.841L201.515 194.64ZM198.995 186.52V184.52H196.281L197.085 187.113L198.995 186.52ZM290.555 186.52V188.52H292.555V186.52H290.555ZM290.555 64.72L291.095 62.7941L288.555 62.0831V64.72H290.555ZM297.555 66.68L299.155 67.8806L300.91 65.5423L298.095 64.7541L297.555 66.68ZM292.555 254V204.72H288.555V254H292.555ZM290.555 202.72L184.435 202.72V206.72L290.555 206.72V202.72ZM186.435 204.72V186.52H182.435V204.72H186.435ZM186.034 187.722L292.154 46.602L288.957 44.198L182.837 185.318L186.034 187.722ZM290.555 47.4H310.155V43.4H290.555V47.4ZM308.155 45.4L308.155 186.52H312.155L312.155 45.4H308.155ZM310.155 188.52H335.635V184.52H310.155V188.52ZM333.635 186.52V204.72H337.635V186.52H333.635ZM335.635 202.72H310.155V206.72H335.635V202.72ZM308.155 204.72V254H312.155V204.72H308.155ZM310.155 252H290.555V256H310.155V252ZM203.426 194.047L200.906 185.927L197.085 187.113L199.605 195.233L203.426 194.047ZM198.995 188.52L290.555 188.52V184.52L198.995 184.52V188.52ZM292.555 186.52L292.555 64.72H288.555L288.555 186.52H292.555ZM290.016 66.6459L297.016 68.6059L298.095 64.7541L291.095 62.7941L290.016 66.6459ZM295.956 65.4794L199.916 193.439L203.115 195.841L299.155 67.8806L295.956 65.4794Z" fill="url(#paint0_linear_97_4950)" mask="url(#path-1-outside-1_97_4950)"/>
</g>
<defs>
<linearGradient id="paint0_linear_97_4950" x1="174" y1="50.129" x2="174" y2="256.968" gradientUnits="userSpaceOnUse">
<stop stop-color="white"/>
<stop offset="1" stop-color="white" stop-opacity="0"/>
</linearGradient>
</defs>
</svg>
