<svg width="307" height="220" viewBox="0 0 307 220" fill="none" xmlns="http://www.w3.org/2000/svg">
<g opacity="0.4">
<mask id="path-1-outside-1_911_17942" maskUnits="userSpaceOnUse" x="0" y="0" width="307" height="220" fill="black">
<rect fill="white" width="307" height="220"/>
<path d="M84.9858 217.36C68.5591 217.36 54.0925 212.88 41.5858 203.92C29.2658 194.773 19.6525 182.173 12.7458 166.12C5.83912 149.88 2.38579 131.027 2.38579 109.56C2.38579 88.0933 5.83912 69.3333 12.7458 53.28C19.6525 37.04 29.2658 24.44 41.5858 15.48C53.9058 6.51999 68.2791 2.03999 84.7058 2.03999C101.132 2.03999 115.506 6.51999 127.826 15.48C140.146 24.44 149.759 37.04 156.666 53.28C163.572 69.3333 167.026 88.0933 167.026 109.56C167.026 131.027 163.572 149.88 156.666 166.12C149.946 182.36 140.426 194.96 128.106 203.92C115.786 212.88 101.412 217.36 84.9858 217.36ZM84.9858 196.36C96.9325 196.36 107.386 192.72 116.346 185.44C125.306 178.16 132.306 168.08 137.346 155.2C142.386 142.133 144.906 126.92 144.906 109.56C144.906 92.2 142.386 77.08 137.346 64.2C132.306 51.1333 125.306 41.0533 116.346 33.96C107.386 26.68 96.8391 23.04 84.7058 23.04C72.7591 23.04 62.3058 26.68 53.3458 33.96C44.3858 41.0533 37.3858 51.1333 32.3458 64.2C27.3058 77.08 24.7858 92.2 24.7858 109.56C24.7858 126.733 27.3058 141.853 32.3458 154.92C37.3858 167.987 44.3858 178.16 53.3458 185.44C62.4925 192.72 73.0391 196.36 84.9858 196.36ZM194.304 214L266.824 119.08L271.024 116.56C268.224 121.04 264.957 124.587 261.224 127.2C257.491 129.813 253.384 131.68 248.904 132.8C244.424 133.92 239.477 134.48 234.064 134.48C221.931 134.48 211.011 131.68 201.304 126.08C191.597 120.293 183.851 112.453 178.064 102.56C172.464 92.48 169.664 81 169.664 68.12C169.664 55.4267 172.557 44.1333 178.344 34.24C184.317 24.3467 192.344 16.5067 202.424 10.72C212.691 4.93333 224.171 2.03999 236.864 2.03999C249.931 2.03999 261.504 5.02666 271.584 11C281.664 16.7867 289.597 24.9067 295.384 35.36C301.171 45.6267 304.064 57.48 304.064 70.92C304.064 78.3867 303.131 85.76 301.264 93.04C299.584 100.32 296.971 107.507 293.424 114.6C289.877 121.693 285.397 128.787 279.984 135.88L221.184 214H194.304ZM236.864 114.32C245.637 114.32 253.384 112.36 260.104 108.44C266.824 104.333 272.051 98.8267 275.784 91.92C279.704 84.8267 281.664 76.8933 281.664 68.12C281.664 59.16 279.704 51.2267 275.784 44.32C271.864 37.2267 266.544 31.72 259.824 27.8C253.104 23.6933 245.451 21.64 236.864 21.64C228.277 21.64 220.624 23.6933 213.904 27.8C207.184 31.72 201.864 37.2267 197.944 44.32C194.024 51.2267 192.064 59.16 192.064 68.12C192.064 76.8933 193.931 84.8267 197.664 91.92C201.584 98.8267 206.904 104.333 213.624 108.44C220.531 112.36 228.277 114.32 236.864 114.32Z"/>
</mask>
<path d="M41.5858 203.92L40.3936 205.526L40.4072 205.536L40.421 205.546L41.5858 203.92ZM12.7458 166.12L10.9053 166.903L10.9086 166.91L12.7458 166.12ZM12.7458 53.28L14.583 54.0704L14.5863 54.0627L12.7458 53.28ZM41.5858 15.48L40.4094 13.8625H40.4094L41.5858 15.48ZM127.826 15.48L129.002 13.8625L127.826 15.48ZM156.666 53.28L154.825 54.0627L154.829 54.0704L156.666 53.28ZM156.666 166.12L154.825 165.337L154.821 165.346L154.818 165.355L156.666 166.12ZM128.106 203.92L129.282 205.537L128.106 203.92ZM116.346 185.44L117.607 186.992L116.346 185.44ZM137.346 155.2L139.208 155.929L139.212 155.92L137.346 155.2ZM137.346 64.2L135.48 64.9197L135.483 64.9288L137.346 64.2ZM116.346 33.96L115.085 35.5122L115.094 35.5202L115.104 35.5281L116.346 33.96ZM53.3458 33.96L54.5872 35.5281L54.5971 35.5202L54.607 35.5122L53.3458 33.96ZM32.3458 64.2L34.2083 64.9288L34.2118 64.9197L32.3458 64.2ZM32.3458 154.92L30.4798 155.64L32.3458 154.92ZM53.3458 185.44L52.0846 186.992L52.0924 186.999L52.1003 187.005L53.3458 185.44ZM84.9858 217.36V215.36C68.947 215.36 54.894 210.994 42.7506 202.294L41.5858 203.92L40.421 205.546C53.2909 214.766 68.1713 219.36 84.9858 219.36V217.36ZM41.5858 203.92L42.778 202.314C30.7786 193.406 21.37 181.105 14.583 165.33L12.7458 166.12L10.9086 166.91C17.9349 183.242 27.753 196.141 40.3936 205.526L41.5858 203.92ZM12.7458 166.12L14.5863 165.337C7.80502 149.392 4.38579 130.814 4.38579 109.56H2.38579H0.385786C0.385786 131.239 3.87322 150.368 10.9053 166.903L12.7458 166.12ZM2.38579 109.56H4.38579C4.38579 88.3047 7.80526 69.824 14.583 54.0704L12.7458 53.28L10.9086 52.4896C3.87297 68.8427 0.385786 87.8819 0.385786 109.56H2.38579ZM12.7458 53.28L14.5863 54.0627C21.374 38.1024 30.7788 25.8126 42.7621 17.0975L41.5858 15.48L40.4094 13.8625C27.7528 23.0674 17.9309 35.9776 10.9053 52.4973L12.7458 53.28ZM41.5858 15.48L42.7621 17.0975C54.713 8.4059 68.6668 4.03999 84.7058 4.03999V2.03999V0.0399933C67.8914 0.0399933 53.0985 4.63408 40.4094 13.8625L41.5858 15.48ZM84.7058 2.03999V4.03999C100.745 4.03999 114.699 8.4059 126.649 17.0975L127.826 15.48L129.002 13.8625C116.313 4.63408 101.52 0.0399933 84.7058 0.0399933V2.03999ZM127.826 15.48L126.649 17.0975C138.633 25.8126 148.038 38.1024 154.825 54.0627L156.666 53.28L158.506 52.4973C151.481 35.9776 141.659 23.0674 129.002 13.8625L127.826 15.48ZM156.666 53.28L154.829 54.0704C161.606 69.824 165.026 88.3047 165.026 109.56H167.026H169.026C169.026 87.8819 165.539 68.8427 158.503 52.4896L156.666 53.28ZM167.026 109.56H165.026C165.026 130.814 161.607 149.392 154.825 165.337L156.666 166.12L158.506 166.903C165.538 150.368 169.026 131.239 169.026 109.56H167.026ZM156.666 166.12L154.818 165.355C148.217 181.308 138.908 193.591 126.929 202.303L128.106 203.92L129.282 205.537C141.944 196.329 151.675 183.412 158.514 166.885L156.666 166.12ZM128.106 203.92L126.929 202.303C114.979 210.994 101.025 215.36 84.9858 215.36V217.36V219.36C101.8 219.36 116.593 214.766 129.282 205.537L128.106 203.92ZM84.9858 196.36V198.36C97.3745 198.36 108.277 194.573 117.607 186.992L116.346 185.44L115.085 183.888C106.494 190.867 96.4905 194.36 84.9858 194.36V196.36ZM116.346 185.44L117.607 186.992C126.884 179.455 134.067 169.067 139.208 155.929L137.346 155.2L135.483 154.471C130.544 167.093 123.728 176.865 115.085 183.888L116.346 185.44ZM137.346 155.2L139.212 155.92C144.359 142.576 146.906 127.109 146.906 109.56H144.906H142.906C142.906 126.731 140.413 141.691 135.48 154.48L137.346 155.2ZM144.906 109.56H146.906C146.906 92.0118 144.359 76.6343 139.208 63.4712L137.346 64.2L135.483 64.9288C140.413 77.5257 142.906 92.3882 142.906 109.56H144.906ZM137.346 64.2L139.212 63.4802C134.072 50.155 126.884 39.7522 117.587 32.3919L116.346 33.96L115.104 35.5281C123.727 42.3545 130.54 52.1117 135.48 64.9197L137.346 64.2ZM116.346 33.96L117.607 32.4078C108.271 24.8226 97.2732 21.04 84.7058 21.04V23.04V25.04C96.4051 25.04 106.5 28.5374 115.085 35.5122L116.346 33.96ZM84.7058 23.04V21.04C72.3171 21.04 61.4143 24.8274 52.0846 32.4078L53.3458 33.96L54.607 35.5122C63.1972 28.5326 73.2011 25.04 84.7058 25.04V23.04ZM53.3458 33.96L52.1044 32.3919C42.8072 39.7522 35.6195 50.155 30.4798 63.4802L32.3458 64.2L34.2118 64.9197C39.1521 52.1117 45.9644 42.3545 54.5872 35.5281L53.3458 33.96ZM32.3458 64.2L30.4833 63.4712C25.3325 76.6343 22.7858 92.0118 22.7858 109.56H24.7858H26.7858C26.7858 92.3882 29.2791 77.5257 34.2083 64.9288L32.3458 64.2ZM24.7858 109.56H22.7858C22.7858 126.926 25.3337 142.298 30.4798 155.64L32.3458 154.92L34.2118 154.2C29.2779 141.409 26.7858 126.541 26.7858 109.56H24.7858ZM32.3458 154.92L30.4798 155.64C35.6187 168.963 42.8016 179.45 52.0846 186.992L53.3458 185.44L54.607 183.888C45.97 176.87 39.1529 167.011 34.2118 154.2L32.3458 154.92ZM53.3458 185.44L52.1003 187.005C61.6093 194.573 72.5975 198.36 84.9858 198.36V196.36V194.36C73.4808 194.36 63.3756 190.867 54.5913 183.875L53.3458 185.44ZM194.304 214L192.715 212.786L190.259 216H194.304V214ZM266.824 119.08L265.795 117.365L265.467 117.562L265.235 117.866L266.824 119.08ZM271.024 116.56L272.72 117.62L269.995 114.845L271.024 116.56ZM261.224 127.2L260.077 125.562L261.224 127.2ZM248.904 132.8L248.419 130.86L248.904 132.8ZM201.304 126.08L200.28 127.798L200.292 127.805L200.304 127.812L201.304 126.08ZM178.064 102.56L176.316 103.531L176.326 103.551L176.338 103.57L178.064 102.56ZM178.344 34.24L176.632 33.2063L176.625 33.2182L176.618 33.2302L178.344 34.24ZM202.424 10.72L201.442 8.97769L201.435 8.98156L201.428 8.98549L202.424 10.72ZM271.584 11L270.564 12.7206L270.576 12.7276L270.588 12.7345L271.584 11ZM295.384 35.36L293.634 36.3286L293.638 36.3353L293.642 36.342L295.384 35.36ZM301.264 93.04L299.327 92.5432L299.321 92.5667L299.315 92.5903L301.264 93.04ZM293.424 114.6L291.635 113.706L293.424 114.6ZM279.984 135.88L278.394 134.667L278.386 134.677L279.984 135.88ZM221.184 214V216H222.182L222.782 215.203L221.184 214ZM260.104 108.44L261.112 110.168L261.129 110.157L261.147 110.147L260.104 108.44ZM275.784 91.92L274.033 90.9526L274.029 90.9608L274.025 90.969L275.784 91.92ZM275.784 44.32L274.033 45.2874L274.039 45.2973L274.045 45.3072L275.784 44.32ZM259.824 27.8L258.781 29.5066L258.798 29.5172L258.816 29.5275L259.824 27.8ZM213.904 27.8L214.912 29.5275L214.929 29.5172L214.947 29.5066L213.904 27.8ZM197.944 44.32L199.683 45.3072L199.689 45.2973L199.694 45.2874L197.944 44.32ZM197.664 91.92L195.894 92.8515L195.909 92.8796L195.925 92.9072L197.664 91.92ZM213.624 108.44L212.581 110.147L212.609 110.163L212.637 110.179L213.624 108.44ZM194.304 214L195.893 215.214L268.413 120.294L266.824 119.08L265.235 117.866L192.715 212.786L194.304 214ZM266.824 119.08L267.853 120.795L272.053 118.275L271.024 116.56L269.995 114.845L265.795 117.365L266.824 119.08ZM271.024 116.56L269.328 115.5C266.648 119.788 263.558 123.125 260.077 125.562L261.224 127.2L262.371 128.838C266.356 126.049 269.8 122.292 272.72 117.62L271.024 116.56ZM261.224 127.2L260.077 125.562C256.547 128.033 252.665 129.798 248.419 130.86L248.904 132.8L249.389 134.74C254.103 133.562 258.434 131.594 262.371 128.838L261.224 127.2ZM248.904 132.8L248.419 130.86C244.122 131.934 239.341 132.48 234.064 132.48V134.48V136.48C239.613 136.48 244.726 135.906 249.389 134.74L248.904 132.8ZM234.064 134.48V132.48C222.251 132.48 211.681 129.758 202.303 124.348L201.304 126.08L200.304 127.812C210.34 133.602 221.61 136.48 234.064 136.48V134.48ZM201.304 126.08L202.328 124.362C192.916 118.751 185.409 111.156 179.79 101.55L178.064 102.56L176.338 103.57C182.292 113.75 190.279 121.836 200.28 127.798L201.304 126.08ZM178.064 102.56L179.812 101.589C174.396 91.8393 171.664 80.7006 171.664 68.12H169.664H167.664C167.664 81.2994 170.532 93.1206 176.316 103.531L178.064 102.56ZM169.664 68.12H171.664C171.664 55.7424 174.482 44.8046 180.07 35.2498L178.344 34.24L176.618 33.2302C170.633 43.462 167.664 55.1109 167.664 68.12H169.664ZM178.344 34.24L180.056 35.2737C185.853 25.6727 193.632 18.0732 203.42 12.4545L202.424 10.72L201.428 8.98549C191.056 14.9401 182.782 23.0206 176.632 33.2063L178.344 34.24ZM202.424 10.72L203.406 12.4623C213.35 6.8575 224.487 4.03999 236.864 4.03999V2.03999V0.0399933C223.854 0.0399933 212.031 3.00915 201.442 8.97769L202.424 10.72ZM236.864 2.03999V4.03999C249.614 4.03999 260.827 6.95061 270.564 12.7206L271.584 11L272.604 9.27941C262.18 3.10271 250.247 0.0399933 236.864 0.0399933V2.03999ZM271.584 11L270.588 12.7345C280.342 18.3342 288.019 26.1852 293.634 36.3286L295.384 35.36L297.134 34.3914C291.175 23.6281 282.985 15.2391 272.58 9.26549L271.584 11ZM295.384 35.36L293.642 36.342C299.237 46.269 302.064 57.775 302.064 70.92H304.064H306.064C306.064 57.1849 303.104 44.9844 297.126 34.378L295.384 35.36ZM304.064 70.92H302.064C302.064 78.218 301.152 85.4245 299.327 92.5432L301.264 93.04L303.201 93.5367C305.109 86.0955 306.064 78.5553 306.064 70.92H304.064ZM301.264 93.04L299.315 92.5903C297.673 99.7071 295.115 106.745 291.635 113.706L293.424 114.6L295.213 115.494C298.826 108.268 301.495 100.933 303.213 93.4897L301.264 93.04ZM293.424 114.6L291.635 113.706C288.151 120.674 283.74 127.661 278.394 134.667L279.984 135.88L281.574 137.093C287.054 129.912 291.603 122.713 295.213 115.494L293.424 114.6ZM279.984 135.88L278.386 134.677L219.586 212.797L221.184 214L222.782 215.203L281.582 137.083L279.984 135.88ZM221.184 214V212H194.304V214V216H221.184V214ZM236.864 114.32V116.32C245.945 116.32 254.048 114.288 261.112 110.168L260.104 108.44L259.096 106.712C252.72 110.432 245.329 112.32 236.864 112.32V114.32ZM260.104 108.44L261.147 110.147C268.167 105.856 273.642 100.089 277.543 92.871L275.784 91.92L274.025 90.969C270.46 97.5639 265.481 102.81 259.061 106.733L260.104 108.44ZM275.784 91.92L277.534 92.8874C281.631 85.4737 283.664 77.203 283.664 68.12H281.664H279.664C279.664 76.5837 277.776 84.1796 274.033 90.9526L275.784 91.92ZM281.664 68.12H283.664C283.664 58.8591 281.635 50.5774 277.523 43.3328L275.784 44.32L274.045 45.3072C277.773 51.8759 279.664 59.4609 279.664 68.12H281.664ZM275.784 44.32L277.534 43.3526C273.448 35.9573 267.877 30.182 260.832 26.0724L259.824 27.8L258.816 29.5275C265.211 33.258 270.28 38.496 274.033 45.2874L275.784 44.32ZM259.824 27.8L260.867 26.0934C253.805 21.7777 245.784 19.64 236.864 19.64V21.64V23.64C245.117 23.64 252.403 25.609 258.781 29.5066L259.824 27.8ZM236.864 21.64V19.64C227.944 19.64 219.923 21.7777 212.861 26.0934L213.904 27.8L214.947 29.5066C221.325 25.609 228.611 23.64 236.864 23.64V21.64ZM213.904 27.8L212.896 26.0724C205.851 30.182 200.28 35.9573 196.193 43.3526L197.944 44.32L199.694 45.2874C203.448 38.496 208.517 33.258 214.912 29.5275L213.904 27.8ZM197.944 44.32L196.205 43.3328C192.093 50.5774 190.064 58.8591 190.064 68.12H192.064H194.064C194.064 59.4609 195.955 51.8759 199.683 45.3072L197.944 44.32ZM192.064 68.12H190.064C190.064 77.1866 191.996 85.4444 195.894 92.8515L197.664 91.92L199.434 90.9885C195.866 84.2089 194.064 76.6001 194.064 68.12H192.064ZM197.664 91.92L195.925 92.9072C200.01 100.106 205.569 105.861 212.581 110.147L213.624 108.44L214.667 106.733C208.239 102.805 203.157 97.5471 199.403 90.9328L197.664 91.92ZM213.624 108.44L212.637 110.179C219.869 114.284 227.96 116.32 236.864 116.32V114.32V112.32C228.594 112.32 221.193 110.436 214.611 106.701L213.624 108.44Z" fill="url(#paint0_linear_911_17942)" mask="url(#path-1-outside-1_911_17942)"/>
</g>
<defs>
<linearGradient id="paint0_linear_911_17942" x1="151.5" y1="10.129" x2="151.5" y2="216.968" gradientUnits="userSpaceOnUse">
<stop stop-color="white"/>
<stop offset="1" stop-color="white" stop-opacity="0"/>
</linearGradient>
</defs>
</svg>
