<svg width="324" height="280" viewBox="0 0 324 280" fill="none" xmlns="http://www.w3.org/2000/svg">
<g opacity="0.4">
<mask id="path-1-outside-1_74_3659" maskUnits="userSpaceOnUse" x="18" y="40" width="296" height="220" fill="black">
<rect fill="white" x="18" y="40" width="296" height="220"/>
<path d="M103.005 257.36C86.5787 257.36 72.112 252.88 59.6053 243.92C47.2853 234.773 37.672 222.173 30.7653 206.12C23.8587 189.88 20.4053 171.027 20.4053 149.56C20.4053 128.093 23.8587 109.333 30.7653 93.28C37.672 77.04 47.2853 64.44 59.6053 55.48C71.9253 46.52 86.2987 42.04 102.725 42.04C119.152 42.04 133.525 46.52 145.845 55.48C158.165 64.44 167.779 77.04 174.685 93.28C181.592 109.333 185.045 128.093 185.045 149.56C185.045 171.027 181.592 189.88 174.685 206.12C167.965 222.36 158.445 234.96 146.125 243.92C133.805 252.88 119.432 257.36 103.005 257.36ZM103.005 236.36C114.952 236.36 125.405 232.72 134.365 225.44C143.325 218.16 150.325 208.08 155.365 195.2C160.405 182.133 162.925 166.92 162.925 149.56C162.925 132.2 160.405 117.08 155.365 104.2C150.325 91.1333 143.325 81.0533 134.365 73.96C125.405 66.68 114.859 63.04 102.725 63.04C90.7787 63.04 80.3253 66.68 71.3653 73.96C62.4053 81.0533 55.4053 91.1333 50.3653 104.2C45.3253 117.08 42.8053 132.2 42.8053 149.56C42.8053 166.733 45.3253 181.853 50.3653 194.92C55.4053 207.987 62.4053 218.16 71.3653 225.44C80.512 232.72 91.0587 236.36 103.005 236.36ZM193.843 254L287.923 65L183.763 65V45.4L311.163 45.4V65L217.363 254H193.843Z"/>
</mask>
<path d="M59.6053 243.92L58.4131 245.526L58.4268 245.536L58.4405 245.546L59.6053 243.92ZM30.7653 206.12L28.9248 206.903L28.9281 206.91L30.7653 206.12ZM30.7653 93.28L32.6025 94.0704L32.6058 94.0627L30.7653 93.28ZM59.6053 55.48L58.429 53.8625H58.429L59.6053 55.48ZM145.845 55.48L147.022 53.8625L145.845 55.48ZM174.685 93.28L172.845 94.0627L172.848 94.0704L174.685 93.28ZM174.685 206.12L172.845 205.337L172.841 205.346L172.837 205.355L174.685 206.12ZM146.125 243.92L147.302 245.537L146.125 243.92ZM134.365 225.44L135.627 226.992L134.365 225.44ZM155.365 195.2L157.228 195.929L157.231 195.92L155.365 195.2ZM155.365 104.2L153.499 104.92L153.503 104.929L155.365 104.2ZM134.365 73.96L133.104 75.5122L133.114 75.5202L133.124 75.5281L134.365 73.96ZM71.3653 73.96L72.6067 75.5281L72.6167 75.5202L72.6265 75.5122L71.3653 73.96ZM50.3653 104.2L52.2278 104.929L52.2313 104.92L50.3653 104.2ZM50.3653 194.92L48.4993 195.64L50.3653 194.92ZM71.3653 225.44L70.1041 226.992L70.1119 226.999L70.1198 227.005L71.3653 225.44ZM103.005 255.36C86.9665 255.36 72.9136 250.994 60.7701 242.294L58.4405 245.546C71.3104 254.766 86.1908 259.36 103.005 259.36V255.36ZM60.7975 242.314C48.7981 233.406 39.3895 221.105 32.6025 205.33L28.9281 206.91C35.9545 223.242 45.7725 236.141 58.4131 245.526L60.7975 242.314ZM32.6058 205.337C25.8245 189.392 22.4053 170.814 22.4053 149.56H18.4053C18.4053 171.239 21.8928 190.368 28.9248 206.903L32.6058 205.337ZM22.4053 149.56C22.4053 128.305 25.8248 109.824 32.6025 94.0704L28.9281 92.4896C21.8925 108.843 18.4053 127.882 18.4053 149.56H22.4053ZM32.6058 94.0627C39.3935 78.1024 48.7983 65.8126 60.7817 57.0975L58.429 53.8625C45.7723 63.0674 35.9504 75.9776 28.9248 92.4973L32.6058 94.0627ZM60.7817 57.0975C72.7326 48.4059 86.6863 44.04 102.725 44.04V40.04C85.911 40.04 71.1181 44.6341 58.429 53.8625L60.7817 57.0975ZM102.725 44.04C118.764 44.04 132.718 48.4059 144.669 57.0975L147.022 53.8625C134.333 44.6341 119.54 40.04 102.725 40.04V44.04ZM144.669 57.0975C156.652 65.8126 166.057 78.1024 172.845 94.0627L176.526 92.4973C169.5 75.9776 159.678 63.0674 147.022 53.8625L144.669 57.0975ZM172.848 94.0704C179.626 109.824 183.045 128.305 183.045 149.56H187.045C187.045 127.882 183.558 108.843 176.523 92.4896L172.848 94.0704ZM183.045 149.56C183.045 170.814 179.626 189.392 172.845 205.337L176.526 206.903C183.558 190.368 187.045 171.239 187.045 149.56H183.045ZM172.837 205.355C166.236 221.308 156.927 233.591 144.949 242.303L147.302 245.537C159.963 236.329 169.694 223.412 176.533 206.885L172.837 205.355ZM144.949 242.303C132.998 250.994 119.044 255.36 103.005 255.36V259.36C119.82 259.36 134.613 254.766 147.302 245.537L144.949 242.303ZM103.005 238.36C115.394 238.36 126.297 234.573 135.627 226.992L133.104 223.888C124.514 230.867 114.51 234.36 103.005 234.36V238.36ZM135.627 226.992C144.903 219.455 152.087 209.067 157.228 195.929L153.503 194.471C148.564 207.093 141.747 216.865 133.104 223.888L135.627 226.992ZM157.231 195.92C162.378 182.576 164.925 167.109 164.925 149.56H160.925C160.925 166.731 158.432 181.691 153.499 194.48L157.231 195.92ZM164.925 149.56C164.925 132.012 162.379 116.634 157.228 103.471L153.503 104.929C158.432 117.526 160.925 132.388 160.925 149.56H164.925ZM157.231 103.48C152.092 90.155 144.904 79.7522 135.607 72.3919L133.124 75.5281C141.747 82.3545 148.559 92.1117 153.499 104.92L157.231 103.48ZM135.627 72.4078C126.291 64.8226 115.293 61.04 102.725 61.04V65.04C114.425 65.04 124.52 68.5374 133.104 75.5122L135.627 72.4078ZM102.725 61.04C90.3366 61.04 79.4339 64.8274 70.1041 72.4078L72.6265 75.5122C81.2168 68.5326 91.2207 65.04 102.725 65.04V61.04ZM70.1239 72.3919C60.8267 79.7522 53.6391 90.155 48.4993 103.48L52.2313 104.92C57.1716 92.1117 63.9839 82.3545 72.6067 75.5281L70.1239 72.3919ZM48.5028 103.471C43.352 116.634 40.8053 132.012 40.8053 149.56H44.8053C44.8053 132.388 47.2986 117.526 52.2278 104.929L48.5028 103.471ZM40.8053 149.56C40.8053 166.926 43.3532 182.298 48.4993 195.64L52.2313 194.2C47.2974 181.409 44.8053 166.541 44.8053 149.56H40.8053ZM48.4993 195.64C53.6382 208.963 60.8211 219.45 70.1041 226.992L72.6265 223.888C63.9895 216.87 57.1724 207.011 52.2313 194.2L48.4993 195.64ZM70.1198 227.005C79.6288 234.573 90.617 238.36 103.005 238.36V234.36C91.5003 234.36 81.3951 230.867 72.6108 223.875L70.1198 227.005ZM193.843 254L192.053 253.109L190.614 256H193.843V254ZM287.923 65L289.714 65.8912L291.153 63H287.923V65ZM183.763 65H181.763V67H183.763V65ZM183.763 45.4V43.4H181.763V45.4H183.763ZM311.163 45.4H313.163V43.4H311.163V45.4ZM311.163 65L312.955 65.8891L313.163 65.469V65H311.163ZM217.363 254V256H218.604L219.155 254.889L217.363 254ZM195.634 254.891L289.714 65.8912L286.133 64.1088L192.053 253.109L195.634 254.891ZM287.923 63L183.763 63V67L287.923 67V63ZM185.763 65V45.4H181.763V65H185.763ZM183.763 47.4L311.163 47.4V43.4L183.763 43.4V47.4ZM309.163 45.4V65L313.163 65V45.4H309.163ZM309.372 64.1109L215.572 253.111L219.155 254.889L312.955 65.8891L309.372 64.1109ZM217.363 252H193.843V256H217.363V252Z" fill="url(#paint0_linear_74_3659)" mask="url(#path-1-outside-1_74_3659)"/>
</g>
<defs>
<linearGradient id="paint0_linear_74_3659" x1="162" y1="50.129" x2="162" y2="256.968" gradientUnits="userSpaceOnUse">
<stop stop-color="white"/>
<stop offset="1" stop-color="white" stop-opacity="0"/>
</linearGradient>
</defs>
</svg>
