<svg width="339" height="280" viewBox="0 0 339 280" fill="none" xmlns="http://www.w3.org/2000/svg">
<g opacity="0.4">
<mask id="path-1-outside-1_71_3657" maskUnits="userSpaceOnUse" x="18" y="40" width="307" height="220" fill="black">
<rect fill="white" x="18" y="40" width="307" height="220"/>
<path d="M102.986 257.36C86.5591 257.36 72.0925 252.88 59.5858 243.92C47.2658 234.773 37.6525 222.173 30.7458 206.12C23.8391 189.88 20.3858 171.027 20.3858 149.56C20.3858 128.093 23.8391 109.333 30.7458 93.28C37.6525 77.04 47.2658 64.44 59.5858 55.48C71.9058 46.52 86.2791 42.04 102.706 42.04C119.132 42.04 133.506 46.52 145.826 55.48C158.146 64.44 167.759 77.04 174.666 93.28C181.572 109.333 185.026 128.093 185.026 149.56C185.026 171.027 181.572 189.88 174.666 206.12C167.946 222.36 158.426 234.96 146.106 243.92C133.786 252.88 119.412 257.36 102.986 257.36ZM102.986 236.36C114.932 236.36 125.386 232.72 134.346 225.44C143.306 218.16 150.306 208.08 155.346 195.2C160.386 182.133 162.906 166.92 162.906 149.56C162.906 132.2 160.386 117.08 155.346 104.2C150.306 91.1333 143.306 81.0533 134.346 73.96C125.386 66.68 114.839 63.04 102.706 63.04C90.7591 63.04 80.3058 66.68 71.3458 73.96C62.3858 81.0533 55.3858 91.1333 50.3458 104.2C45.3058 117.08 42.7858 132.2 42.7858 149.56C42.7858 166.733 45.3058 181.853 50.3458 194.92C55.3858 207.987 62.3858 218.16 71.3458 225.44C80.4925 232.72 91.0391 236.36 102.986 236.36ZM255.704 257.36C242.637 257.36 231.064 254.467 220.984 248.68C210.904 242.707 202.971 234.587 197.184 224.32C191.397 213.867 188.504 201.92 188.504 188.48C188.504 181.013 189.344 173.64 191.024 166.36C192.891 159.08 195.597 151.893 199.144 144.8C202.877 137.707 207.357 130.613 212.584 123.52L271.384 45.4L298.264 45.4L225.744 140.32L221.544 142.84C224.344 138.173 227.611 134.627 231.344 132.2C235.077 129.587 239.184 127.72 243.664 126.6C248.331 125.48 253.277 124.92 258.504 124.92C270.637 124.92 281.557 127.813 291.264 133.6C300.971 139.2 308.624 146.947 314.224 156.84C320.011 166.733 322.904 178.213 322.904 191.28C322.904 203.787 319.917 215.08 313.944 225.16C308.157 235.053 300.224 242.893 290.144 248.68C280.064 254.467 268.584 257.36 255.704 257.36ZM255.704 237.76C264.291 237.76 271.944 235.8 278.664 231.88C285.384 227.773 290.704 222.173 294.624 215.08C298.544 207.987 300.504 200.053 300.504 191.28C300.504 182.32 298.544 174.387 294.624 167.48C290.891 160.573 285.664 155.16 278.944 151.24C272.224 147.133 264.477 145.08 255.704 145.08C247.117 145.08 239.371 147.133 232.464 151.24C225.744 155.16 220.424 160.573 216.504 167.48C212.771 174.387 210.904 182.32 210.904 191.28C210.904 200.053 212.864 207.987 216.784 215.08C220.704 222.173 226.024 227.773 232.744 231.88C239.464 235.8 247.117 237.76 255.704 237.76Z"/>
</mask>
<path d="M59.5858 243.92L58.3936 245.526L58.4072 245.536L58.421 245.546L59.5858 243.92ZM30.7458 206.12L28.9053 206.903L28.9086 206.91L30.7458 206.12ZM30.7458 93.28L32.583 94.0704L32.5863 94.0627L30.7458 93.28ZM59.5858 55.48L58.4094 53.8625L58.4094 53.8625L59.5858 55.48ZM145.826 55.48L147.002 53.8625L147.002 53.8625L145.826 55.48ZM174.666 93.28L172.825 94.0627L172.829 94.0704L174.666 93.28ZM174.666 206.12L172.825 205.337L172.821 205.346L172.818 205.355L174.666 206.12ZM146.106 243.92L147.282 245.537L147.282 245.537L146.106 243.92ZM134.346 225.44L135.607 226.992L135.607 226.992L134.346 225.44ZM155.346 195.2L157.208 195.929L157.212 195.92L155.346 195.2ZM155.346 104.2L153.48 104.92L153.483 104.929L155.346 104.2ZM134.346 73.96L133.085 75.5122L133.094 75.5202L133.104 75.5281L134.346 73.96ZM71.3458 73.96L72.5872 75.5281L72.5971 75.5202L72.607 75.5122L71.3458 73.96ZM50.3458 104.2L52.2083 104.929L52.2118 104.92L50.3458 104.2ZM50.3458 194.92L48.4798 195.64L48.4798 195.64L50.3458 194.92ZM71.3458 225.44L70.0846 226.992L70.0924 226.999L70.1003 227.005L71.3458 225.44ZM102.986 255.36C86.947 255.36 72.894 250.994 60.7506 242.294L58.421 245.546C71.2909 254.766 86.1713 259.36 102.986 259.36V255.36ZM60.778 242.314C48.7786 233.406 39.37 221.105 32.583 205.33L28.9086 206.91C35.9349 223.242 45.753 236.141 58.3936 245.526L60.778 242.314ZM32.5863 205.337C25.805 189.392 22.3858 170.814 22.3858 149.56H18.3858C18.3858 171.239 21.8732 190.368 28.9053 206.903L32.5863 205.337ZM22.3858 149.56C22.3858 128.305 25.8053 109.824 32.583 94.0704L28.9086 92.4896C21.873 108.843 18.3858 127.882 18.3858 149.56H22.3858ZM32.5863 94.0627C39.374 78.1024 48.7788 65.8126 60.7621 57.0975L58.4094 53.8625C45.7528 63.0674 35.9309 75.9776 28.9053 92.4973L32.5863 94.0627ZM60.7621 57.0975C72.713 48.4059 86.6668 44.04 102.706 44.04V40.04C85.8914 40.04 71.0986 44.6341 58.4094 53.8625L60.7621 57.0975ZM102.706 44.04C118.745 44.04 132.699 48.4059 144.649 57.0975L147.002 53.8625C134.313 44.6341 119.52 40.04 102.706 40.04V44.04ZM144.649 57.0975C156.633 65.8126 166.038 78.1024 172.825 94.0627L176.506 92.4973C169.481 75.9776 159.659 63.0674 147.002 53.8625L144.649 57.0975ZM172.829 94.0704C179.606 109.824 183.026 128.305 183.026 149.56H187.026C187.026 127.882 183.539 108.843 176.503 92.4896L172.829 94.0704ZM183.026 149.56C183.026 170.814 179.607 189.392 172.825 205.337L176.506 206.903C183.538 190.368 187.026 171.239 187.026 149.56H183.026ZM172.818 205.355C166.217 221.308 156.908 233.591 144.929 242.303L147.282 245.537C159.944 236.329 169.675 223.412 176.514 206.885L172.818 205.355ZM144.929 242.303C132.979 250.994 119.025 255.36 102.986 255.36V259.36C119.8 259.36 134.593 254.766 147.282 245.537L144.929 242.303ZM102.986 238.36C115.374 238.36 126.277 234.573 135.607 226.992L133.085 223.888C124.494 230.867 114.49 234.36 102.986 234.36V238.36ZM135.607 226.992C144.884 219.455 152.067 209.067 157.208 195.929L153.483 194.471C148.544 207.093 141.728 216.865 133.085 223.888L135.607 226.992ZM157.212 195.92C162.359 182.576 164.906 167.109 164.906 149.56H160.906C160.906 166.731 158.413 181.691 153.48 194.48L157.212 195.92ZM164.906 149.56C164.906 132.012 162.359 116.634 157.208 103.471L153.483 104.929C158.413 117.526 160.906 132.388 160.906 149.56H164.906ZM157.212 103.48C152.072 90.155 144.884 79.7522 135.587 72.3919L133.104 75.5281C141.727 82.3545 148.54 92.1117 153.48 104.92L157.212 103.48ZM135.607 72.4078C126.271 64.8226 115.273 61.04 102.706 61.04V65.04C114.405 65.04 124.5 68.5374 133.085 75.5122L135.607 72.4078ZM102.706 61.04C90.3171 61.04 79.4143 64.8274 70.0846 72.4078L72.607 75.5122C81.1972 68.5326 91.2011 65.04 102.706 65.04V61.04ZM70.1044 72.3919C60.8072 79.7522 53.6195 90.155 48.4798 103.48L52.2118 104.92C57.152 92.1117 63.9644 82.3545 72.5872 75.5281L70.1044 72.3919ZM48.4833 103.471C43.3325 116.634 40.7858 132.012 40.7858 149.56H44.7858C44.7858 132.388 47.2791 117.526 52.2083 104.929L48.4833 103.471ZM40.7858 149.56C40.7858 166.926 43.3337 182.298 48.4798 195.64L52.2118 194.2C47.2779 181.409 44.7858 166.541 44.7858 149.56H40.7858ZM48.4798 195.64C53.6187 208.963 60.8016 219.45 70.0846 226.992L72.607 223.888C63.97 216.87 57.1529 207.011 52.2118 194.2L48.4798 195.64ZM70.1003 227.005C79.6093 234.573 90.5975 238.36 102.986 238.36V234.36C91.4808 234.36 81.3756 230.867 72.5913 223.875L70.1003 227.005ZM220.984 248.68L219.964 250.401L219.976 250.408L219.988 250.415L220.984 248.68ZM197.184 224.32L195.434 225.289L195.438 225.295L195.442 225.302L197.184 224.32ZM191.024 166.36L189.087 165.863L189.081 165.887L189.075 165.91L191.024 166.36ZM199.144 144.8L197.374 143.869L197.364 143.887L197.355 143.906L199.144 144.8ZM212.584 123.52L210.986 122.317L210.98 122.325L210.974 122.334L212.584 123.52ZM271.384 45.4V43.4H270.386L269.786 44.1972L271.384 45.4ZM298.264 45.4L299.853 46.6142L302.309 43.4H298.264V45.4ZM225.744 140.32L226.773 142.035L227.101 141.838L227.333 141.534L225.744 140.32ZM221.544 142.84L219.829 141.811L222.573 144.555L221.544 142.84ZM231.344 132.2L232.434 133.877L232.463 133.858L232.491 133.838L231.344 132.2ZM243.664 126.6L243.197 124.655L243.188 124.657L243.179 124.66L243.664 126.6ZM291.264 133.6L290.24 135.318L290.252 135.325L290.264 135.332L291.264 133.6ZM314.224 156.84L312.483 157.825L312.49 157.838L312.498 157.85L314.224 156.84ZM313.944 225.16L312.223 224.14L312.218 224.15L313.944 225.16ZM290.144 248.68L289.148 246.945L289.148 246.945L290.144 248.68ZM278.664 231.88L279.672 233.608L279.689 233.597L279.707 233.587L278.664 231.88ZM294.624 215.08L292.873 214.113L292.873 214.113L294.624 215.08ZM294.624 167.48L292.864 168.431L292.874 168.449L292.885 168.467L294.624 167.48ZM278.944 151.24L277.901 152.947L277.918 152.957L277.936 152.968L278.944 151.24ZM232.464 151.24L233.472 152.968L233.479 152.963L233.486 152.959L232.464 151.24ZM216.504 167.48L214.765 166.493L214.754 166.511L214.744 166.529L216.504 167.48ZM216.784 215.08L218.534 214.113L218.534 214.113L216.784 215.08ZM232.744 231.88L231.701 233.587L231.718 233.597L231.736 233.608L232.744 231.88ZM255.704 255.36C242.942 255.36 231.72 252.537 221.98 246.945L219.988 250.415C230.407 256.396 242.332 259.36 255.704 259.36V255.36ZM222.004 246.959C212.227 241.166 204.542 233.301 198.926 223.338L195.442 225.302C201.399 235.872 209.581 244.248 219.964 250.401L222.004 246.959ZM198.934 223.351C193.331 213.23 190.504 201.624 190.504 188.48H186.504C186.504 202.216 189.464 214.503 195.434 225.289L198.934 223.351ZM190.504 188.48C190.504 181.165 191.327 173.942 192.973 166.81L189.075 165.91C187.361 173.338 186.504 180.862 186.504 188.48H190.504ZM192.961 166.857C194.791 159.722 197.446 152.668 200.933 145.694L197.355 143.906C193.748 151.119 190.99 158.438 189.087 165.863L192.961 166.857ZM200.914 145.731C204.596 138.735 209.021 131.727 214.194 124.706L210.974 122.334C205.693 129.5 201.159 136.678 197.374 143.869L200.914 145.731ZM214.182 124.723L272.982 46.6027L269.786 44.1972L210.986 122.317L214.182 124.723ZM271.384 47.4L298.264 47.4V43.4L271.384 43.4V47.4ZM296.675 44.1858L224.155 139.106L227.333 141.534L299.853 46.6142L296.675 44.1858ZM224.715 138.605L220.515 141.125L222.573 144.555L226.773 142.035L224.715 138.605ZM223.259 143.869C225.937 139.406 229.006 136.105 232.434 133.877L230.254 130.523C226.215 133.148 222.751 136.941 219.829 141.811L223.259 143.869ZM232.491 133.838C236.021 131.367 239.903 129.602 244.149 128.54L243.179 124.66C238.465 125.838 234.133 127.806 230.197 130.562L232.491 133.838ZM244.131 128.545C248.632 127.465 253.421 126.92 258.504 126.92V122.92C253.134 122.92 248.03 123.495 243.197 124.655L244.131 128.545ZM258.504 126.92C270.304 126.92 280.866 129.729 290.24 135.318L292.288 131.882C282.249 125.897 270.97 122.92 258.504 122.92V126.92ZM290.264 135.332C299.657 140.751 307.057 148.238 312.483 157.825L315.964 155.855C310.191 145.655 302.284 137.649 292.263 131.868L290.264 135.332ZM312.498 157.85C318.081 167.396 320.904 178.518 320.904 191.28H324.904C324.904 177.909 321.94 166.071 315.95 155.83L312.498 157.85ZM320.904 191.28C320.904 203.453 318.001 214.39 312.223 224.14L315.664 226.18C321.833 215.77 324.904 204.12 324.904 191.28H320.904ZM312.218 224.15C306.61 233.738 298.93 241.33 289.148 246.945L291.14 250.415C301.518 244.457 309.705 236.369 315.67 226.17L312.218 224.15ZM289.148 246.945C279.403 252.54 268.273 255.36 255.704 255.36V259.36C268.895 259.36 280.725 256.393 291.14 250.415L289.148 246.945ZM255.704 239.76C264.607 239.76 272.615 237.724 279.672 233.608L277.656 230.152C271.273 233.876 263.974 235.76 255.704 235.76V239.76ZM279.707 233.587C286.732 229.294 292.292 223.435 296.374 216.047L292.873 214.113C289.116 220.912 284.036 226.253 277.621 230.173L279.707 233.587ZM296.374 216.047C300.471 208.634 302.504 200.363 302.504 191.28H298.504C298.504 199.744 296.616 207.34 292.873 214.113L296.374 216.047ZM302.504 191.28C302.504 182.019 300.475 173.737 296.363 166.493L292.885 168.467C296.613 175.036 298.504 182.621 298.504 191.28H302.504ZM296.383 166.529C292.477 159.303 286.992 153.619 279.952 149.512L277.936 152.968C284.336 156.701 289.304 161.844 292.864 168.431L296.383 166.529ZM279.987 149.533C272.918 145.214 264.802 143.08 255.704 143.08V147.08C264.152 147.08 271.53 149.053 277.901 152.947L279.987 149.533ZM255.704 143.08C246.783 143.08 238.679 145.218 231.442 149.521L233.486 152.959C240.062 149.049 247.451 147.08 255.704 147.08V143.08ZM231.456 149.512C224.425 153.614 218.855 159.286 214.765 166.493L218.243 168.467C221.993 161.861 227.063 156.706 233.472 152.968L231.456 149.512ZM214.744 166.529C210.832 173.767 208.904 182.035 208.904 191.28H212.904C212.904 182.605 214.709 175.007 218.263 168.431L214.744 166.529ZM208.904 191.28C208.904 200.363 210.936 208.634 215.033 216.047L218.534 214.113C214.791 207.34 212.904 199.744 212.904 191.28H208.904ZM215.033 216.047C219.116 223.435 224.676 229.294 231.701 233.587L233.787 230.173C227.372 226.253 222.292 220.912 218.534 214.113L215.033 216.047ZM231.736 233.608C238.793 237.724 246.801 239.76 255.704 239.76V235.76C247.434 235.76 240.135 233.876 233.752 230.152L231.736 233.608Z" fill="url(#paint0_linear_71_3657)" mask="url(#path-1-outside-1_71_3657)"/>
</g>
<defs>
<linearGradient id="paint0_linear_71_3657" x1="169.5" y1="50.129" x2="169.5" y2="256.968" gradientUnits="userSpaceOnUse">
<stop stop-color="white"/>
<stop offset="1" stop-color="white" stop-opacity="0"/>
</linearGradient>
</defs>
</svg>
