<svg width="343" height="280" viewBox="0 0 343 280" fill="none" xmlns="http://www.w3.org/2000/svg">
<g opacity="0.4">
<mask id="path-1-outside-1_105_4969" maskUnits="userSpaceOnUse" x="18" y="40" width="309" height="220" fill="black">
<rect fill="white" x="18" y="40" width="309" height="220"/>
<path d="M103.208 257.36C86.7818 257.36 72.3151 252.88 59.8084 243.92C47.4884 234.773 37.8751 222.173 30.9684 206.12C24.0618 189.88 20.6084 171.027 20.6084 149.56C20.6084 128.093 24.0618 109.333 30.9684 93.28C37.8751 77.04 47.4884 64.44 59.8084 55.48C72.1284 46.52 86.5018 42.04 102.928 42.04C119.355 42.04 133.728 46.52 146.048 55.48C158.368 64.44 167.982 77.04 174.888 93.28C181.795 109.333 185.248 128.093 185.248 149.56C185.248 171.027 181.795 189.88 174.888 206.12C168.168 222.36 158.648 234.96 146.328 243.92C134.008 252.88 119.635 257.36 103.208 257.36ZM103.208 236.36C115.155 236.36 125.608 232.72 134.568 225.44C143.528 218.16 150.528 208.08 155.568 195.2C160.608 182.133 163.128 166.92 163.128 149.56C163.128 132.2 160.608 117.08 155.568 104.2C150.528 91.1333 143.528 81.0533 134.568 73.96C125.608 66.68 115.062 63.04 102.928 63.04C90.9818 63.04 80.5284 66.68 71.5684 73.96C62.6084 81.0533 55.6084 91.1333 50.5684 104.2C45.5284 117.08 43.0084 132.2 43.0084 149.56C43.0084 166.733 45.5284 181.853 50.5684 194.92C55.6084 207.987 62.6084 218.16 71.5684 225.44C80.7151 232.72 91.2618 236.36 103.208 236.36ZM254.247 257.36C243.42 257.36 233.433 255.493 224.287 251.76C215.14 248.027 207.113 242.707 200.207 235.8C193.487 228.893 188.353 220.68 184.807 211.16L202.727 202.76C207.02 213.587 213.74 222.173 222.887 228.52C232.033 234.68 242.487 237.76 254.247 237.76C263.58 237.76 271.887 235.987 279.167 232.44C286.447 228.707 292.14 223.387 296.247 216.48C300.353 209.573 302.407 201.173 302.407 191.28C302.407 181.387 300.26 172.987 295.967 166.08C291.86 159.173 286.167 153.947 278.887 150.4C271.607 146.853 263.3 145.08 253.967 145.08C251.54 145.08 248.833 145.173 245.847 145.36C243.047 145.547 240.713 145.827 238.847 146.2L234.367 136.4L290.647 65L194.607 65V45.4L315.847 45.4V65L263.207 131.36L260.407 127.72C272.913 128.093 284.02 131.08 293.727 136.68C303.433 142.093 310.993 149.467 316.407 158.8C322.007 168.133 324.807 178.96 324.807 191.28C324.807 203.6 321.82 214.8 315.847 224.88C309.873 234.773 301.567 242.707 290.927 248.68C280.287 254.467 268.06 257.36 254.247 257.36Z"/>
</mask>
<path d="M59.8084 243.92L58.6162 245.526L58.6299 245.536L58.6437 245.546L59.8084 243.92ZM30.9684 206.12L29.128 206.903L29.1313 206.91L30.9684 206.12ZM30.9684 93.28L32.8056 94.0704L32.8089 94.0627L30.9684 93.28ZM59.8084 55.48L58.6321 53.8625H58.6321L59.8084 55.48ZM146.048 55.48L147.225 53.8625L146.048 55.48ZM174.888 93.28L173.048 94.0627L173.051 94.0704L174.888 93.28ZM174.888 206.12L173.048 205.337L173.044 205.346L173.04 205.355L174.888 206.12ZM146.328 243.92L147.505 245.537L146.328 243.92ZM134.568 225.44L135.83 226.992L134.568 225.44ZM155.568 195.2L157.431 195.929L157.434 195.92L155.568 195.2ZM155.568 104.2L153.702 104.92L153.706 104.929L155.568 104.2ZM134.568 73.96L133.307 75.5122L133.317 75.5202L133.327 75.5281L134.568 73.96ZM71.5684 73.96L72.8098 75.5281L72.8198 75.5202L72.8296 75.5122L71.5684 73.96ZM50.5684 104.2L52.431 104.929L52.4344 104.92L50.5684 104.2ZM50.5684 194.92L48.7024 195.64L50.5684 194.92ZM71.5684 225.44L70.3073 226.992L70.3151 226.999L70.323 227.005L71.5684 225.44ZM103.208 255.36C87.1696 255.36 73.1167 250.994 60.9732 242.294L58.6437 245.546C71.5135 254.766 86.3939 259.36 103.208 259.36V255.36ZM61.0006 242.314C49.0013 233.406 39.5926 221.105 32.8056 205.33L29.1313 206.91C36.1576 223.242 45.9756 236.141 58.6162 245.526L61.0006 242.314ZM32.8089 205.337C26.0277 189.392 22.6084 170.814 22.6084 149.56H18.6084C18.6084 171.239 22.0959 190.368 29.128 206.903L32.8089 205.337ZM22.6084 149.56C22.6084 128.305 26.0279 109.824 32.8056 94.0704L29.1313 92.4896C22.0956 108.843 18.6084 127.882 18.6084 149.56H22.6084ZM32.8089 94.0627C39.5967 78.1024 49.0014 65.8126 60.9848 57.0975L58.6321 53.8625C45.9755 63.0674 36.1536 75.9776 29.128 92.4973L32.8089 94.0627ZM60.9848 57.0975C72.9357 48.4059 86.8895 44.04 102.928 44.04V40.04C86.1141 40.04 71.3212 44.6341 58.6321 53.8625L60.9848 57.0975ZM102.928 44.04C118.967 44.04 132.921 48.4059 144.872 57.0975L147.225 53.8625C134.536 44.6341 119.743 40.04 102.928 40.04V44.04ZM144.872 57.0975C156.855 65.8126 166.26 78.1024 173.048 94.0627L176.729 92.4973C169.703 75.9776 159.881 63.0674 147.225 53.8625L144.872 57.0975ZM173.051 94.0704C179.829 109.824 183.248 128.305 183.248 149.56H187.248C187.248 127.882 183.761 108.843 176.726 92.4896L173.051 94.0704ZM183.248 149.56C183.248 170.814 179.829 189.392 173.048 205.337L176.729 206.903C183.761 190.368 187.248 171.239 187.248 149.56H183.248ZM173.04 205.355C166.439 221.308 157.13 233.591 145.152 242.303L147.505 245.537C160.167 236.329 169.898 223.412 176.736 206.885L173.04 205.355ZM145.152 242.303C133.201 250.994 119.247 255.36 103.208 255.36V259.36C120.023 259.36 134.816 254.766 147.505 245.537L145.152 242.303ZM103.208 238.36C115.597 238.36 126.5 234.573 135.83 226.992L133.307 223.888C124.717 230.867 114.713 234.36 103.208 234.36V238.36ZM135.83 226.992C145.106 219.455 152.29 209.067 157.431 195.929L153.706 194.471C148.767 207.093 141.951 216.865 133.307 223.888L135.83 226.992ZM157.434 195.92C162.581 182.576 165.128 167.109 165.128 149.56H161.128C161.128 166.731 158.635 181.691 153.702 194.48L157.434 195.92ZM165.128 149.56C165.128 132.012 162.582 116.634 157.431 103.471L153.706 104.929C158.635 117.526 161.128 132.388 161.128 149.56H165.128ZM157.434 103.48C152.295 90.155 145.107 79.7522 135.81 72.3919L133.327 75.5281C141.95 82.3545 148.762 92.1117 153.702 104.92L157.434 103.48ZM135.83 72.4078C126.494 64.8226 115.496 61.04 102.928 61.04V65.04C114.628 65.04 124.723 68.5374 133.307 75.5122L135.83 72.4078ZM102.928 61.04C90.5398 61.04 79.637 64.8274 70.3073 72.4078L72.8296 75.5122C81.4199 68.5326 91.4238 65.04 102.928 65.04V61.04ZM70.327 72.3919C61.0299 79.7522 53.8422 90.155 48.7024 103.48L52.4344 104.92C57.3747 92.1117 64.187 82.3545 72.8098 75.5281L70.327 72.3919ZM48.706 103.471C43.5552 116.634 41.0084 132.012 41.0084 149.56H45.0084C45.0084 132.388 47.5017 117.526 52.4309 104.929L48.706 103.471ZM41.0084 149.56C41.0084 166.926 43.5563 182.298 48.7024 195.64L52.4344 194.2C47.5005 181.409 45.0084 166.541 45.0084 149.56H41.0084ZM48.7024 195.64C53.8413 208.963 61.0243 219.45 70.3073 226.992L72.8296 223.888C64.1926 216.87 57.3756 207.011 52.4344 194.2L48.7024 195.64ZM70.323 227.005C79.8319 234.573 90.8201 238.36 103.208 238.36V234.36C91.7034 234.36 81.5983 230.867 72.8139 223.875L70.323 227.005ZM224.287 251.76L223.531 253.612L224.287 251.76ZM200.207 235.8L198.773 237.195L198.783 237.205L198.792 237.214L200.207 235.8ZM184.807 211.16L183.958 209.349L182.289 210.131L182.932 211.858L184.807 211.16ZM202.727 202.76L204.586 202.023L203.802 200.047L201.878 200.949L202.727 202.76ZM222.887 228.52L221.746 230.163L221.758 230.171L221.769 230.179L222.887 228.52ZM279.167 232.44L280.043 234.238L280.061 234.229L280.079 234.22L279.167 232.44ZM296.247 216.48L297.966 217.502L296.247 216.48ZM295.967 166.08L294.247 167.102L294.258 167.119L294.268 167.136L295.967 166.08ZM278.887 150.4L278.011 152.198L278.887 150.4ZM245.847 145.36L245.722 143.364L245.714 143.364L245.847 145.36ZM238.847 146.2L237.028 147.032L237.686 148.472L239.239 148.161L238.847 146.2ZM234.367 136.4L232.796 135.162L232.04 136.121L232.548 137.232L234.367 136.4ZM290.647 65L292.217 66.2381L294.77 63H290.647V65ZM194.607 65H192.607V67H194.607V65ZM194.607 45.4V43.4H192.607V45.4H194.607ZM315.847 45.4H317.847V43.4H315.847V45.4ZM315.847 65L317.413 66.2429L317.847 65.6969V65H315.847ZM263.207 131.36L261.621 132.579L263.182 134.609L264.773 132.603L263.207 131.36ZM260.407 127.72L260.466 125.721L256.249 125.595L258.821 128.939L260.407 127.72ZM293.727 136.68L292.727 138.412L292.74 138.42L292.752 138.427L293.727 136.68ZM316.407 158.8L314.677 159.803L314.684 159.816L314.692 159.829L316.407 158.8ZM315.847 224.88L317.559 225.914L317.563 225.907L317.567 225.9L315.847 224.88ZM290.927 248.68L291.882 250.437L291.894 250.431L291.906 250.424L290.927 248.68ZM254.247 255.36C243.654 255.36 233.927 253.535 225.042 249.908L223.531 253.612C232.939 257.452 243.186 259.36 254.247 259.36V255.36ZM225.042 249.908C216.139 246.274 208.337 241.102 201.621 234.386L198.792 237.214C205.889 244.311 214.141 249.779 223.531 253.612L225.042 249.908ZM201.64 234.405C195.124 227.708 190.136 219.736 186.681 210.462L182.932 211.858C186.571 221.624 191.849 230.078 198.773 237.195L201.64 234.405ZM185.655 212.971L203.575 204.571L201.878 200.949L183.958 209.349L185.655 212.971ZM200.867 203.497C205.299 214.672 212.261 223.581 221.746 230.163L224.027 226.877C215.219 220.765 208.741 212.501 204.586 202.023L200.867 203.497ZM221.769 230.179C231.269 236.576 242.116 239.76 254.247 239.76V235.76C242.857 235.76 232.798 232.784 224.004 226.861L221.769 230.179ZM254.247 239.76C263.837 239.76 272.451 237.936 280.043 234.238L278.291 230.642C271.322 234.037 263.323 235.76 254.247 235.76V239.76ZM280.079 234.22C287.687 230.318 293.663 224.738 297.966 217.502L294.527 215.458C290.617 222.035 285.206 227.095 278.254 230.66L280.079 234.22ZM297.966 217.502C302.294 210.222 304.407 201.45 304.407 191.28H300.407C300.407 200.896 298.412 208.925 294.527 215.458L297.966 217.502ZM304.407 191.28C304.407 181.095 302.194 172.31 297.665 165.024L294.268 167.136C298.326 173.663 300.407 181.679 300.407 191.28H304.407ZM297.686 165.058C293.378 157.813 287.39 152.318 279.763 148.602L278.011 152.198C284.943 155.575 290.342 160.534 294.247 167.102L297.686 165.058ZM279.763 148.602C272.171 144.904 263.557 143.08 253.967 143.08V147.08C263.043 147.08 271.042 148.803 278.011 152.198L279.763 148.602ZM253.967 143.08C251.49 143.08 248.741 143.175 245.722 143.364L245.971 147.356C248.926 147.171 251.59 147.08 253.967 147.08V143.08ZM245.714 143.364C242.863 143.554 240.436 143.842 238.454 144.239L239.239 148.161C240.99 147.811 243.23 147.539 245.98 147.356L245.714 143.364ZM240.666 145.368L236.186 135.568L232.548 137.232L237.028 147.032L240.666 145.368ZM235.937 137.638L292.217 66.2381L289.076 63.7619L232.796 135.162L235.937 137.638ZM290.647 63L194.607 63V67L290.647 67V63ZM196.607 65V45.4H192.607V65H196.607ZM194.607 47.4L315.847 47.4V43.4L194.607 43.4V47.4ZM313.847 45.4V65H317.847V45.4H313.847ZM314.28 63.7571L261.64 130.117L264.773 132.603L317.413 66.2429L314.28 63.7571ZM264.792 130.141L261.992 126.501L258.821 128.939L261.621 132.579L264.792 130.141ZM260.347 129.719C272.562 130.084 283.339 132.996 292.727 138.412L294.726 134.948C284.701 129.164 273.264 126.103 260.466 125.721L260.347 129.719ZM292.752 138.427C302.155 143.67 309.449 150.791 314.677 159.803L318.137 157.797C312.537 148.142 304.712 140.516 294.701 134.933L292.752 138.427ZM314.692 159.829C320.081 168.812 322.807 179.274 322.807 191.28H326.807C326.807 178.646 323.932 167.455 318.122 157.771L314.692 159.829ZM322.807 191.28C322.807 203.26 319.907 214.105 314.126 223.86L317.567 225.9C323.733 215.495 326.807 203.94 326.807 191.28H322.807ZM314.134 223.846C308.35 233.427 300.303 241.122 289.947 246.936L291.906 250.424C302.83 244.291 311.396 236.12 317.559 225.914L314.134 223.846ZM289.971 246.923C279.663 252.529 267.774 255.36 254.247 255.36V259.36C268.346 259.36 280.91 256.404 291.882 250.437L289.971 246.923Z" fill="url(#paint0_linear_105_4969)" mask="url(#path-1-outside-1_105_4969)"/>
</g>
<defs>
<linearGradient id="paint0_linear_105_4969" x1="171.5" y1="50.129" x2="171.5" y2="256.968" gradientUnits="userSpaceOnUse">
<stop stop-color="white"/>
<stop offset="1" stop-color="white" stop-opacity="0"/>
</linearGradient>
</defs>
</svg>
