<svg width="342" height="310" viewBox="0 0 342 310" fill="none" xmlns="http://www.w3.org/2000/svg">
<g opacity="0.4">
<mask id="path-1-outside-1_87_3770" maskUnits="userSpaceOnUse" x="19" y="55" width="308" height="220" fill="black">
<rect fill="white" x="19" y="55" width="308" height="220"/>
<path d="M104.076 272.36C87.649 272.36 73.1823 267.88 60.6756 258.92C48.3556 249.773 38.7423 237.173 31.8356 221.12C24.929 204.88 21.4756 186.027 21.4756 164.56C21.4756 143.093 24.929 124.333 31.8356 108.28C38.7423 92.04 48.3556 79.44 60.6756 70.48C72.9956 61.52 87.369 57.04 103.796 57.04C120.222 57.04 134.596 61.52 146.916 70.48C159.236 79.44 168.849 92.04 175.756 108.28C182.662 124.333 186.116 143.093 186.116 164.56C186.116 186.027 182.662 204.88 175.756 221.12C169.036 237.36 159.516 249.96 147.196 258.92C134.876 267.88 120.502 272.36 104.076 272.36ZM104.076 251.36C116.022 251.36 126.476 247.72 135.436 240.44C144.396 233.16 151.396 223.08 156.436 210.2C161.476 197.133 163.996 181.92 163.996 164.56C163.996 147.2 161.476 132.08 156.436 119.2C151.396 106.133 144.396 96.0533 135.436 88.96C126.476 81.68 115.929 78.04 103.796 78.04C91.849 78.04 81.3956 81.68 72.4356 88.96C63.4756 96.0533 56.4756 106.133 51.4356 119.2C46.3956 132.08 43.8756 147.2 43.8756 164.56C43.8756 181.733 46.3956 196.853 51.4356 209.92C56.4756 222.987 63.4756 233.16 72.4356 240.44C81.5823 247.72 92.129 251.36 104.076 251.36ZM189.034 269L189.034 255L247.274 190.88C258.66 178.373 267.9 168.013 274.994 159.8C282.274 151.587 287.687 144.12 291.234 137.4C294.78 130.68 296.554 123.4 296.554 115.56C296.554 103.053 292.914 93.44 285.634 86.72C278.354 80 268.647 76.64 256.514 76.64C244.007 76.64 233.46 80.1867 224.874 87.28C216.474 94.3733 210.78 104.267 207.794 116.96L187.354 112.48C189.78 101.093 194.167 91.2933 200.514 83.08C206.86 74.8667 214.794 68.52 224.314 64.04C233.834 59.3733 244.474 57.04 256.234 57.04C268.74 57.04 279.66 59.56 288.994 64.6C298.327 69.64 305.607 76.5467 310.834 85.32C316.247 94.0933 318.954 104.173 318.954 115.56C318.954 123.4 317.274 130.96 313.914 138.24C310.74 145.52 305.887 153.36 299.354 161.76C292.82 170.16 284.42 179.96 274.154 191.16L221.234 249.4L324.554 249.4V269H189.034Z"/>
</mask>
<path d="M60.6756 258.92L59.4834 260.526L59.4971 260.536L59.5109 260.546L60.6756 258.92ZM31.8356 221.12L29.9951 221.903L29.9984 221.91L31.8356 221.12ZM31.8356 108.28L33.6728 109.07L33.6761 109.063L31.8356 108.28ZM60.6756 70.48L59.4993 68.8625H59.4993L60.6756 70.48ZM146.916 70.48L148.092 68.8625L146.916 70.48ZM175.756 108.28L173.915 109.063L173.918 109.07L175.756 108.28ZM175.756 221.12L173.915 220.337L173.911 220.346L173.908 220.355L175.756 221.12ZM147.196 258.92L148.372 260.537L147.196 258.92ZM135.436 240.44L136.697 241.992L135.436 240.44ZM156.436 210.2L158.298 210.929L158.302 210.92L156.436 210.2ZM156.436 119.2L154.57 119.92L154.573 119.929L156.436 119.2ZM135.436 88.96L134.174 90.5122L134.184 90.5202L134.194 90.5281L135.436 88.96ZM72.4356 88.96L73.677 90.5281L73.687 90.5202L73.6968 90.5122L72.4356 88.96ZM51.4356 119.2L53.2981 119.929L53.3016 119.92L51.4356 119.2ZM51.4356 209.92L49.5696 210.64L51.4356 209.92ZM72.4356 240.44L71.1744 241.992L71.1823 241.999L71.1901 242.005L72.4356 240.44ZM104.076 270.36C88.0368 270.36 73.9839 265.994 61.8404 257.294L59.5109 260.546C72.3807 269.766 87.2611 274.36 104.076 274.36V270.36ZM61.8678 257.314C49.8685 248.406 40.4598 236.105 33.6728 220.33L29.9984 221.91C37.0248 238.242 46.8428 251.141 59.4834 260.526L61.8678 257.314ZM33.6761 220.337C26.8949 204.392 23.4756 185.814 23.4756 164.56H19.4756C19.4756 186.239 22.9631 205.368 29.9952 221.903L33.6761 220.337ZM23.4756 164.56C23.4756 143.305 26.8951 124.824 33.6728 109.07L29.9984 107.49C22.9628 123.843 19.4756 142.882 19.4756 164.56H23.4756ZM33.6761 109.063C40.4638 93.1024 49.8686 80.8126 61.852 72.0975L59.4993 68.8625C46.8426 78.0674 37.0207 90.9776 29.9952 107.497L33.6761 109.063ZM61.852 72.0975C73.8029 63.4059 87.7566 59.04 103.796 59.04V55.04C86.9813 55.04 72.1884 59.6341 59.4993 68.8625L61.852 72.0975ZM103.796 59.04C119.835 59.04 133.788 63.4059 145.739 72.0975L148.092 68.8625C135.403 59.6341 120.61 55.04 103.796 55.04V59.04ZM145.739 72.0975C157.723 80.8126 167.127 93.1024 173.915 109.063L177.596 107.497C170.571 90.9776 160.749 78.0674 148.092 68.8625L145.739 72.0975ZM173.918 109.07C180.696 124.824 184.116 143.305 184.116 164.56H188.116C188.116 142.882 184.628 123.843 177.593 107.49L173.918 109.07ZM184.116 164.56C184.116 185.814 180.696 204.392 173.915 220.337L177.596 221.903C184.628 205.368 188.116 186.239 188.116 164.56H184.116ZM173.908 220.355C167.307 236.308 157.998 248.591 146.019 257.303L148.372 260.537C161.034 251.329 170.765 238.412 177.604 221.885L173.908 220.355ZM146.019 257.303C134.068 265.994 120.115 270.36 104.076 270.36V274.36C120.89 274.36 135.683 269.766 148.372 260.537L146.019 257.303ZM104.076 253.36C116.464 253.36 127.367 249.573 136.697 241.992L134.174 238.888C125.584 245.867 115.58 249.36 104.076 249.36V253.36ZM136.697 241.992C145.974 234.455 153.157 224.067 158.298 210.929L154.573 209.471C149.634 222.093 142.818 231.865 134.174 238.888L136.697 241.992ZM158.302 210.92C163.449 197.576 165.996 182.109 165.996 164.56H161.996C161.996 181.731 159.503 196.691 154.57 209.48L158.302 210.92ZM165.996 164.56C165.996 147.012 163.449 131.634 158.298 118.471L154.573 119.929C159.502 132.526 161.996 147.388 161.996 164.56H165.996ZM158.302 118.48C153.162 105.155 145.974 94.7522 136.677 87.3919L134.194 90.5281C142.817 97.3545 149.629 107.112 154.57 119.92L158.302 118.48ZM136.697 87.4078C127.361 79.8226 116.363 76.04 103.796 76.04V80.04C115.495 80.04 125.59 83.5374 134.174 90.5122L136.697 87.4078ZM103.796 76.04C91.407 76.04 80.5042 79.8274 71.1744 87.4078L73.6968 90.5122C82.2871 83.5326 92.291 80.04 103.796 80.04V76.04ZM71.1942 87.3919C61.8971 94.7522 54.7094 105.155 49.5696 118.48L53.3016 119.92C58.2419 107.112 65.0542 97.3545 73.677 90.5281L71.1942 87.3919ZM49.5731 118.471C44.4224 131.634 41.8756 147.012 41.8756 164.56H45.8756C45.8756 147.388 48.3689 132.526 53.2981 119.929L49.5731 118.471ZM41.8756 164.56C41.8756 181.926 44.4235 197.298 49.5696 210.64L53.3016 209.2C48.3677 196.409 45.8756 181.541 45.8756 164.56H41.8756ZM49.5696 210.64C54.7085 223.963 61.8914 234.45 71.1744 241.992L73.6968 238.888C65.0598 231.87 58.2428 222.011 53.3016 209.2L49.5696 210.64ZM71.1901 242.005C80.6991 249.573 91.6873 253.36 104.076 253.36V249.36C92.5706 249.36 82.4655 245.867 73.6811 238.875L71.1901 242.005ZM189.034 269H187.034V271H189.034V269ZM189.034 255L187.553 253.655L187.034 254.227V255H189.034ZM247.274 190.88L245.795 189.534L245.793 189.535L247.274 190.88ZM274.994 159.8L273.497 158.473L273.489 158.483L273.48 158.493L274.994 159.8ZM291.234 137.4L289.465 136.466L291.234 137.4ZM224.874 87.28L223.6 85.7381L223.592 85.7449L223.583 85.7519L224.874 87.28ZM207.794 116.96L207.366 118.914L209.289 119.335L209.741 117.418L207.794 116.96ZM187.354 112.48L185.398 112.063L184.983 114.008L186.926 114.434L187.354 112.48ZM200.514 83.08L198.931 81.8571L200.514 83.08ZM224.314 64.04L225.165 65.8496L225.18 65.8428L225.194 65.8358L224.314 64.04ZM310.834 85.32L309.116 86.3436L309.124 86.357L309.132 86.3702L310.834 85.32ZM313.914 138.24L312.098 137.402L312.089 137.421L312.08 137.441L313.914 138.24ZM299.354 161.76L300.932 162.988L299.354 161.76ZM274.154 191.16L272.679 189.809L272.674 189.815L274.154 191.16ZM221.234 249.4L219.754 248.055L216.714 251.4H221.234V249.4ZM324.554 249.4H326.554V247.4H324.554V249.4ZM324.554 269V271H326.554V269H324.554ZM191.034 269L191.034 255H187.034L187.034 269H191.034ZM190.514 256.345L248.754 192.225L245.793 189.535L187.553 253.655L190.514 256.345ZM248.753 192.226C260.145 179.713 269.398 169.339 276.507 161.107L273.48 158.493C266.403 166.688 257.175 177.034 245.795 189.534L248.753 192.226ZM276.49 161.127C283.834 152.842 289.356 145.242 293.003 138.334L289.465 136.466C286.018 142.998 280.714 150.332 273.497 158.473L276.49 161.127ZM293.003 138.334C296.706 131.316 298.554 123.715 298.554 115.56H294.554C294.554 123.085 292.855 130.044 289.465 136.466L293.003 138.334ZM298.554 115.56C298.554 102.651 294.783 92.4433 286.99 85.2504L284.277 88.1896C291.045 94.4367 294.554 103.455 294.554 115.56H298.554ZM286.99 85.2504C279.262 78.1166 269.031 74.64 256.514 74.64V78.64C268.263 78.64 277.445 81.8834 284.277 88.1896L286.99 85.2504ZM256.514 74.64C243.603 74.64 232.589 78.3121 223.6 85.7381L226.148 88.8219C234.332 82.0612 244.411 78.64 256.514 78.64V74.64ZM223.583 85.7519C214.798 93.171 208.913 103.471 205.847 116.502L209.741 117.418C212.648 105.062 218.15 95.5756 226.164 88.808L223.583 85.7519ZM208.222 115.006L187.782 110.526L186.926 114.434L207.366 118.914L208.222 115.006ZM189.31 112.897C191.682 101.768 195.954 92.2515 202.096 84.3029L198.931 81.8571C192.38 90.3352 187.879 100.419 185.398 112.063L189.31 112.897ZM202.096 84.3029C208.247 76.3438 215.928 70.1966 225.165 65.8496L223.462 62.2303C213.66 66.8434 205.474 73.3895 198.931 81.8571L202.096 84.3029ZM225.194 65.8358C234.411 61.3176 244.745 59.04 256.234 59.04V55.04C244.202 55.04 233.256 57.4291 223.433 62.2441L225.194 65.8358ZM256.234 59.04C268.468 59.04 279.05 61.5035 288.043 66.3598L289.944 62.8402C280.271 57.6165 269.013 55.04 256.234 55.04V59.04ZM288.043 66.3598C297.072 71.2352 304.081 77.8928 309.116 86.3436L312.552 84.2964C307.133 75.2005 299.582 68.0448 289.944 62.8402L288.043 66.3598ZM309.132 86.3702C314.33 94.7955 316.954 104.504 316.954 115.56H320.954C320.954 103.842 318.164 93.3912 312.536 84.2698L309.132 86.3702ZM316.954 115.56C316.954 123.104 315.339 130.378 312.098 137.402L315.73 139.078C319.208 131.541 320.954 123.696 320.954 115.56H316.954ZM312.08 137.441C308.992 144.526 304.238 152.222 297.775 160.532L300.932 162.988C307.536 154.498 312.489 146.514 315.747 139.039L312.08 137.441ZM297.775 160.532C291.285 168.876 282.924 178.633 272.679 189.809L275.628 192.511C285.917 181.287 294.355 171.444 300.932 162.988L297.775 160.532ZM272.674 189.815L219.754 248.055L222.714 250.745L275.634 192.505L272.674 189.815ZM221.234 251.4L324.554 251.4V247.4L221.234 247.4V251.4ZM322.554 249.4V269H326.554V249.4H322.554ZM324.554 267H189.034V271H324.554V267Z" fill="url(#paint0_linear_87_3770)" mask="url(#path-1-outside-1_87_3770)"/>
</g>
<defs>
<linearGradient id="paint0_linear_87_3770" x1="171" y1="55.5" x2="171" y2="284.5" gradientUnits="userSpaceOnUse">
<stop stop-color="white"/>
<stop offset="1" stop-color="white" stop-opacity="0"/>
</linearGradient>
</defs>
</svg>
