<svg xmlns="http://www.w3.org/2000/svg" width="100%" viewBox="0 0 28 28" fill="none" class="svg w-variant-9a9c0d84-64c6-119a-ea94-8f8b0c9cb85f"><rect x="0.5" y="0.5" width="27" height="27" fill="currentColor" class="rect"></rect><rect x="0.5" y="0.5" width="27" height="27" stroke="#060318"></rect><path d="M19.8665 6.29999H8.13314C7.12114 6.29999 6.2998 7.12132 6.2998 8.13332V19.8667C6.2998 20.8787 7.12114 21.7 8.13314 21.7H19.8665C20.8785 21.7 21.6998 20.8787 21.6998 19.8667V8.13332C21.6998 7.12132 20.8785 6.29999 19.8665 6.29999ZM11.0665 12.1667V19.1333H8.86647V12.1667H11.0665ZM8.86647 10.139C8.86647 9.62565 9.30647 9.23332 9.96647 9.23332C10.6265 9.23332 11.0408 9.62565 11.0665 10.139C11.0665 10.6523 10.6558 11.0667 9.96647 11.0667C9.30647 11.0667 8.86647 10.6523 8.86647 10.139ZM19.1331 19.1333H16.9331C16.9331 19.1333 16.9331 15.738 16.9331 15.4667C16.9331 14.7333 16.5665 14 15.6498 13.9853H15.6205C14.7331 13.9853 14.3665 14.7407 14.3665 15.4667C14.3665 15.8003 14.3665 19.1333 14.3665 19.1333H12.1665V12.1667H14.3665V13.1053C14.3665 13.1053 15.0741 12.1667 16.4968 12.1667C17.9525 12.1667 19.1331 13.1677 19.1331 15.1953V19.1333Z" fill="#060318"></path></svg>