<svg width="56" height="56" viewBox="0 0 56 56" fill="none" xmlns="http://www.w3.org/2000/svg">
<g filter="url(#filter0_i_162_2948)">
<rect width="56" height="56" fill="#100C22"/>
</g>
<rect x="0.5" y="0.5" width="55" height="55" stroke="#27D690"/>
<path d="M33.7633 17.1018C33.7633 13.6202 21.0135 13.6202 21.0135 17.1018C21.0135 20.584 33.7633 20.5842 33.7633 17.1018Z" fill="#27D690"/>
<path d="M36.8315 25.9996C36.601 25.1795 36.0123 24.4107 35.1084 23.753V23.1668C36.3099 22.2945 36.9432 21.2487 36.9432 20.1295V17.1018C36.9432 12.466 26.6446 10.4103 20.759 13.4031C18.8729 14.3622 17.8343 15.6757 17.8343 17.1018V18.9091C16.6331 19.7812 16 20.8267 16 21.9458V24.9735C16 26.0925 16.6326 27.138 17.8343 28.0107C17.8343 29.9329 17.7361 30.4457 18.265 31.3616C17.9794 31.8567 17.8343 32.3747 17.8343 32.9058V38.9006C17.8343 40.3266 18.8729 41.6402 20.759 42.5992C26.6172 45.5781 36.9432 43.5545 36.9432 38.9006V36.6087C38.8903 35.6552 40 34.2958 40 32.8453V29.8176C40 28.338 38.8487 26.9559 36.8315 25.9996ZM33.9702 33.5405C35.5013 32.7735 36.9432 31.503 36.9432 29.8175V27.1853C40.7843 29.3655 38.8971 32.4341 33.9702 33.5405ZM18.9595 32.2521C19.4807 32.7725 20.1723 33.2418 21.0017 33.6352C21.3432 34.8469 22.464 35.9103 24.0936 36.6779C20.6237 35.9579 18.2868 34.1597 18.9595 32.2521ZM27.3884 30.892C24.8902 30.892 22.5554 30.341 20.9581 29.4589C27.0224 31.2044 34.9809 29.0851 35.1063 25.0646C37.8602 27.829 33.354 30.892 27.3884 30.892ZM27.3884 13.0002C32.0202 13.0002 35.9333 14.8785 35.9333 17.1017C35.9333 19.3253 32.0202 21.2038 27.3884 21.2038C22.7569 21.2038 18.8442 19.3253 18.8442 17.1017C18.8442 14.8785 22.7569 13.0002 27.3884 13.0002ZM17.8363 20.2193C17.9594 24.2228 25.894 26.3679 31.985 24.6149C30.3877 25.4969 28.0525 26.0479 25.5542 26.0479C19.5787 26.0479 15.0799 22.9755 17.8363 20.2193Z" fill="#27D690"/>
<defs>
<filter id="filter0_i_162_2948" x="0" y="0" width="56" height="61" filterUnits="userSpaceOnUse" color-interpolation-filters="sRGB">
<feFlood flood-opacity="0" result="BackgroundImageFix"/>
<feBlend mode="normal" in="SourceGraphic" in2="BackgroundImageFix" result="shape"/>
<feColorMatrix in="SourceAlpha" type="matrix" values="0 0 0 0 0 0 0 0 0 0 0 0 0 0 0 0 0 0 127 0" result="hardAlpha"/>
<feMorphology radius="5" operator="erode" in="SourceAlpha" result="effect1_innerShadow_162_2948"/>
<feOffset dy="5"/>
<feGaussianBlur stdDeviation="4"/>
<feComposite in2="hardAlpha" operator="arithmetic" k2="-1" k3="1"/>
<feColorMatrix type="matrix" values="0 0 0 0 0.152941 0 0 0 0 0.839216 0 0 0 0 0.564706 0 0 0 0.33 0"/>
<feBlend mode="normal" in2="shape" result="effect1_innerShadow_162_2948"/>
</filter>
</defs>
</svg>
