<svg width="56" height="56" viewBox="0 0 56 56" fill="none" xmlns="http://www.w3.org/2000/svg">
<g filter="url(#filter0_i_162_3670)">
<rect width="56" height="56" fill="#100C22"/>
</g>
<rect x="0.5" y="0.5" width="55" height="55" stroke="#27D690"/>
<path d="M41.9698 31.9403C41.693 31.7087 41.3914 31.4847 41.0677 31.2687C41.4549 31.9545 41.6582 32.6789 41.6582 33.4227C41.6582 35.4818 40.151 37.3646 37.4142 38.7241C34.8839 39.9811 31.5405 40.6734 28 40.6734C24.4595 40.6734 21.1161 39.9811 18.5859 38.7241C15.8491 37.3646 14.3418 35.4818 14.3418 33.4227C14.3418 32.6789 14.5451 31.9545 14.9324 31.2687C14.6086 31.4847 14.3071 31.7087 14.0302 31.9403C13.1041 32.7149 12 33.9644 12 35.5175C12 36.427 12.3733 37.3265 13.1093 38.191C13.8799 39.096 15.0014 39.918 16.4427 40.634C19.5141 42.1597 23.6186 43 28 43C32.3815 43 36.4859 42.1597 39.5574 40.6339C40.9986 39.9179 42.1201 39.096 42.8907 38.191C43.6268 37.3265 44 36.427 44 35.5175C44 33.9644 42.8959 32.7149 41.9698 31.9403Z" fill="#27D690"/>
<path d="M28 36.4838C23.8146 36.4838 20.2614 33.7446 19.0603 29.9759C17.2397 30.9602 16.2168 32.1852 16.2168 33.4227C16.2168 34.7203 17.3859 36.0453 19.4244 37.058C21.6993 38.1881 24.7449 38.8105 28 38.8105C31.2551 38.8105 34.3007 38.1881 36.5756 37.058C38.6141 36.0453 39.7832 34.7203 39.7832 33.4227C39.7832 32.1852 38.7603 30.9602 36.9397 29.9759C35.7386 33.7446 32.1854 36.4838 28 36.4838Z" fill="#27D690"/>
<path d="M28 34.621C32.1354 34.621 35.4998 31.2784 35.4998 27.1697C35.4998 25.7785 35.1103 24.4206 34.3731 23.2426C34.3719 23.2406 28 13 28 13L21.6281 23.2406C20.8898 24.4205 20.5002 25.7785 20.5002 27.1696C20.5002 31.2783 23.8646 34.621 28 34.621Z" fill="#27D690"/>
<defs>
<filter id="filter0_i_162_3670" x="0" y="0" width="56" height="61" filterUnits="userSpaceOnUse" color-interpolation-filters="sRGB">
<feFlood flood-opacity="0" result="BackgroundImageFix"/>
<feBlend mode="normal" in="SourceGraphic" in2="BackgroundImageFix" result="shape"/>
<feColorMatrix in="SourceAlpha" type="matrix" values="0 0 0 0 0 0 0 0 0 0 0 0 0 0 0 0 0 0 127 0" result="hardAlpha"/>
<feMorphology radius="5" operator="erode" in="SourceAlpha" result="effect1_innerShadow_162_3670"/>
<feOffset dy="5"/>
<feGaussianBlur stdDeviation="4"/>
<feComposite in2="hardAlpha" operator="arithmetic" k2="-1" k3="1"/>
<feColorMatrix type="matrix" values="0 0 0 0 0.152941 0 0 0 0 0.839216 0 0 0 0 0.564706 0 0 0 0.33 0"/>
<feBlend mode="normal" in2="shape" result="effect1_innerShadow_162_3670"/>
</filter>
</defs>
</svg>
