<svg width="56" height="56" viewBox="0 0 56 56" fill="none" xmlns="http://www.w3.org/2000/svg">
<g filter="url(#filter0_i_343_4852)">
<rect width="56" height="56" fill="#100C22"/>
</g>
<rect x="0.5" y="0.5" width="55" height="55" stroke="#27D690"/>
<path fill-rule="evenodd" clip-rule="evenodd" d="M34.5688 11L26.1377 14.7676V45.9999H28.7046V39.4346L28.1105 39.4937C27.8675 39.5177 27.6519 39.3312 27.629 39.0772C27.6061 38.8231 27.7844 38.5978 28.0275 38.5737L32.596 38.1192C32.839 38.0952 33.0546 38.2817 33.0776 38.5357C33.1005 38.7898 32.9222 39.0151 32.6792 39.0391L32.0021 39.1065V45.9998H43V14.7676L34.5688 11ZM29.4451 35.2264L27.8515 35.3859V32.1669L29.4451 31.91V35.2264ZM29.4457 29.9975L27.8516 30.3106V27.0839L29.4457 26.6732V29.9975ZM29.4457 24.766L27.8516 25.2328V22.0061L29.4457 21.4417V24.766ZM29.4457 19.5318L27.8516 20.1498V17.1353L29.4462 16.4208L29.4457 19.5318ZM32.8551 34.8868L31.0593 35.0668V31.6461L32.8551 31.3562V34.8868ZM32.8551 29.3235L31.0593 29.6768V26.2589L32.8551 25.7956V29.3235ZM32.8551 23.7629L31.0593 24.2895V20.8688L32.8551 20.2322V23.7629ZM32.8551 18.2024L31.0593 18.9021L31.0587 15.6985L32.855 14.8929L32.8551 18.2024ZM37.1201 40.5151C37.1201 40.7711 36.9216 40.9787 36.6767 40.9787C36.4317 40.9787 36.2332 40.7711 36.2332 40.5151V15.0492C36.2332 14.7931 36.4317 14.5856 36.6767 14.5856C36.9216 14.5856 37.1201 14.7931 37.1201 15.0492V40.5151ZM39.2279 40.5151C39.2279 40.7711 39.0294 40.9787 38.7844 40.9787C38.5395 40.9787 38.341 40.7711 38.341 40.5151V15.9911C38.341 15.7351 38.5396 15.5275 38.7844 15.5275C39.0293 15.5275 39.2279 15.7351 39.2279 15.9911V40.5151ZM41.3357 40.5151C41.3357 40.7711 41.1372 40.9787 40.8922 40.9787C40.6473 40.9787 40.4488 40.7711 40.4488 40.5151V16.9331C40.4488 16.677 40.6473 16.4695 40.8922 16.4695C41.1372 16.4695 41.3357 16.677 41.3357 16.9331V40.5151ZM21.7795 20.0991L13 24.0225V45.9999H15.741V40.9026L15.147 40.9617C14.904 40.9857 14.6884 40.7993 14.6655 40.5452C14.6426 40.2912 14.8209 40.0658 15.0639 40.0418L19.6325 39.5873C19.8755 39.5633 20.0911 39.7498 20.1141 40.0038C20.137 40.2579 19.9587 40.4832 19.7156 40.5073L19.0386 40.5747V46H25.2509V21.6504L21.7795 20.0991ZM16.1729 36.1603L14.8758 36.346V33.736L16.1729 33.4574V36.1603ZM16.1729 31.906L14.8758 32.2395V29.6295L16.1729 29.2032V31.906ZM16.1733 27.6502L14.8759 28.1297V25.6921L16.1738 25.1206L16.1733 27.6502ZM18.9934 35.7532L17.4996 35.9684V33.1732L18.9934 32.8509V35.7532ZM18.9934 31.178L17.4996 31.5627V28.7658L18.9934 28.2723V31.178ZM18.9934 26.6011L17.4991 27.1571V24.5378L18.9934 23.8759V26.6011Z" fill="#27D690"/>
<defs>
<filter id="filter0_i_343_4852" x="0" y="0" width="56" height="61" filterUnits="userSpaceOnUse" color-interpolation-filters="sRGB">
<feFlood flood-opacity="0" result="BackgroundImageFix"/>
<feBlend mode="normal" in="SourceGraphic" in2="BackgroundImageFix" result="shape"/>
<feColorMatrix in="SourceAlpha" type="matrix" values="0 0 0 0 0 0 0 0 0 0 0 0 0 0 0 0 0 0 127 0" result="hardAlpha"/>
<feMorphology radius="5" operator="erode" in="SourceAlpha" result="effect1_innerShadow_343_4852"/>
<feOffset dy="5"/>
<feGaussianBlur stdDeviation="4"/>
<feComposite in2="hardAlpha" operator="arithmetic" k2="-1" k3="1"/>
<feColorMatrix type="matrix" values="0 0 0 0 0.152941 0 0 0 0 0.839216 0 0 0 0 0.564706 0 0 0 0.33 0"/>
<feBlend mode="normal" in2="shape" result="effect1_innerShadow_343_4852"/>
</filter>
</defs>
</svg>
