<svg width="56" height="56" viewBox="0 0 56 56" fill="none" xmlns="http://www.w3.org/2000/svg">
<g filter="url(#filter0_i_14_3829)">
<rect width="56" height="56" fill="#100C22"/>
</g>
<rect x="0.5" y="0.5" width="55" height="55" stroke="#27D690"/>
<path d="M35.7288 24.2689H20.2712C19.1387 24.27 18.053 24.7165 17.2522 25.5106C16.4514 26.3046 16.0011 27.3813 16 28.5042V35.7647C16.0011 36.8876 16.4514 37.9643 17.2522 38.7583C18.053 39.5524 19.1387 39.9989 20.2712 40H35.7288C36.8613 39.9989 37.947 39.5524 38.7478 38.7583C39.5486 37.9643 39.9989 36.8876 40 35.7647V28.5042C39.9989 27.3813 39.5486 26.3046 38.7478 25.5106C37.947 24.7165 36.8613 24.27 35.7288 24.2689ZM31.0508 33.0864H29.0169V35.1032C29.0169 35.3706 28.9098 35.6271 28.7191 35.8162C28.5284 36.0054 28.2697 36.1116 28 36.1116C27.7303 36.1116 27.4716 36.0054 27.2809 35.8162C27.0902 35.6271 26.9831 35.3706 26.9831 35.1032V33.0864H24.9492C24.6794 33.0864 24.4208 32.9801 24.2301 32.791C24.0393 32.6019 23.9322 32.3454 23.9322 32.078C23.9322 31.8105 24.0393 31.554 24.2301 31.3649C24.4208 31.1758 24.6794 31.0696 24.9492 31.0696H26.9831V29.0528C26.9831 28.7853 27.0902 28.5288 27.2809 28.3397C27.4716 28.1506 27.7303 28.0444 28 28.0444C28.2697 28.0444 28.5284 28.1506 28.7191 28.3397C28.9098 28.5288 29.0169 28.7853 29.0169 29.0528V31.0696H31.0508C31.3206 31.0696 31.5792 31.1758 31.7699 31.3649C31.9607 31.554 32.0678 31.8105 32.0678 32.078C32.0678 32.3454 31.9607 32.6019 31.7699 32.791C31.5792 32.9801 31.3206 33.0864 31.0508 33.0864Z" fill="#27D690"/>
<path d="M36.1356 22.4538H19.8644C19.5408 22.4538 19.2304 22.3263 19.0015 22.0994C18.7726 21.8724 18.6441 21.5646 18.6441 21.2437C18.6441 20.9228 18.7726 20.615 19.0015 20.388C19.2304 20.1611 19.5408 20.0336 19.8644 20.0336H36.1356C36.4592 20.0336 36.7696 20.1611 36.9985 20.388C37.2274 20.615 37.3559 20.9228 37.3559 21.2437C37.3559 21.5646 37.2274 21.8724 36.9985 22.0994C36.7696 22.3263 36.4592 22.4538 36.1356 22.4538Z" fill="#27D690"/>
<path d="M34.5085 18.4202H21.4915C21.1679 18.4202 20.8575 18.2927 20.6286 18.0657C20.3998 17.8388 20.2712 17.531 20.2712 17.2101C20.2712 16.8891 20.3998 16.5814 20.6286 16.3544C20.8575 16.1275 21.1679 16 21.4915 16H34.5085C34.8321 16 35.1425 16.1275 35.3714 16.3544C35.6002 16.5814 35.7288 16.8891 35.7288 17.2101C35.7288 17.531 35.6002 17.8388 35.3714 18.0657C35.1425 18.2927 34.8321 18.4202 34.5085 18.4202Z" fill="#27D690"/>
<defs>
<filter id="filter0_i_14_3829" x="0" y="0" width="56" height="61" filterUnits="userSpaceOnUse" color-interpolation-filters="sRGB">
<feFlood flood-opacity="0" result="BackgroundImageFix"/>
<feBlend mode="normal" in="SourceGraphic" in2="BackgroundImageFix" result="shape"/>
<feColorMatrix in="SourceAlpha" type="matrix" values="0 0 0 0 0 0 0 0 0 0 0 0 0 0 0 0 0 0 127 0" result="hardAlpha"/>
<feMorphology radius="5" operator="erode" in="SourceAlpha" result="effect1_innerShadow_14_3829"/>
<feOffset dy="5"/>
<feGaussianBlur stdDeviation="4"/>
<feComposite in2="hardAlpha" operator="arithmetic" k2="-1" k3="1"/>
<feColorMatrix type="matrix" values="0 0 0 0 0.152941 0 0 0 0 0.839216 0 0 0 0 0.564706 0 0 0 0.33 0"/>
<feBlend mode="normal" in2="shape" result="effect1_innerShadow_14_3829"/>
</filter>
</defs>
</svg>
